%TF.GenerationSoftware,KiCad,Pcbnew,(5.1.8)-1*%
%TF.CreationDate,2020-12-21T03:10:24-08:00*%
%TF.ProjectId,openThermostat,6f70656e-5468-4657-926d-6f737461742e,rev?*%
%TF.SameCoordinates,Original*%
%TF.FileFunction,Copper,L2,Bot*%
%TF.FilePolarity,Positive*%
%FSLAX46Y46*%
G04 Gerber Fmt 4.6, Leading zero omitted, Abs format (unit mm)*
G04 Created by KiCad (PCBNEW (5.1.8)-1) date 2020-12-21 03:10:24*
%MOMM*%
%LPD*%
G01*
G04 APERTURE LIST*
%TA.AperFunction,ComponentPad*%
%ADD10R,1.700000X1.700000*%
%TD*%
%TA.AperFunction,ComponentPad*%
%ADD11O,1.700000X1.700000*%
%TD*%
%TA.AperFunction,ComponentPad*%
%ADD12O,1.250000X0.950000*%
%TD*%
%TA.AperFunction,ComponentPad*%
%ADD13O,0.890000X1.550000*%
%TD*%
%TA.AperFunction,ComponentPad*%
%ADD14R,2.400000X2.400000*%
%TD*%
%TA.AperFunction,ComponentPad*%
%ADD15C,2.400000*%
%TD*%
%TA.AperFunction,ComponentPad*%
%ADD16C,2.000000*%
%TD*%
%TA.AperFunction,ComponentPad*%
%ADD17R,2.000000X2.000000*%
%TD*%
%TA.AperFunction,SMDPad,CuDef*%
%ADD18R,1.600000X1.400000*%
%TD*%
%TA.AperFunction,ViaPad*%
%ADD19C,0.800000*%
%TD*%
%TA.AperFunction,Conductor*%
%ADD20C,0.500000*%
%TD*%
%TA.AperFunction,Conductor*%
%ADD21C,0.250000*%
%TD*%
%TA.AperFunction,Conductor*%
%ADD22C,0.254000*%
%TD*%
%TA.AperFunction,Conductor*%
%ADD23C,0.100000*%
%TD*%
G04 APERTURE END LIST*
D10*
%TO.P,J3,1*%
%TO.N,GND*%
X94050000Y-93450000D03*
D11*
%TO.P,J3,2*%
%TO.N,+3V3*%
X94050000Y-95990000D03*
%TO.P,J3,3*%
%TO.N,/MOSI*%
X96590000Y-93450000D03*
%TO.P,J3,4*%
%TO.N,/SCK*%
X96590000Y-95990000D03*
%TO.P,J3,5*%
%TO.N,/MISO*%
X99130000Y-93450000D03*
%TO.P,J3,6*%
%TO.N,GND*%
X99130000Y-95990000D03*
%TO.P,J3,7*%
%TO.N,/IO12*%
X101670000Y-93450000D03*
%TO.P,J3,8*%
%TO.N,/IO13*%
X101670000Y-95990000D03*
%TO.P,J3,9*%
%TO.N,/SCL*%
X104210000Y-93450000D03*
%TO.P,J3,10*%
%TO.N,/SDA*%
X104210000Y-95990000D03*
%TO.P,J3,11*%
%TO.N,/TX2*%
X106750000Y-93450000D03*
%TO.P,J3,12*%
%TO.N,/RX2*%
X106750000Y-95990000D03*
%TD*%
D12*
%TO.P,J6,6*%
%TO.N,GND*%
X156000000Y-105800000D03*
X161000000Y-105800000D03*
D13*
X155000000Y-108500000D03*
X162000000Y-108500000D03*
%TD*%
D10*
%TO.P,J1,1*%
%TO.N,Net-(J1-Pad1)*%
X145300000Y-52550000D03*
D11*
%TO.P,J1,2*%
%TO.N,/TX*%
X147840000Y-52550000D03*
%TO.P,J1,3*%
%TO.N,/RX*%
X150380000Y-52550000D03*
%TO.P,J1,4*%
%TO.N,+3V3*%
X152920000Y-52550000D03*
%TO.P,J1,5*%
%TO.N,Net-(J1-Pad5)*%
X155460000Y-52550000D03*
%TO.P,J1,6*%
%TO.N,GND*%
X158000000Y-52550000D03*
%TD*%
D14*
%TO.P,J4,1*%
%TO.N,/CONT_COM*%
X99000000Y-105500000D03*
D15*
%TO.P,J4,2*%
%TO.N,/CONT_HEAT*%
X102500000Y-105500000D03*
%TO.P,J4,3*%
%TO.N,/CONT_COOL*%
X106000000Y-105500000D03*
%TO.P,J4,4*%
%TO.N,/CONT_FAN*%
X109500000Y-105500000D03*
%TD*%
D14*
%TO.P,J5,1*%
%TO.N,Net-(J5-Pad1)*%
X146750000Y-105500000D03*
D15*
%TO.P,J5,2*%
%TO.N,GND*%
X150250000Y-105500000D03*
%TD*%
D16*
%TO.P,K1,10*%
%TO.N,/CONT_HEAT*%
X120000000Y-95590000D03*
%TO.P,K1,9*%
%TO.N,Net-(D1-Pad2)*%
X120000000Y-98130000D03*
D17*
%TO.P,K1,1*%
%TO.N,Net-(K1-Pad1)*%
X114920000Y-95590000D03*
D16*
%TO.P,K1,2*%
%TO.N,+3V3*%
X114920000Y-98130000D03*
%TO.P,K1,6*%
%TO.N,/CONT_COM*%
X120000000Y-105750000D03*
%TO.P,K1,5*%
X114920000Y-105750000D03*
%TD*%
%TO.P,K2,10*%
%TO.N,/CONT_COOL*%
X129830000Y-95590000D03*
%TO.P,K2,9*%
%TO.N,Net-(D3-Pad2)*%
X129830000Y-98130000D03*
D17*
%TO.P,K2,1*%
%TO.N,Net-(K2-Pad1)*%
X124750000Y-95590000D03*
D16*
%TO.P,K2,2*%
%TO.N,+3V3*%
X124750000Y-98130000D03*
%TO.P,K2,6*%
%TO.N,/CONT_COM*%
X129830000Y-105750000D03*
%TO.P,K2,5*%
X124750000Y-105750000D03*
%TD*%
%TO.P,K3,5*%
%TO.N,/CONT_COM*%
X134500000Y-105750000D03*
%TO.P,K3,6*%
X139580000Y-105750000D03*
%TO.P,K3,2*%
%TO.N,+3V3*%
X134500000Y-98130000D03*
D17*
%TO.P,K3,1*%
%TO.N,Net-(K3-Pad1)*%
X134500000Y-95590000D03*
D16*
%TO.P,K3,9*%
%TO.N,Net-(D5-Pad2)*%
X139580000Y-98130000D03*
%TO.P,K3,10*%
%TO.N,/CONT_FAN*%
X139580000Y-95590000D03*
%TD*%
%TO.P,R7,1*%
%TO.N,/UP_BTN*%
%TA.AperFunction,SMDPad,CuDef*%
G36*
G01*
X149267500Y-59850000D02*
X148792500Y-59850000D01*
G75*
G02*
X148555000Y-59612500I0J237500D01*
G01*
X148555000Y-59112500D01*
G75*
G02*
X148792500Y-58875000I237500J0D01*
G01*
X149267500Y-58875000D01*
G75*
G02*
X149505000Y-59112500I0J-237500D01*
G01*
X149505000Y-59612500D01*
G75*
G02*
X149267500Y-59850000I-237500J0D01*
G01*
G37*
%TD.AperFunction*%
%TO.P,R7,2*%
%TO.N,GND*%
%TA.AperFunction,SMDPad,CuDef*%
G36*
G01*
X149267500Y-58025000D02*
X148792500Y-58025000D01*
G75*
G02*
X148555000Y-57787500I0J237500D01*
G01*
X148555000Y-57287500D01*
G75*
G02*
X148792500Y-57050000I237500J0D01*
G01*
X149267500Y-57050000D01*
G75*
G02*
X149505000Y-57287500I0J-237500D01*
G01*
X149505000Y-57787500D01*
G75*
G02*
X149267500Y-58025000I-237500J0D01*
G01*
G37*
%TD.AperFunction*%
%TD*%
%TO.P,R8,2*%
%TO.N,GND*%
%TA.AperFunction,SMDPad,CuDef*%
G36*
G01*
X151465000Y-75222500D02*
X151465000Y-75697500D01*
G75*
G02*
X151227500Y-75935000I-237500J0D01*
G01*
X150727500Y-75935000D01*
G75*
G02*
X150490000Y-75697500I0J237500D01*
G01*
X150490000Y-75222500D01*
G75*
G02*
X150727500Y-74985000I237500J0D01*
G01*
X151227500Y-74985000D01*
G75*
G02*
X151465000Y-75222500I0J-237500D01*
G01*
G37*
%TD.AperFunction*%
%TO.P,R8,1*%
%TO.N,/DOWN_BTN*%
%TA.AperFunction,SMDPad,CuDef*%
G36*
G01*
X153290000Y-75222500D02*
X153290000Y-75697500D01*
G75*
G02*
X153052500Y-75935000I-237500J0D01*
G01*
X152552500Y-75935000D01*
G75*
G02*
X152315000Y-75697500I0J237500D01*
G01*
X152315000Y-75222500D01*
G75*
G02*
X152552500Y-74985000I237500J0D01*
G01*
X153052500Y-74985000D01*
G75*
G02*
X153290000Y-75222500I0J-237500D01*
G01*
G37*
%TD.AperFunction*%
%TD*%
%TO.P,R9,2*%
%TO.N,GND*%
%TA.AperFunction,SMDPad,CuDef*%
G36*
G01*
X149072500Y-99085000D02*
X149547500Y-99085000D01*
G75*
G02*
X149785000Y-99322500I0J-237500D01*
G01*
X149785000Y-99822500D01*
G75*
G02*
X149547500Y-100060000I-237500J0D01*
G01*
X149072500Y-100060000D01*
G75*
G02*
X148835000Y-99822500I0J237500D01*
G01*
X148835000Y-99322500D01*
G75*
G02*
X149072500Y-99085000I237500J0D01*
G01*
G37*
%TD.AperFunction*%
%TO.P,R9,1*%
%TO.N,/MULTI_BTN*%
%TA.AperFunction,SMDPad,CuDef*%
G36*
G01*
X149072500Y-97260000D02*
X149547500Y-97260000D01*
G75*
G02*
X149785000Y-97497500I0J-237500D01*
G01*
X149785000Y-97997500D01*
G75*
G02*
X149547500Y-98235000I-237500J0D01*
G01*
X149072500Y-98235000D01*
G75*
G02*
X148835000Y-97997500I0J237500D01*
G01*
X148835000Y-97497500D01*
G75*
G02*
X149072500Y-97260000I237500J0D01*
G01*
G37*
%TD.AperFunction*%
%TD*%
D18*
%TO.P,SW2,3*%
%TO.N,N/C*%
X159350000Y-82250000D03*
%TO.P,SW2,4*%
X151350000Y-82250000D03*
%TO.P,SW2,1*%
%TO.N,+3V3*%
X159350000Y-77750000D03*
%TO.P,SW2,2*%
%TO.N,/DOWN_BTN*%
X151350000Y-77750000D03*
%TD*%
%TO.P,SW3,2*%
%TO.N,/MULTI_BTN*%
X151350000Y-97750000D03*
%TO.P,SW3,1*%
%TO.N,+3V3*%
X159350000Y-97750000D03*
%TO.P,SW3,4*%
%TO.N,N/C*%
X151350000Y-102250000D03*
%TO.P,SW3,3*%
X159350000Y-102250000D03*
%TD*%
%TO.P,SW1,2*%
%TO.N,/UP_BTN*%
X151000000Y-57750000D03*
%TO.P,SW1,1*%
%TO.N,+3V3*%
X159000000Y-57750000D03*
%TO.P,SW1,4*%
%TO.N,N/C*%
X151000000Y-62250000D03*
%TO.P,SW1,3*%
X159000000Y-62250000D03*
%TD*%
D19*
%TO.N,+3V3*%
X143000000Y-85250000D03*
X102000000Y-62500000D03*
X132500000Y-89650000D03*
X122700000Y-89650000D03*
X112900000Y-89650000D03*
X122300000Y-59700000D03*
X102920000Y-69510000D03*
X145000000Y-80630000D03*
%TO.N,GND*%
X146530000Y-57560000D03*
X163500000Y-57000000D03*
X129000000Y-60500000D03*
X140500000Y-66500000D03*
X111500000Y-53500000D03*
X95000000Y-63000000D03*
X95000000Y-80000000D03*
X103000000Y-84500000D03*
X119500000Y-78500000D03*
X136500000Y-77000000D03*
X142500000Y-92000000D03*
X101000000Y-99000000D03*
X166500000Y-100000000D03*
X128000000Y-83000000D03*
X148560000Y-89340000D03*
X127250000Y-69450000D03*
X163500000Y-78300000D03*
X153200000Y-71600000D03*
X148800000Y-80500000D03*
X142200000Y-81700000D03*
X153800000Y-103500000D03*
X154400000Y-99200000D03*
%TO.N,/SCK*%
X133740000Y-66460000D03*
X109190000Y-67230000D03*
%TO.N,/SDA*%
X132880000Y-68730000D03*
%TO.N,/SCL*%
X131790000Y-68770000D03*
%TO.N,/MOSI*%
X134810000Y-59770000D03*
X107545000Y-66324908D03*
%TO.N,/MISO*%
X134580000Y-67390000D03*
X109349980Y-69489999D03*
%TO.N,/UP_BTN*%
X148150000Y-69930000D03*
%TO.N,/DOWN_BTN*%
X148240000Y-73740000D03*
%TO.N,/MULTI_BTN*%
X134430000Y-84070000D03*
X132690000Y-77780000D03*
%TO.N,/TX2*%
X134720000Y-71200000D03*
%TO.N,/RX2*%
X134710000Y-72470000D03*
%TO.N,/IO12*%
X117720000Y-75010000D03*
%TO.N,/IO13*%
X123830000Y-77910000D03*
%TO.N,/SCR_RS*%
X106380000Y-65390000D03*
X109220000Y-65284990D03*
%TD*%
D20*
%TO.N,+3V3*%
X145000000Y-59350000D02*
X143400000Y-57750000D01*
D21*
X132500000Y-86050000D02*
X133300000Y-85250000D01*
X132500000Y-89650000D02*
X132500000Y-86050000D01*
D20*
X143000000Y-85250000D02*
X133300000Y-85250000D01*
D21*
X122700000Y-86050000D02*
X123500000Y-85250000D01*
X122700000Y-89650000D02*
X122700000Y-86050000D01*
D20*
X133300000Y-85250000D02*
X123500000Y-85250000D01*
D21*
X112900000Y-86150000D02*
X113800000Y-85250000D01*
X112900000Y-89650000D02*
X112900000Y-86150000D01*
X123500000Y-85250000D02*
X113800000Y-85250000D01*
D20*
X145000000Y-59350000D02*
X145000000Y-56250000D01*
X145000000Y-56250000D02*
X146500000Y-54750000D01*
X146500000Y-54750000D02*
X152000000Y-54750000D01*
X152920000Y-53830000D02*
X152920000Y-52550000D01*
X152000000Y-54750000D02*
X152920000Y-53830000D01*
D21*
X159350000Y-97750000D02*
X156750000Y-97750000D01*
X156750000Y-97750000D02*
X156000000Y-97000000D01*
X159350000Y-77750000D02*
X156750000Y-77750000D01*
X156750000Y-77750000D02*
X156000000Y-77000000D01*
X156000000Y-97000000D02*
X156000000Y-77000000D01*
X156000000Y-77000000D02*
X156000000Y-59000000D01*
X159350000Y-57750000D02*
X156750000Y-57750000D01*
X156000000Y-58500000D02*
X156000000Y-59000000D01*
X156750000Y-57750000D02*
X156000000Y-58500000D01*
D20*
X124250000Y-57750000D02*
X124450000Y-57750000D01*
X122300000Y-59700000D02*
X124250000Y-57750000D01*
X143400000Y-57750000D02*
X124450000Y-57750000D01*
D21*
X156000000Y-55950000D02*
X154800000Y-54750000D01*
X156000000Y-58500000D02*
X156000000Y-55950000D01*
D20*
X152000000Y-54750000D02*
X154800000Y-54750000D01*
X145000000Y-77270000D02*
X145000000Y-59350000D01*
X102000000Y-62500000D02*
X102000000Y-59450000D01*
X103700000Y-57750000D02*
X124450000Y-57750000D01*
X102000000Y-59450000D02*
X103700000Y-57750000D01*
X102000000Y-68590000D02*
X102920000Y-69510000D01*
X102000000Y-62500000D02*
X102000000Y-68590000D01*
X145000000Y-77270000D02*
X145000000Y-80630000D01*
D21*
%TO.N,GND*%
X149007500Y-57560000D02*
X149030000Y-57537500D01*
X146530000Y-57560000D02*
X149007500Y-57560000D01*
X147182500Y-99572500D02*
X147180000Y-99570000D01*
X149310000Y-99572500D02*
X147182500Y-99572500D01*
X148800000Y-77637500D02*
X148800000Y-80500000D01*
X150977500Y-75460000D02*
X148800000Y-77637500D01*
%TO.N,/SCK*%
X109960000Y-66460000D02*
X133740000Y-66460000D01*
X109190000Y-67230000D02*
X109960000Y-66460000D01*
X97765001Y-94814999D02*
X96590000Y-95990000D01*
X97765001Y-89434999D02*
X97765001Y-94814999D01*
X98656400Y-88543600D02*
X97765001Y-89434999D01*
X107942810Y-88543600D02*
X98656400Y-88543600D01*
X108624979Y-67795021D02*
X108624979Y-87861431D01*
X108624979Y-87861431D02*
X107942810Y-88543600D01*
X109190000Y-67230000D02*
X108624979Y-67795021D01*
%TO.N,/SDA*%
X132320000Y-70749990D02*
X132880000Y-70189990D01*
X132880000Y-70189990D02*
X132880000Y-68730000D01*
X123053599Y-70749991D02*
X132320000Y-70749990D01*
X104210000Y-95990000D02*
X105385001Y-94814999D01*
X105385001Y-91164999D02*
X106206360Y-90343640D01*
X106206360Y-90343640D02*
X109592771Y-90343639D01*
X109592771Y-90343639D02*
X110719970Y-89216440D01*
X112810799Y-83099971D02*
X121383598Y-83099970D01*
X110719970Y-89216440D02*
X110719970Y-85190800D01*
X122204979Y-73193600D02*
X122204979Y-71598611D01*
X105385001Y-94814999D02*
X105385001Y-91164999D01*
X110719970Y-85190800D02*
X112810799Y-83099971D01*
X122199981Y-73198598D02*
X122204979Y-73193600D01*
X121383598Y-83099970D02*
X122199981Y-82283587D01*
X122199981Y-82283587D02*
X122199981Y-73198598D01*
X122204979Y-71598611D02*
X123053599Y-70749991D01*
%TO.N,/SCL*%
X131790000Y-69779981D02*
X131790000Y-68770000D01*
X122867198Y-70299982D02*
X131269999Y-70299982D01*
X121754969Y-71412211D02*
X122867198Y-70299982D01*
X105076370Y-89893630D02*
X109406370Y-89893630D01*
X104210000Y-90760000D02*
X105076370Y-89893630D01*
X109406370Y-89893630D02*
X110250000Y-89050000D01*
X131269999Y-70299982D02*
X131790000Y-69779981D01*
X110250000Y-85024360D02*
X112624400Y-82649960D01*
X121754969Y-73007200D02*
X121754969Y-71412211D01*
X121197198Y-82649960D02*
X121740000Y-82107158D01*
X110250000Y-89050000D02*
X110250000Y-85024360D01*
X104210000Y-93450000D02*
X104210000Y-90760000D01*
X112624400Y-82649960D02*
X121197198Y-82649960D01*
X121740000Y-82107158D02*
X121740000Y-82000000D01*
X121740000Y-82000000D02*
X121749971Y-81990029D01*
X121749971Y-81990029D02*
X121749971Y-73012198D01*
X121749971Y-73012198D02*
X121754969Y-73007200D01*
D20*
%TO.N,/CONT_COM*%
X99000000Y-105500000D02*
X99000000Y-107000000D01*
X99000000Y-107000000D02*
X100000000Y-108000000D01*
X100000000Y-108000000D02*
X114000000Y-108000000D01*
X114920000Y-107080000D02*
X114920000Y-105750000D01*
X114000000Y-108000000D02*
X114920000Y-107080000D01*
%TO.N,/CONT_HEAT*%
X120000000Y-95590000D02*
X121340000Y-95590000D01*
X121340000Y-95590000D02*
X122250000Y-96500000D01*
X122250000Y-96500000D02*
X122250000Y-99250000D01*
X122250000Y-99250000D02*
X121000000Y-100500000D01*
X121000000Y-100500000D02*
X103750000Y-100500000D01*
X102500000Y-101750000D02*
X102500000Y-105500000D01*
X103750000Y-100500000D02*
X102500000Y-101750000D01*
%TO.N,/CONT_COOL*%
X129830000Y-95590000D02*
X131090000Y-95590000D01*
X131090000Y-95590000D02*
X132000000Y-96500000D01*
X132000000Y-96500000D02*
X132000000Y-100250000D01*
X132000000Y-100250000D02*
X130750000Y-101500000D01*
X130750000Y-101500000D02*
X107250000Y-101500000D01*
X106000000Y-102750000D02*
X106000000Y-105500000D01*
X107250000Y-101500000D02*
X106000000Y-102750000D01*
%TO.N,/CONT_FAN*%
X109500000Y-103750000D02*
X109500000Y-105500000D01*
X110750000Y-102500000D02*
X109500000Y-103750000D01*
X141000000Y-102500000D02*
X110750000Y-102500000D01*
X142000000Y-101500000D02*
X141000000Y-102500000D01*
X142000000Y-96500000D02*
X142000000Y-101500000D01*
X141090000Y-95590000D02*
X142000000Y-96500000D01*
X139580000Y-95590000D02*
X141090000Y-95590000D01*
D21*
%TO.N,/MOSI*%
X96590000Y-93450000D02*
X96590000Y-89210000D01*
X96590000Y-89210000D02*
X97706410Y-88093590D01*
X107859918Y-66009990D02*
X107545000Y-66324908D01*
X133117008Y-66009990D02*
X107859918Y-66009990D01*
X134220000Y-64906998D02*
X133117008Y-66009990D01*
X134220000Y-60360000D02*
X134220000Y-64906998D01*
X134810000Y-59770000D02*
X134220000Y-60360000D01*
X107545000Y-66324908D02*
X106900000Y-66969908D01*
X106900000Y-87270000D02*
X106076410Y-88093590D01*
X106900000Y-66969908D02*
X106900000Y-87270000D01*
X106076410Y-88093590D02*
X97706410Y-88093590D01*
%TO.N,/MISO*%
X115840000Y-67390000D02*
X134580000Y-67390000D01*
X110210000Y-67390000D02*
X115840000Y-67390000D01*
X109349980Y-68250020D02*
X110210000Y-67390000D01*
X109349980Y-88050020D02*
X109349980Y-68250020D01*
X100306390Y-88993610D02*
X108406390Y-88993610D01*
X99130000Y-90170000D02*
X100306390Y-88993610D01*
X108406390Y-88993610D02*
X109349980Y-88050020D01*
X99130000Y-93450000D02*
X99130000Y-90170000D01*
%TO.N,/UP_BTN*%
X150997500Y-57752500D02*
X151000000Y-57750000D01*
X149030000Y-59362500D02*
X150477500Y-59362500D01*
X151000000Y-58840000D02*
X151000000Y-57750000D01*
X150477500Y-59362500D02*
X151000000Y-58840000D01*
X154750000Y-57750000D02*
X151350000Y-57750000D01*
X155500000Y-58500000D02*
X154750000Y-57750000D01*
X155500000Y-69100000D02*
X155500000Y-58500000D01*
X154670000Y-69930000D02*
X155500000Y-69100000D01*
X148150000Y-69930000D02*
X154670000Y-69930000D01*
%TO.N,/DOWN_BTN*%
X151350000Y-77750000D02*
X154250000Y-77750000D01*
X154250000Y-77750000D02*
X155000000Y-77000000D01*
X154490000Y-75460000D02*
X155000000Y-75970000D01*
X152802500Y-75460000D02*
X154490000Y-75460000D01*
X155000000Y-77000000D02*
X155000000Y-75970000D01*
X148240000Y-73740000D02*
X152110000Y-73740000D01*
X152802500Y-74432500D02*
X152802500Y-75460000D01*
X152110000Y-73740000D02*
X152802500Y-74432500D01*
%TO.N,/MULTI_BTN*%
X133560000Y-84070000D02*
X132690000Y-83200000D01*
X132690000Y-83200000D02*
X132690000Y-81800000D01*
X155500000Y-84490000D02*
X155080000Y-84070000D01*
X155500000Y-97000000D02*
X155500000Y-84490000D01*
X154750000Y-97750000D02*
X155500000Y-97000000D01*
X151350000Y-97750000D02*
X154750000Y-97750000D01*
X134430000Y-84070000D02*
X133560000Y-84070000D01*
X155080000Y-84070000D02*
X134430000Y-84070000D01*
X151347500Y-97747500D02*
X151350000Y-97750000D01*
X149310000Y-97747500D02*
X151347500Y-97747500D01*
X132690000Y-81800000D02*
X132690000Y-77780000D01*
%TO.N,/TX2*%
X122654990Y-72738600D02*
X122654989Y-72738601D01*
X124760000Y-71200000D02*
X134720000Y-71200000D01*
X123240000Y-71200000D02*
X124760000Y-71200000D01*
X122654989Y-71785011D02*
X123240000Y-71200000D01*
X122654989Y-72738601D02*
X122654989Y-71785011D01*
X110280000Y-93450000D02*
X106750000Y-93450000D01*
X111169980Y-85377200D02*
X111169980Y-92560020D01*
X112997200Y-83549980D02*
X111169980Y-85377200D01*
X121569999Y-83549979D02*
X112997200Y-83549980D01*
X122649991Y-82469987D02*
X121569999Y-83549979D01*
X111169980Y-92560020D02*
X110280000Y-93450000D01*
X122649991Y-73384998D02*
X122649991Y-82469987D01*
X122654989Y-73380000D02*
X122649991Y-73384998D01*
X122654989Y-72738601D02*
X122654989Y-73380000D01*
%TO.N,/RX2*%
X111619990Y-94870010D02*
X110500000Y-95990000D01*
X111619990Y-85563600D02*
X111619990Y-94870010D01*
X113183599Y-83999991D02*
X111619990Y-85563600D01*
X110500000Y-95990000D02*
X106750000Y-95990000D01*
X121756398Y-83999990D02*
X113183599Y-83999991D01*
X123100000Y-81940000D02*
X123100000Y-82656388D01*
X123104999Y-81935001D02*
X123100000Y-81940000D01*
X123104999Y-72925001D02*
X123104999Y-81935001D01*
X123100000Y-82656388D02*
X121756398Y-83999990D01*
X123560000Y-72470000D02*
X123104999Y-72925001D01*
X134710000Y-72470000D02*
X123560000Y-72470000D01*
%TO.N,/IO12*%
X101670000Y-90610000D02*
X101670000Y-93450000D01*
X102836380Y-89443620D02*
X101670000Y-90610000D01*
X109799990Y-88490010D02*
X108846380Y-89443620D01*
X109799990Y-84837960D02*
X109799990Y-88490010D01*
X112437999Y-82199951D02*
X109799990Y-84837960D01*
X116640050Y-82199950D02*
X112437999Y-82199951D01*
X117180000Y-81660000D02*
X116640050Y-82199950D01*
X108846380Y-89443620D02*
X102836380Y-89443620D01*
X117180000Y-75550000D02*
X117180000Y-81660000D01*
X117720000Y-75010000D02*
X117180000Y-75550000D01*
%TO.N,/IO13*%
X101670000Y-96970000D02*
X101670000Y-95990000D01*
X111060000Y-97520000D02*
X102220000Y-97520000D01*
X112070000Y-96510000D02*
X111060000Y-97520000D01*
X112070000Y-85750000D02*
X112070000Y-96510000D01*
X113370000Y-84450000D02*
X112070000Y-85750000D01*
X121942799Y-84449999D02*
X113370000Y-84450000D01*
X102220000Y-97520000D02*
X101670000Y-96970000D01*
X123830000Y-82562798D02*
X121942799Y-84449999D01*
X123830000Y-77910000D02*
X123830000Y-82562798D01*
%TO.N,/SCR_RS*%
X109114990Y-65390000D02*
X109220000Y-65284990D01*
X106380000Y-65390000D02*
X109114990Y-65390000D01*
%TD*%
D22*
%TO.N,GND*%
X113873000Y-57000000D02*
X113875440Y-57024776D01*
X113882667Y-57048601D01*
X113894403Y-57070557D01*
X113910197Y-57089803D01*
X113929443Y-57105597D01*
X113951399Y-57117333D01*
X113956895Y-57119000D01*
X103730987Y-57119000D01*
X103699999Y-57115948D01*
X103669011Y-57119000D01*
X103669002Y-57119000D01*
X103576302Y-57128130D01*
X103457358Y-57164211D01*
X103347739Y-57222804D01*
X103251657Y-57301657D01*
X103231899Y-57325732D01*
X101575733Y-58981899D01*
X101551658Y-59001657D01*
X101531900Y-59025732D01*
X101531897Y-59025735D01*
X101472804Y-59097740D01*
X101414211Y-59207359D01*
X101378130Y-59326303D01*
X101365948Y-59450000D01*
X101369001Y-59481000D01*
X101369000Y-62038595D01*
X101307887Y-62130058D01*
X101249013Y-62272191D01*
X101219000Y-62423078D01*
X101219000Y-62576922D01*
X101249013Y-62727809D01*
X101307887Y-62869942D01*
X101369000Y-62961405D01*
X101369001Y-68559000D01*
X101365948Y-68590000D01*
X101378130Y-68713697D01*
X101414211Y-68832641D01*
X101472804Y-68942260D01*
X101531897Y-69014265D01*
X101531900Y-69014268D01*
X101551658Y-69038343D01*
X101575733Y-69058101D01*
X102147553Y-69629921D01*
X102169013Y-69737809D01*
X102227887Y-69879942D01*
X102313358Y-70007859D01*
X102422141Y-70116642D01*
X102550058Y-70202113D01*
X102692191Y-70260987D01*
X102843078Y-70291000D01*
X102996922Y-70291000D01*
X103147809Y-70260987D01*
X103289942Y-70202113D01*
X103417859Y-70116642D01*
X103526642Y-70007859D01*
X103612113Y-69879942D01*
X103670987Y-69737809D01*
X103701000Y-69586922D01*
X103701000Y-69433078D01*
X103670987Y-69282191D01*
X103612113Y-69140058D01*
X103526642Y-69012141D01*
X103417859Y-68903358D01*
X103289942Y-68817887D01*
X103147809Y-68759013D01*
X103039921Y-68737553D01*
X102631000Y-68328632D01*
X102631000Y-62961405D01*
X102692113Y-62869942D01*
X102750987Y-62727809D01*
X102781000Y-62576922D01*
X102781000Y-62423078D01*
X102750987Y-62272191D01*
X102692113Y-62130058D01*
X102631000Y-62038595D01*
X102631000Y-59711368D01*
X103961369Y-58381000D01*
X122726632Y-58381000D01*
X122180079Y-58927553D01*
X122072191Y-58949013D01*
X121930058Y-59007887D01*
X121802141Y-59093358D01*
X121693358Y-59202141D01*
X121607887Y-59330058D01*
X121549013Y-59472191D01*
X121519000Y-59623078D01*
X121519000Y-59776922D01*
X121549013Y-59927809D01*
X121607887Y-60069942D01*
X121693358Y-60197859D01*
X121802141Y-60306642D01*
X121930058Y-60392113D01*
X122072191Y-60450987D01*
X122223078Y-60481000D01*
X122376922Y-60481000D01*
X122527809Y-60450987D01*
X122669942Y-60392113D01*
X122797859Y-60306642D01*
X122906642Y-60197859D01*
X122992113Y-60069942D01*
X123050987Y-59927809D01*
X123072447Y-59819921D01*
X124511368Y-58381000D01*
X143138632Y-58381000D01*
X144369001Y-59611370D01*
X144369000Y-77239002D01*
X144369000Y-77239003D01*
X144369001Y-80168594D01*
X144307887Y-80260058D01*
X144249013Y-80402191D01*
X144219000Y-80553078D01*
X144219000Y-80706922D01*
X144249013Y-80857809D01*
X144307887Y-80999942D01*
X144393358Y-81127859D01*
X144502141Y-81236642D01*
X144630058Y-81322113D01*
X144772191Y-81380987D01*
X144923078Y-81411000D01*
X145076922Y-81411000D01*
X145227809Y-81380987D01*
X145369942Y-81322113D01*
X145497859Y-81236642D01*
X145606642Y-81127859D01*
X145692113Y-80999942D01*
X145750987Y-80857809D01*
X145781000Y-80706922D01*
X145781000Y-80553078D01*
X145750987Y-80402191D01*
X145692113Y-80260058D01*
X145631000Y-80168595D01*
X145631000Y-75935000D01*
X149851928Y-75935000D01*
X149864188Y-76059482D01*
X149900498Y-76179180D01*
X149959463Y-76289494D01*
X150038815Y-76386185D01*
X150135506Y-76465537D01*
X150245820Y-76524502D01*
X150365518Y-76560812D01*
X150490000Y-76573072D01*
X150691750Y-76570000D01*
X150850500Y-76411250D01*
X150850500Y-75587000D01*
X150013750Y-75587000D01*
X149855000Y-75745750D01*
X149851928Y-75935000D01*
X145631000Y-75935000D01*
X145631000Y-74985000D01*
X149851928Y-74985000D01*
X149855000Y-75174250D01*
X150013750Y-75333000D01*
X150850500Y-75333000D01*
X150850500Y-74508750D01*
X150691750Y-74350000D01*
X150490000Y-74346928D01*
X150365518Y-74359188D01*
X150245820Y-74395498D01*
X150135506Y-74454463D01*
X150038815Y-74533815D01*
X149959463Y-74630506D01*
X149900498Y-74740820D01*
X149864188Y-74860518D01*
X149851928Y-74985000D01*
X145631000Y-74985000D01*
X145631000Y-61550000D01*
X149817157Y-61550000D01*
X149817157Y-62950000D01*
X149824513Y-63024689D01*
X149846299Y-63096508D01*
X149881678Y-63162696D01*
X149929289Y-63220711D01*
X149987304Y-63268322D01*
X150053492Y-63303701D01*
X150125311Y-63325487D01*
X150200000Y-63332843D01*
X151800000Y-63332843D01*
X151874689Y-63325487D01*
X151946508Y-63303701D01*
X152012696Y-63268322D01*
X152070711Y-63220711D01*
X152118322Y-63162696D01*
X152153701Y-63096508D01*
X152175487Y-63024689D01*
X152182843Y-62950000D01*
X152182843Y-61550000D01*
X152175487Y-61475311D01*
X152153701Y-61403492D01*
X152118322Y-61337304D01*
X152070711Y-61279289D01*
X152012696Y-61231678D01*
X151946508Y-61196299D01*
X151874689Y-61174513D01*
X151800000Y-61167157D01*
X150200000Y-61167157D01*
X150125311Y-61174513D01*
X150053492Y-61196299D01*
X149987304Y-61231678D01*
X149929289Y-61279289D01*
X149881678Y-61337304D01*
X149846299Y-61403492D01*
X149824513Y-61475311D01*
X149817157Y-61550000D01*
X145631000Y-61550000D01*
X145631000Y-59380990D01*
X145634052Y-59350000D01*
X145631000Y-59319009D01*
X145631000Y-57050000D01*
X147916928Y-57050000D01*
X147920000Y-57251750D01*
X148078750Y-57410500D01*
X148903000Y-57410500D01*
X148903000Y-56573750D01*
X148744250Y-56415000D01*
X148555000Y-56411928D01*
X148430518Y-56424188D01*
X148310820Y-56460498D01*
X148200506Y-56519463D01*
X148103815Y-56598815D01*
X148024463Y-56695506D01*
X147965498Y-56805820D01*
X147929188Y-56925518D01*
X147916928Y-57050000D01*
X145631000Y-57050000D01*
X145631000Y-56511368D01*
X146761369Y-55381000D01*
X151969010Y-55381000D01*
X152000000Y-55384052D01*
X152030990Y-55381000D01*
X154715409Y-55381000D01*
X155494001Y-56159593D01*
X155494000Y-57778409D01*
X155125376Y-57409785D01*
X155109527Y-57390473D01*
X155032479Y-57327241D01*
X154944575Y-57280255D01*
X154849193Y-57251322D01*
X154774854Y-57244000D01*
X154774846Y-57244000D01*
X154750000Y-57241553D01*
X154725154Y-57244000D01*
X152182843Y-57244000D01*
X152182843Y-57050000D01*
X152175487Y-56975311D01*
X152153701Y-56903492D01*
X152118322Y-56837304D01*
X152070711Y-56779289D01*
X152012696Y-56731678D01*
X151946508Y-56696299D01*
X151874689Y-56674513D01*
X151800000Y-56667157D01*
X150200000Y-56667157D01*
X150125311Y-56674513D01*
X150053492Y-56696299D01*
X150039857Y-56703587D01*
X150035537Y-56695506D01*
X149956185Y-56598815D01*
X149859494Y-56519463D01*
X149749180Y-56460498D01*
X149629482Y-56424188D01*
X149505000Y-56411928D01*
X149315750Y-56415000D01*
X149157000Y-56573750D01*
X149157000Y-57410500D01*
X149177000Y-57410500D01*
X149177000Y-57664500D01*
X149157000Y-57664500D01*
X149157000Y-57684500D01*
X148903000Y-57684500D01*
X148903000Y-57664500D01*
X148078750Y-57664500D01*
X147920000Y-57823250D01*
X147916928Y-58025000D01*
X147929188Y-58149482D01*
X147965498Y-58269180D01*
X148024463Y-58379494D01*
X148103815Y-58476185D01*
X148200506Y-58555537D01*
X148310820Y-58614502D01*
X148395039Y-58640049D01*
X148353851Y-58673851D01*
X148276704Y-58767856D01*
X148219378Y-58875105D01*
X148184077Y-58991477D01*
X148172157Y-59112500D01*
X148172157Y-59612500D01*
X148184077Y-59733523D01*
X148219378Y-59849895D01*
X148276704Y-59957144D01*
X148353851Y-60051149D01*
X148447856Y-60128296D01*
X148555105Y-60185622D01*
X148671477Y-60220923D01*
X148792500Y-60232843D01*
X149267500Y-60232843D01*
X149388523Y-60220923D01*
X149504895Y-60185622D01*
X149612144Y-60128296D01*
X149706149Y-60051149D01*
X149783296Y-59957144D01*
X149830677Y-59868500D01*
X150452654Y-59868500D01*
X150477500Y-59870947D01*
X150502346Y-59868500D01*
X150502354Y-59868500D01*
X150576693Y-59861178D01*
X150672075Y-59832245D01*
X150759979Y-59785259D01*
X150837027Y-59722027D01*
X150852876Y-59702715D01*
X151340220Y-59215372D01*
X151359527Y-59199527D01*
X151422759Y-59122479D01*
X151469745Y-59034575D01*
X151498678Y-58939193D01*
X151506000Y-58864854D01*
X151506000Y-58864853D01*
X151508448Y-58840000D01*
X151507743Y-58832843D01*
X151800000Y-58832843D01*
X151874689Y-58825487D01*
X151946508Y-58803701D01*
X152012696Y-58768322D01*
X152070711Y-58720711D01*
X152118322Y-58662696D01*
X152153701Y-58596508D01*
X152175487Y-58524689D01*
X152182843Y-58450000D01*
X152182843Y-58256000D01*
X154540409Y-58256000D01*
X154994001Y-58709593D01*
X154994000Y-68890408D01*
X154460409Y-69424000D01*
X148748501Y-69424000D01*
X148647859Y-69323358D01*
X148519942Y-69237887D01*
X148377809Y-69179013D01*
X148226922Y-69149000D01*
X148073078Y-69149000D01*
X147922191Y-69179013D01*
X147780058Y-69237887D01*
X147652141Y-69323358D01*
X147543358Y-69432141D01*
X147457887Y-69560058D01*
X147399013Y-69702191D01*
X147369000Y-69853078D01*
X147369000Y-70006922D01*
X147399013Y-70157809D01*
X147457887Y-70299942D01*
X147543358Y-70427859D01*
X147652141Y-70536642D01*
X147780058Y-70622113D01*
X147922191Y-70680987D01*
X148073078Y-70711000D01*
X148226922Y-70711000D01*
X148377809Y-70680987D01*
X148519942Y-70622113D01*
X148647859Y-70536642D01*
X148748501Y-70436000D01*
X154645154Y-70436000D01*
X154670000Y-70438447D01*
X154694846Y-70436000D01*
X154694854Y-70436000D01*
X154769193Y-70428678D01*
X154864575Y-70399745D01*
X154952479Y-70352759D01*
X155029527Y-70289527D01*
X155045376Y-70270215D01*
X155494000Y-69821591D01*
X155494000Y-75855385D01*
X155469745Y-75775425D01*
X155453883Y-75745750D01*
X155422759Y-75687521D01*
X155359527Y-75610473D01*
X155340220Y-75594628D01*
X154865376Y-75119785D01*
X154849527Y-75100473D01*
X154772479Y-75037241D01*
X154684575Y-74990255D01*
X154589193Y-74961322D01*
X154514854Y-74954000D01*
X154514846Y-74954000D01*
X154490000Y-74951553D01*
X154465154Y-74954000D01*
X153608996Y-74954000D01*
X153568296Y-74877856D01*
X153491149Y-74783851D01*
X153397144Y-74706704D01*
X153308500Y-74659323D01*
X153308500Y-74457354D01*
X153310948Y-74432500D01*
X153301178Y-74333307D01*
X153272245Y-74237925D01*
X153257182Y-74209745D01*
X153225259Y-74150021D01*
X153162027Y-74072973D01*
X153142720Y-74057128D01*
X152485376Y-73399785D01*
X152469527Y-73380473D01*
X152392479Y-73317241D01*
X152304575Y-73270255D01*
X152209193Y-73241322D01*
X152134854Y-73234000D01*
X152134846Y-73234000D01*
X152110000Y-73231553D01*
X152085154Y-73234000D01*
X148838501Y-73234000D01*
X148737859Y-73133358D01*
X148609942Y-73047887D01*
X148467809Y-72989013D01*
X148316922Y-72959000D01*
X148163078Y-72959000D01*
X148012191Y-72989013D01*
X147870058Y-73047887D01*
X147742141Y-73133358D01*
X147633358Y-73242141D01*
X147547887Y-73370058D01*
X147489013Y-73512191D01*
X147459000Y-73663078D01*
X147459000Y-73816922D01*
X147489013Y-73967809D01*
X147547887Y-74109942D01*
X147633358Y-74237859D01*
X147742141Y-74346642D01*
X147870058Y-74432113D01*
X148012191Y-74490987D01*
X148163078Y-74521000D01*
X148316922Y-74521000D01*
X148467809Y-74490987D01*
X148609942Y-74432113D01*
X148737859Y-74346642D01*
X148838501Y-74246000D01*
X151900409Y-74246000D01*
X152296500Y-74642092D01*
X152296500Y-74659322D01*
X152207856Y-74706704D01*
X152113851Y-74783851D01*
X152080049Y-74825039D01*
X152054502Y-74740820D01*
X151995537Y-74630506D01*
X151916185Y-74533815D01*
X151819494Y-74454463D01*
X151709180Y-74395498D01*
X151589482Y-74359188D01*
X151465000Y-74346928D01*
X151263250Y-74350000D01*
X151104500Y-74508750D01*
X151104500Y-75333000D01*
X151124500Y-75333000D01*
X151124500Y-75587000D01*
X151104500Y-75587000D01*
X151104500Y-76411250D01*
X151263250Y-76570000D01*
X151465000Y-76573072D01*
X151589482Y-76560812D01*
X151709180Y-76524502D01*
X151819494Y-76465537D01*
X151916185Y-76386185D01*
X151995537Y-76289494D01*
X152054502Y-76179180D01*
X152080049Y-76094961D01*
X152113851Y-76136149D01*
X152207856Y-76213296D01*
X152315105Y-76270622D01*
X152431477Y-76305923D01*
X152552500Y-76317843D01*
X153052500Y-76317843D01*
X153173523Y-76305923D01*
X153289895Y-76270622D01*
X153397144Y-76213296D01*
X153491149Y-76136149D01*
X153568296Y-76042144D01*
X153608996Y-75966000D01*
X154280409Y-75966000D01*
X154494001Y-76179592D01*
X154494000Y-76790408D01*
X154040409Y-77244000D01*
X152532843Y-77244000D01*
X152532843Y-77050000D01*
X152525487Y-76975311D01*
X152503701Y-76903492D01*
X152468322Y-76837304D01*
X152420711Y-76779289D01*
X152362696Y-76731678D01*
X152296508Y-76696299D01*
X152224689Y-76674513D01*
X152150000Y-76667157D01*
X150550000Y-76667157D01*
X150475311Y-76674513D01*
X150403492Y-76696299D01*
X150337304Y-76731678D01*
X150279289Y-76779289D01*
X150231678Y-76837304D01*
X150196299Y-76903492D01*
X150174513Y-76975311D01*
X150167157Y-77050000D01*
X150167157Y-78450000D01*
X150174513Y-78524689D01*
X150196299Y-78596508D01*
X150231678Y-78662696D01*
X150279289Y-78720711D01*
X150337304Y-78768322D01*
X150403492Y-78803701D01*
X150475311Y-78825487D01*
X150550000Y-78832843D01*
X152150000Y-78832843D01*
X152224689Y-78825487D01*
X152296508Y-78803701D01*
X152362696Y-78768322D01*
X152420711Y-78720711D01*
X152468322Y-78662696D01*
X152503701Y-78596508D01*
X152525487Y-78524689D01*
X152532843Y-78450000D01*
X152532843Y-78256000D01*
X154225154Y-78256000D01*
X154250000Y-78258447D01*
X154274846Y-78256000D01*
X154274854Y-78256000D01*
X154349193Y-78248678D01*
X154444575Y-78219745D01*
X154532479Y-78172759D01*
X154609527Y-78109527D01*
X154625376Y-78090215D01*
X155340220Y-77375372D01*
X155359527Y-77359527D01*
X155422759Y-77282479D01*
X155469745Y-77194575D01*
X155484388Y-77146302D01*
X155494001Y-77114612D01*
X155494001Y-83768409D01*
X155455376Y-83729785D01*
X155439527Y-83710473D01*
X155362479Y-83647241D01*
X155274575Y-83600255D01*
X155179193Y-83571322D01*
X155104854Y-83564000D01*
X155104846Y-83564000D01*
X155080000Y-83561553D01*
X155055154Y-83564000D01*
X135028501Y-83564000D01*
X134927859Y-83463358D01*
X134799942Y-83377887D01*
X134657809Y-83319013D01*
X134506922Y-83289000D01*
X134353078Y-83289000D01*
X134202191Y-83319013D01*
X134060058Y-83377887D01*
X133932141Y-83463358D01*
X133831499Y-83564000D01*
X133769592Y-83564000D01*
X133196000Y-82990409D01*
X133196000Y-81550000D01*
X150167157Y-81550000D01*
X150167157Y-82950000D01*
X150174513Y-83024689D01*
X150196299Y-83096508D01*
X150231678Y-83162696D01*
X150279289Y-83220711D01*
X150337304Y-83268322D01*
X150403492Y-83303701D01*
X150475311Y-83325487D01*
X150550000Y-83332843D01*
X152150000Y-83332843D01*
X152224689Y-83325487D01*
X152296508Y-83303701D01*
X152362696Y-83268322D01*
X152420711Y-83220711D01*
X152468322Y-83162696D01*
X152503701Y-83096508D01*
X152525487Y-83024689D01*
X152532843Y-82950000D01*
X152532843Y-81550000D01*
X152525487Y-81475311D01*
X152503701Y-81403492D01*
X152468322Y-81337304D01*
X152420711Y-81279289D01*
X152362696Y-81231678D01*
X152296508Y-81196299D01*
X152224689Y-81174513D01*
X152150000Y-81167157D01*
X150550000Y-81167157D01*
X150475311Y-81174513D01*
X150403492Y-81196299D01*
X150337304Y-81231678D01*
X150279289Y-81279289D01*
X150231678Y-81337304D01*
X150196299Y-81403492D01*
X150174513Y-81475311D01*
X150167157Y-81550000D01*
X133196000Y-81550000D01*
X133196000Y-78378501D01*
X133296642Y-78277859D01*
X133382113Y-78149942D01*
X133440987Y-78007809D01*
X133471000Y-77856922D01*
X133471000Y-77703078D01*
X133440987Y-77552191D01*
X133382113Y-77410058D01*
X133296642Y-77282141D01*
X133187859Y-77173358D01*
X133059942Y-77087887D01*
X132917809Y-77029013D01*
X132766922Y-76999000D01*
X132613078Y-76999000D01*
X132462191Y-77029013D01*
X132320058Y-77087887D01*
X132192141Y-77173358D01*
X132083358Y-77282141D01*
X131997887Y-77410058D01*
X131939013Y-77552191D01*
X131909000Y-77703078D01*
X131909000Y-77856922D01*
X131939013Y-78007809D01*
X131997887Y-78149942D01*
X132083358Y-78277859D01*
X132184001Y-78378502D01*
X132184000Y-81824853D01*
X132184001Y-81824863D01*
X132184000Y-83175153D01*
X132181553Y-83200000D01*
X132184000Y-83224846D01*
X132184000Y-83224853D01*
X132191322Y-83299192D01*
X132220255Y-83394574D01*
X132267241Y-83482479D01*
X132330473Y-83559527D01*
X132349785Y-83575376D01*
X133184628Y-84410220D01*
X133200473Y-84429527D01*
X133277521Y-84492759D01*
X133365425Y-84539745D01*
X133460807Y-84568678D01*
X133560000Y-84578448D01*
X133584854Y-84576000D01*
X133831499Y-84576000D01*
X133874499Y-84619000D01*
X123469002Y-84619000D01*
X123376302Y-84628130D01*
X123257358Y-84664211D01*
X123147739Y-84722804D01*
X123121912Y-84744000D01*
X122364389Y-84744000D01*
X124170220Y-82938170D01*
X124189527Y-82922325D01*
X124252759Y-82845277D01*
X124299745Y-82757373D01*
X124314601Y-82708397D01*
X124328678Y-82661992D01*
X124330537Y-82643114D01*
X124336000Y-82587652D01*
X124336000Y-82587645D01*
X124338447Y-82562799D01*
X124336000Y-82537953D01*
X124336000Y-78508501D01*
X124436642Y-78407859D01*
X124522113Y-78279942D01*
X124580987Y-78137809D01*
X124611000Y-77986922D01*
X124611000Y-77833078D01*
X124580987Y-77682191D01*
X124522113Y-77540058D01*
X124436642Y-77412141D01*
X124327859Y-77303358D01*
X124199942Y-77217887D01*
X124057809Y-77159013D01*
X123906922Y-77129000D01*
X123753078Y-77129000D01*
X123610999Y-77157261D01*
X123610999Y-73134592D01*
X123769592Y-72976000D01*
X134111499Y-72976000D01*
X134212141Y-73076642D01*
X134340058Y-73162113D01*
X134482191Y-73220987D01*
X134633078Y-73251000D01*
X134786922Y-73251000D01*
X134937809Y-73220987D01*
X135079942Y-73162113D01*
X135207859Y-73076642D01*
X135316642Y-72967859D01*
X135402113Y-72839942D01*
X135460987Y-72697809D01*
X135491000Y-72546922D01*
X135491000Y-72393078D01*
X135460987Y-72242191D01*
X135402113Y-72100058D01*
X135316642Y-71972141D01*
X135207859Y-71863358D01*
X135170418Y-71838341D01*
X135217859Y-71806642D01*
X135326642Y-71697859D01*
X135412113Y-71569942D01*
X135470987Y-71427809D01*
X135501000Y-71276922D01*
X135501000Y-71123078D01*
X135470987Y-70972191D01*
X135412113Y-70830058D01*
X135326642Y-70702141D01*
X135217859Y-70593358D01*
X135089942Y-70507887D01*
X134947809Y-70449013D01*
X134796922Y-70419000D01*
X134643078Y-70419000D01*
X134492191Y-70449013D01*
X134350058Y-70507887D01*
X134222141Y-70593358D01*
X134121499Y-70694000D01*
X133091582Y-70694000D01*
X133220220Y-70565362D01*
X133239527Y-70549517D01*
X133302759Y-70472469D01*
X133349745Y-70384565D01*
X133378678Y-70289183D01*
X133386000Y-70214844D01*
X133386000Y-70214843D01*
X133388448Y-70189990D01*
X133386000Y-70165136D01*
X133386000Y-69328501D01*
X133486642Y-69227859D01*
X133572113Y-69099942D01*
X133630987Y-68957809D01*
X133661000Y-68806922D01*
X133661000Y-68653078D01*
X133630987Y-68502191D01*
X133572113Y-68360058D01*
X133486642Y-68232141D01*
X133377859Y-68123358D01*
X133249942Y-68037887D01*
X133107809Y-67979013D01*
X132956922Y-67949000D01*
X132803078Y-67949000D01*
X132652191Y-67979013D01*
X132510058Y-68037887D01*
X132382141Y-68123358D01*
X132315000Y-68190499D01*
X132287859Y-68163358D01*
X132159942Y-68077887D01*
X132017809Y-68019013D01*
X131866922Y-67989000D01*
X131713078Y-67989000D01*
X131562191Y-68019013D01*
X131420058Y-68077887D01*
X131292141Y-68163358D01*
X131183358Y-68272141D01*
X131097887Y-68400058D01*
X131039013Y-68542191D01*
X131009000Y-68693078D01*
X131009000Y-68846922D01*
X131039013Y-68997809D01*
X131097887Y-69139942D01*
X131183358Y-69267859D01*
X131284000Y-69368501D01*
X131284000Y-69570389D01*
X131060408Y-69793982D01*
X122892043Y-69793982D01*
X122867197Y-69791535D01*
X122842351Y-69793982D01*
X122842344Y-69793982D01*
X122777892Y-69800330D01*
X122768004Y-69801304D01*
X122745805Y-69808038D01*
X122672623Y-69830237D01*
X122584719Y-69877223D01*
X122507671Y-69940455D01*
X122491827Y-69959761D01*
X121414749Y-71036840D01*
X121395443Y-71052684D01*
X121332211Y-71129732D01*
X121309218Y-71172748D01*
X121285224Y-71217637D01*
X121256291Y-71313019D01*
X121246522Y-71412211D01*
X121248970Y-71437067D01*
X121248969Y-72936603D01*
X121241524Y-73012198D01*
X121243972Y-73037054D01*
X121243971Y-81887595D01*
X120987607Y-82143960D01*
X117411632Y-82143960D01*
X117520220Y-82035372D01*
X117539527Y-82019527D01*
X117602759Y-81942479D01*
X117649745Y-81854575D01*
X117678678Y-81759193D01*
X117686000Y-81684854D01*
X117688448Y-81660000D01*
X117686000Y-81635146D01*
X117686000Y-75791000D01*
X117796922Y-75791000D01*
X117947809Y-75760987D01*
X118089942Y-75702113D01*
X118217859Y-75616642D01*
X118326642Y-75507859D01*
X118412113Y-75379942D01*
X118470987Y-75237809D01*
X118501000Y-75086922D01*
X118501000Y-74933078D01*
X118470987Y-74782191D01*
X118412113Y-74640058D01*
X118326642Y-74512141D01*
X118217859Y-74403358D01*
X118089942Y-74317887D01*
X117947809Y-74259013D01*
X117796922Y-74229000D01*
X117643078Y-74229000D01*
X117492191Y-74259013D01*
X117350058Y-74317887D01*
X117222141Y-74403358D01*
X117113358Y-74512141D01*
X117027887Y-74640058D01*
X116969013Y-74782191D01*
X116939000Y-74933078D01*
X116939000Y-75075409D01*
X116839785Y-75174624D01*
X116820473Y-75190473D01*
X116757241Y-75267521D01*
X116710255Y-75355426D01*
X116681322Y-75450808D01*
X116674000Y-75525147D01*
X116674000Y-75525154D01*
X116671553Y-75550000D01*
X116674000Y-75574846D01*
X116674001Y-81450407D01*
X116430459Y-81693950D01*
X112462854Y-81693952D01*
X112437998Y-81691504D01*
X112338805Y-81701273D01*
X112243424Y-81730206D01*
X112155520Y-81777193D01*
X112097777Y-81824581D01*
X112097773Y-81824585D01*
X112078472Y-81840425D01*
X112062632Y-81859726D01*
X109855980Y-84066379D01*
X109855980Y-70088500D01*
X109956622Y-69987858D01*
X110042093Y-69859941D01*
X110100967Y-69717808D01*
X110130980Y-69566921D01*
X110130980Y-69413077D01*
X110100967Y-69262190D01*
X110042093Y-69120057D01*
X109956622Y-68992140D01*
X109855980Y-68891498D01*
X109855980Y-68459611D01*
X110419592Y-67896000D01*
X133981499Y-67896000D01*
X134082141Y-67996642D01*
X134210058Y-68082113D01*
X134352191Y-68140987D01*
X134503078Y-68171000D01*
X134656922Y-68171000D01*
X134807809Y-68140987D01*
X134949942Y-68082113D01*
X135077859Y-67996642D01*
X135186642Y-67887859D01*
X135272113Y-67759942D01*
X135330987Y-67617809D01*
X135361000Y-67466922D01*
X135361000Y-67313078D01*
X135330987Y-67162191D01*
X135272113Y-67020058D01*
X135186642Y-66892141D01*
X135077859Y-66783358D01*
X134949942Y-66697887D01*
X134807809Y-66639013D01*
X134656922Y-66609000D01*
X134506663Y-66609000D01*
X134521000Y-66536922D01*
X134521000Y-66383078D01*
X134490987Y-66232191D01*
X134432113Y-66090058D01*
X134346642Y-65962141D01*
X134237859Y-65853358D01*
X134109942Y-65767887D01*
X134085024Y-65757566D01*
X134560220Y-65282370D01*
X134579527Y-65266525D01*
X134642759Y-65189477D01*
X134689745Y-65101573D01*
X134705456Y-65049779D01*
X134718678Y-65006192D01*
X134722514Y-64967241D01*
X134726000Y-64931852D01*
X134726000Y-64931845D01*
X134728447Y-64906999D01*
X134726000Y-64882153D01*
X134726000Y-60569591D01*
X134744591Y-60551000D01*
X134886922Y-60551000D01*
X135037809Y-60520987D01*
X135179942Y-60462113D01*
X135307859Y-60376642D01*
X135416642Y-60267859D01*
X135502113Y-60139942D01*
X135560987Y-59997809D01*
X135591000Y-59846922D01*
X135591000Y-59693078D01*
X135560987Y-59542191D01*
X135502113Y-59400058D01*
X135416642Y-59272141D01*
X135307859Y-59163358D01*
X135179942Y-59077887D01*
X135037809Y-59019013D01*
X134886922Y-58989000D01*
X134733078Y-58989000D01*
X134582191Y-59019013D01*
X134440058Y-59077887D01*
X134312141Y-59163358D01*
X134203358Y-59272141D01*
X134117887Y-59400058D01*
X134059013Y-59542191D01*
X134029000Y-59693078D01*
X134029000Y-59835409D01*
X133879785Y-59984624D01*
X133860473Y-60000473D01*
X133797241Y-60077521D01*
X133750255Y-60165426D01*
X133721322Y-60260808D01*
X133714000Y-60335147D01*
X133714000Y-60335154D01*
X133711553Y-60360000D01*
X133714000Y-60384846D01*
X133714001Y-64697405D01*
X132907417Y-65503990D01*
X109972739Y-65503990D01*
X110001000Y-65361912D01*
X110001000Y-65208068D01*
X109970987Y-65057181D01*
X109912113Y-64915048D01*
X109826642Y-64787131D01*
X109717859Y-64678348D01*
X109589942Y-64592877D01*
X109447809Y-64534003D01*
X109296922Y-64503990D01*
X109143078Y-64503990D01*
X108992191Y-64534003D01*
X108850058Y-64592877D01*
X108722141Y-64678348D01*
X108613358Y-64787131D01*
X108548633Y-64884000D01*
X106978501Y-64884000D01*
X106877859Y-64783358D01*
X106749942Y-64697887D01*
X106607809Y-64639013D01*
X106456922Y-64609000D01*
X106303078Y-64609000D01*
X106152191Y-64639013D01*
X106010058Y-64697887D01*
X105882141Y-64783358D01*
X105773358Y-64892141D01*
X105687887Y-65020058D01*
X105629013Y-65162191D01*
X105599000Y-65313078D01*
X105599000Y-65466922D01*
X105629013Y-65617809D01*
X105687887Y-65759942D01*
X105773358Y-65887859D01*
X105882141Y-65996642D01*
X106010058Y-66082113D01*
X106152191Y-66140987D01*
X106303078Y-66171000D01*
X106456922Y-66171000D01*
X106607809Y-66140987D01*
X106749942Y-66082113D01*
X106819461Y-66035662D01*
X106794013Y-66097099D01*
X106764000Y-66247986D01*
X106764000Y-66390317D01*
X106559785Y-66594532D01*
X106540473Y-66610381D01*
X106477241Y-66687429D01*
X106430255Y-66775334D01*
X106401322Y-66870716D01*
X106394000Y-66945055D01*
X106394000Y-66945062D01*
X106391553Y-66969908D01*
X106394000Y-66994754D01*
X106394001Y-87060407D01*
X105866819Y-87587590D01*
X97731255Y-87587590D01*
X97706409Y-87585143D01*
X97681563Y-87587590D01*
X97681556Y-87587590D01*
X97617104Y-87593938D01*
X97607216Y-87594912D01*
X97556745Y-87610222D01*
X97511835Y-87623845D01*
X97423931Y-87670831D01*
X97346883Y-87734063D01*
X97331039Y-87753369D01*
X96249780Y-88834629D01*
X96230474Y-88850473D01*
X96167242Y-88927521D01*
X96147073Y-88965254D01*
X96120255Y-89015426D01*
X96091322Y-89110808D01*
X96081553Y-89210000D01*
X96084001Y-89234856D01*
X96084000Y-92327167D01*
X96006903Y-92359102D01*
X95805283Y-92493820D01*
X95633820Y-92665283D01*
X95536927Y-92810294D01*
X95538072Y-92600000D01*
X95525812Y-92475518D01*
X95489502Y-92355820D01*
X95430537Y-92245506D01*
X95351185Y-92148815D01*
X95254494Y-92069463D01*
X95144180Y-92010498D01*
X95024482Y-91974188D01*
X94900000Y-91961928D01*
X94335750Y-91965000D01*
X94177000Y-92123750D01*
X94177000Y-93323000D01*
X94197000Y-93323000D01*
X94197000Y-93577000D01*
X94177000Y-93577000D01*
X94177000Y-93597000D01*
X93923000Y-93597000D01*
X93923000Y-93577000D01*
X92723750Y-93577000D01*
X92565000Y-93735750D01*
X92561928Y-94300000D01*
X92574188Y-94424482D01*
X92610498Y-94544180D01*
X92669463Y-94654494D01*
X92748815Y-94751185D01*
X92845506Y-94830537D01*
X92955820Y-94889502D01*
X93075518Y-94925812D01*
X93200000Y-94938072D01*
X93410294Y-94936927D01*
X93265283Y-95033820D01*
X93093820Y-95205283D01*
X92959102Y-95406903D01*
X92866307Y-95630931D01*
X92819000Y-95868757D01*
X92819000Y-96111243D01*
X92866307Y-96349069D01*
X92959102Y-96573097D01*
X93093820Y-96774717D01*
X93265283Y-96946180D01*
X93466903Y-97080898D01*
X93690931Y-97173693D01*
X93928757Y-97221000D01*
X94171243Y-97221000D01*
X94409069Y-97173693D01*
X94633097Y-97080898D01*
X94834717Y-96946180D01*
X95006180Y-96774717D01*
X95140898Y-96573097D01*
X95233693Y-96349069D01*
X95281000Y-96111243D01*
X95281000Y-95868757D01*
X95233693Y-95630931D01*
X95140898Y-95406903D01*
X95006180Y-95205283D01*
X94834717Y-95033820D01*
X94689706Y-94936927D01*
X94900000Y-94938072D01*
X95024482Y-94925812D01*
X95144180Y-94889502D01*
X95254494Y-94830537D01*
X95351185Y-94751185D01*
X95430537Y-94654494D01*
X95489502Y-94544180D01*
X95525812Y-94424482D01*
X95538072Y-94300000D01*
X95536927Y-94089706D01*
X95633820Y-94234717D01*
X95805283Y-94406180D01*
X96006903Y-94540898D01*
X96230931Y-94633693D01*
X96468757Y-94681000D01*
X96711243Y-94681000D01*
X96949069Y-94633693D01*
X97173097Y-94540898D01*
X97259002Y-94483498D01*
X97259002Y-94605406D01*
X97026167Y-94838242D01*
X96949069Y-94806307D01*
X96711243Y-94759000D01*
X96468757Y-94759000D01*
X96230931Y-94806307D01*
X96006903Y-94899102D01*
X95805283Y-95033820D01*
X95633820Y-95205283D01*
X95499102Y-95406903D01*
X95406307Y-95630931D01*
X95359000Y-95868757D01*
X95359000Y-96111243D01*
X95406307Y-96349069D01*
X95499102Y-96573097D01*
X95633820Y-96774717D01*
X95805283Y-96946180D01*
X96006903Y-97080898D01*
X96230931Y-97173693D01*
X96468757Y-97221000D01*
X96711243Y-97221000D01*
X96949069Y-97173693D01*
X97173097Y-97080898D01*
X97374717Y-96946180D01*
X97546180Y-96774717D01*
X97680898Y-96573097D01*
X97728228Y-96458832D01*
X97785843Y-96621252D01*
X97934822Y-96871355D01*
X98129731Y-97087588D01*
X98363080Y-97261641D01*
X98625901Y-97386825D01*
X98773110Y-97431476D01*
X99003000Y-97310155D01*
X99003000Y-96117000D01*
X98983000Y-96117000D01*
X98983000Y-95863000D01*
X99003000Y-95863000D01*
X99003000Y-95843000D01*
X99257000Y-95843000D01*
X99257000Y-95863000D01*
X99277000Y-95863000D01*
X99277000Y-96117000D01*
X99257000Y-96117000D01*
X99257000Y-97310155D01*
X99486890Y-97431476D01*
X99634099Y-97386825D01*
X99896920Y-97261641D01*
X100130269Y-97087588D01*
X100325178Y-96871355D01*
X100474157Y-96621252D01*
X100531772Y-96458832D01*
X100579102Y-96573097D01*
X100713820Y-96774717D01*
X100885283Y-96946180D01*
X101086903Y-97080898D01*
X101187514Y-97122572D01*
X101200255Y-97164574D01*
X101247241Y-97252479D01*
X101310473Y-97329527D01*
X101329785Y-97345376D01*
X101844628Y-97860220D01*
X101860473Y-97879527D01*
X101937521Y-97942759D01*
X102025425Y-97989745D01*
X102098607Y-98011944D01*
X102120806Y-98018678D01*
X102130694Y-98019652D01*
X102195146Y-98026000D01*
X102195153Y-98026000D01*
X102219999Y-98028447D01*
X102244845Y-98026000D01*
X111035154Y-98026000D01*
X111060000Y-98028447D01*
X111084846Y-98026000D01*
X111084854Y-98026000D01*
X111159193Y-98018678D01*
X111254575Y-97989745D01*
X111342479Y-97942759D01*
X111419527Y-97879527D01*
X111435376Y-97860215D01*
X112410220Y-96885372D01*
X112429527Y-96869527D01*
X112492759Y-96792479D01*
X112539745Y-96704575D01*
X112568678Y-96609193D01*
X112576000Y-96534854D01*
X112578448Y-96510000D01*
X112576000Y-96485146D01*
X112576000Y-94590000D01*
X113537157Y-94590000D01*
X113537157Y-96590000D01*
X113544513Y-96664689D01*
X113566299Y-96736508D01*
X113601678Y-96802696D01*
X113649289Y-96860711D01*
X113707304Y-96908322D01*
X113773492Y-96943701D01*
X113845311Y-96965487D01*
X113920000Y-96972843D01*
X114166074Y-96972843D01*
X114039664Y-97057307D01*
X113847307Y-97249664D01*
X113696174Y-97475851D01*
X113592071Y-97727177D01*
X113539000Y-97993983D01*
X113539000Y-98266017D01*
X113592071Y-98532823D01*
X113696174Y-98784149D01*
X113847307Y-99010336D01*
X114039664Y-99202693D01*
X114265851Y-99353826D01*
X114517177Y-99457929D01*
X114783983Y-99511000D01*
X115056017Y-99511000D01*
X115322823Y-99457929D01*
X115574149Y-99353826D01*
X115800336Y-99202693D01*
X115992693Y-99010336D01*
X116143826Y-98784149D01*
X116247929Y-98532823D01*
X116301000Y-98266017D01*
X116301000Y-97993983D01*
X116247929Y-97727177D01*
X116143826Y-97475851D01*
X115992693Y-97249664D01*
X115800336Y-97057307D01*
X115673926Y-96972843D01*
X115920000Y-96972843D01*
X115994689Y-96965487D01*
X116066508Y-96943701D01*
X116132696Y-96908322D01*
X116190711Y-96860711D01*
X116238322Y-96802696D01*
X116273701Y-96736508D01*
X116295487Y-96664689D01*
X116302843Y-96590000D01*
X116302843Y-94590000D01*
X116295487Y-94515311D01*
X116273701Y-94443492D01*
X116238322Y-94377304D01*
X116190711Y-94319289D01*
X116132696Y-94271678D01*
X116066508Y-94236299D01*
X115994689Y-94214513D01*
X115920000Y-94207157D01*
X113920000Y-94207157D01*
X113845311Y-94214513D01*
X113773492Y-94236299D01*
X113707304Y-94271678D01*
X113649289Y-94319289D01*
X113601678Y-94377304D01*
X113566299Y-94443492D01*
X113544513Y-94515311D01*
X113537157Y-94590000D01*
X112576000Y-94590000D01*
X112576000Y-90361143D01*
X112672191Y-90400987D01*
X112823078Y-90431000D01*
X112976922Y-90431000D01*
X113127809Y-90400987D01*
X113269942Y-90342113D01*
X113397859Y-90256642D01*
X113506642Y-90147859D01*
X113592113Y-90019942D01*
X113650987Y-89877809D01*
X113681000Y-89726922D01*
X113681000Y-89573078D01*
X113650987Y-89422191D01*
X113592113Y-89280058D01*
X113506642Y-89152141D01*
X113406000Y-89051499D01*
X113406000Y-86359591D01*
X114009592Y-85756000D01*
X122286697Y-85756000D01*
X122277242Y-85767521D01*
X122252127Y-85814508D01*
X122230255Y-85855426D01*
X122201322Y-85950808D01*
X122191553Y-86050000D01*
X122194001Y-86074856D01*
X122194000Y-89051499D01*
X122093358Y-89152141D01*
X122007887Y-89280058D01*
X121949013Y-89422191D01*
X121919000Y-89573078D01*
X121919000Y-89726922D01*
X121949013Y-89877809D01*
X122007887Y-90019942D01*
X122093358Y-90147859D01*
X122202141Y-90256642D01*
X122330058Y-90342113D01*
X122472191Y-90400987D01*
X122623078Y-90431000D01*
X122776922Y-90431000D01*
X122927809Y-90400987D01*
X123069942Y-90342113D01*
X123197859Y-90256642D01*
X123306642Y-90147859D01*
X123392113Y-90019942D01*
X123450987Y-89877809D01*
X123481000Y-89726922D01*
X123481000Y-89573078D01*
X123450987Y-89422191D01*
X123392113Y-89280058D01*
X123306642Y-89152141D01*
X123206000Y-89051499D01*
X123206000Y-86259591D01*
X123584592Y-85881000D01*
X132022497Y-85881000D01*
X132001322Y-85950808D01*
X131991553Y-86050000D01*
X131994001Y-86074856D01*
X131994000Y-89051499D01*
X131893358Y-89152141D01*
X131807887Y-89280058D01*
X131749013Y-89422191D01*
X131719000Y-89573078D01*
X131719000Y-89726922D01*
X131749013Y-89877809D01*
X131807887Y-90019942D01*
X131893358Y-90147859D01*
X132002141Y-90256642D01*
X132130058Y-90342113D01*
X132272191Y-90400987D01*
X132423078Y-90431000D01*
X132576922Y-90431000D01*
X132727809Y-90400987D01*
X132869942Y-90342113D01*
X132997859Y-90256642D01*
X133106642Y-90147859D01*
X133192113Y-90019942D01*
X133250987Y-89877809D01*
X133281000Y-89726922D01*
X133281000Y-89573078D01*
X133250987Y-89422191D01*
X133192113Y-89280058D01*
X133106642Y-89152141D01*
X133006000Y-89051499D01*
X133006000Y-86259591D01*
X133384592Y-85881000D01*
X142538595Y-85881000D01*
X142630058Y-85942113D01*
X142772191Y-86000987D01*
X142923078Y-86031000D01*
X143076922Y-86031000D01*
X143227809Y-86000987D01*
X143369942Y-85942113D01*
X143497859Y-85856642D01*
X143606642Y-85747859D01*
X143692113Y-85619942D01*
X143750987Y-85477809D01*
X143781000Y-85326922D01*
X143781000Y-85173078D01*
X143750987Y-85022191D01*
X143692113Y-84880058D01*
X143606642Y-84752141D01*
X143497859Y-84643358D01*
X143397050Y-84576000D01*
X154870409Y-84576000D01*
X154994001Y-84699593D01*
X154994000Y-96790408D01*
X154540409Y-97244000D01*
X152532843Y-97244000D01*
X152532843Y-97050000D01*
X152525487Y-96975311D01*
X152503701Y-96903492D01*
X152468322Y-96837304D01*
X152420711Y-96779289D01*
X152362696Y-96731678D01*
X152296508Y-96696299D01*
X152224689Y-96674513D01*
X152150000Y-96667157D01*
X150550000Y-96667157D01*
X150475311Y-96674513D01*
X150403492Y-96696299D01*
X150337304Y-96731678D01*
X150279289Y-96779289D01*
X150231678Y-96837304D01*
X150196299Y-96903492D01*
X150174513Y-96975311D01*
X150167157Y-97050000D01*
X150167157Y-97241500D01*
X150110677Y-97241500D01*
X150063296Y-97152856D01*
X149986149Y-97058851D01*
X149892144Y-96981704D01*
X149784895Y-96924378D01*
X149668523Y-96889077D01*
X149547500Y-96877157D01*
X149072500Y-96877157D01*
X148951477Y-96889077D01*
X148835105Y-96924378D01*
X148727856Y-96981704D01*
X148633851Y-97058851D01*
X148556704Y-97152856D01*
X148499378Y-97260105D01*
X148464077Y-97376477D01*
X148452157Y-97497500D01*
X148452157Y-97997500D01*
X148464077Y-98118523D01*
X148499378Y-98234895D01*
X148556704Y-98342144D01*
X148633851Y-98436149D01*
X148675039Y-98469951D01*
X148590820Y-98495498D01*
X148480506Y-98554463D01*
X148383815Y-98633815D01*
X148304463Y-98730506D01*
X148245498Y-98840820D01*
X148209188Y-98960518D01*
X148196928Y-99085000D01*
X148200000Y-99286750D01*
X148358750Y-99445500D01*
X149183000Y-99445500D01*
X149183000Y-99425500D01*
X149437000Y-99425500D01*
X149437000Y-99445500D01*
X150261250Y-99445500D01*
X150420000Y-99286750D01*
X150423072Y-99085000D01*
X150410812Y-98960518D01*
X150374502Y-98840820D01*
X150334536Y-98766051D01*
X150337304Y-98768322D01*
X150403492Y-98803701D01*
X150475311Y-98825487D01*
X150550000Y-98832843D01*
X152150000Y-98832843D01*
X152224689Y-98825487D01*
X152296508Y-98803701D01*
X152362696Y-98768322D01*
X152420711Y-98720711D01*
X152468322Y-98662696D01*
X152503701Y-98596508D01*
X152525487Y-98524689D01*
X152532843Y-98450000D01*
X152532843Y-98256000D01*
X154725154Y-98256000D01*
X154750000Y-98258447D01*
X154774846Y-98256000D01*
X154774854Y-98256000D01*
X154849193Y-98248678D01*
X154944575Y-98219745D01*
X155032479Y-98172759D01*
X155109527Y-98109527D01*
X155125376Y-98090215D01*
X155750000Y-97465592D01*
X156374628Y-98090220D01*
X156390473Y-98109527D01*
X156467521Y-98172759D01*
X156550748Y-98217245D01*
X156555425Y-98219745D01*
X156650806Y-98248678D01*
X156660694Y-98249652D01*
X156725146Y-98256000D01*
X156725153Y-98256000D01*
X156749999Y-98258447D01*
X156774845Y-98256000D01*
X158167157Y-98256000D01*
X158167157Y-98450000D01*
X158174513Y-98524689D01*
X158196299Y-98596508D01*
X158231678Y-98662696D01*
X158279289Y-98720711D01*
X158337304Y-98768322D01*
X158403492Y-98803701D01*
X158475311Y-98825487D01*
X158550000Y-98832843D01*
X160150000Y-98832843D01*
X160224689Y-98825487D01*
X160296508Y-98803701D01*
X160362696Y-98768322D01*
X160420711Y-98720711D01*
X160468322Y-98662696D01*
X160503701Y-98596508D01*
X160525487Y-98524689D01*
X160532843Y-98450000D01*
X160532843Y-97050000D01*
X160525487Y-96975311D01*
X160503701Y-96903492D01*
X160468322Y-96837304D01*
X160420711Y-96779289D01*
X160362696Y-96731678D01*
X160296508Y-96696299D01*
X160224689Y-96674513D01*
X160150000Y-96667157D01*
X158550000Y-96667157D01*
X158475311Y-96674513D01*
X158403492Y-96696299D01*
X158337304Y-96731678D01*
X158279289Y-96779289D01*
X158231678Y-96837304D01*
X158196299Y-96903492D01*
X158174513Y-96975311D01*
X158167157Y-97050000D01*
X158167157Y-97244000D01*
X156959592Y-97244000D01*
X156506000Y-96790409D01*
X156506000Y-81550000D01*
X158167157Y-81550000D01*
X158167157Y-82950000D01*
X158174513Y-83024689D01*
X158196299Y-83096508D01*
X158231678Y-83162696D01*
X158279289Y-83220711D01*
X158337304Y-83268322D01*
X158403492Y-83303701D01*
X158475311Y-83325487D01*
X158550000Y-83332843D01*
X160150000Y-83332843D01*
X160224689Y-83325487D01*
X160296508Y-83303701D01*
X160362696Y-83268322D01*
X160420711Y-83220711D01*
X160468322Y-83162696D01*
X160503701Y-83096508D01*
X160525487Y-83024689D01*
X160532843Y-82950000D01*
X160532843Y-81550000D01*
X160525487Y-81475311D01*
X160503701Y-81403492D01*
X160468322Y-81337304D01*
X160420711Y-81279289D01*
X160362696Y-81231678D01*
X160296508Y-81196299D01*
X160224689Y-81174513D01*
X160150000Y-81167157D01*
X158550000Y-81167157D01*
X158475311Y-81174513D01*
X158403492Y-81196299D01*
X158337304Y-81231678D01*
X158279289Y-81279289D01*
X158231678Y-81337304D01*
X158196299Y-81403492D01*
X158174513Y-81475311D01*
X158167157Y-81550000D01*
X156506000Y-81550000D01*
X156506000Y-78193327D01*
X156555425Y-78219745D01*
X156650806Y-78248678D01*
X156660694Y-78249652D01*
X156725146Y-78256000D01*
X156725153Y-78256000D01*
X156749999Y-78258447D01*
X156774845Y-78256000D01*
X158167157Y-78256000D01*
X158167157Y-78450000D01*
X158174513Y-78524689D01*
X158196299Y-78596508D01*
X158231678Y-78662696D01*
X158279289Y-78720711D01*
X158337304Y-78768322D01*
X158403492Y-78803701D01*
X158475311Y-78825487D01*
X158550000Y-78832843D01*
X160150000Y-78832843D01*
X160224689Y-78825487D01*
X160296508Y-78803701D01*
X160362696Y-78768322D01*
X160420711Y-78720711D01*
X160468322Y-78662696D01*
X160503701Y-78596508D01*
X160525487Y-78524689D01*
X160532843Y-78450000D01*
X160532843Y-77050000D01*
X160525487Y-76975311D01*
X160503701Y-76903492D01*
X160468322Y-76837304D01*
X160420711Y-76779289D01*
X160362696Y-76731678D01*
X160296508Y-76696299D01*
X160224689Y-76674513D01*
X160150000Y-76667157D01*
X158550000Y-76667157D01*
X158475311Y-76674513D01*
X158403492Y-76696299D01*
X158337304Y-76731678D01*
X158279289Y-76779289D01*
X158231678Y-76837304D01*
X158196299Y-76903492D01*
X158174513Y-76975311D01*
X158167157Y-77050000D01*
X158167157Y-77244000D01*
X156959592Y-77244000D01*
X156506000Y-76790409D01*
X156506000Y-61550000D01*
X157817157Y-61550000D01*
X157817157Y-62950000D01*
X157824513Y-63024689D01*
X157846299Y-63096508D01*
X157881678Y-63162696D01*
X157929289Y-63220711D01*
X157987304Y-63268322D01*
X158053492Y-63303701D01*
X158125311Y-63325487D01*
X158200000Y-63332843D01*
X159800000Y-63332843D01*
X159874689Y-63325487D01*
X159946508Y-63303701D01*
X160012696Y-63268322D01*
X160070711Y-63220711D01*
X160118322Y-63162696D01*
X160153701Y-63096508D01*
X160175487Y-63024689D01*
X160182843Y-62950000D01*
X160182843Y-61550000D01*
X160175487Y-61475311D01*
X160153701Y-61403492D01*
X160118322Y-61337304D01*
X160070711Y-61279289D01*
X160012696Y-61231678D01*
X159946508Y-61196299D01*
X159874689Y-61174513D01*
X159800000Y-61167157D01*
X158200000Y-61167157D01*
X158125311Y-61174513D01*
X158053492Y-61196299D01*
X157987304Y-61231678D01*
X157929289Y-61279289D01*
X157881678Y-61337304D01*
X157846299Y-61403492D01*
X157824513Y-61475311D01*
X157817157Y-61550000D01*
X156506000Y-61550000D01*
X156506000Y-58709591D01*
X156959592Y-58256000D01*
X157817157Y-58256000D01*
X157817157Y-58450000D01*
X157824513Y-58524689D01*
X157846299Y-58596508D01*
X157881678Y-58662696D01*
X157929289Y-58720711D01*
X157987304Y-58768322D01*
X158053492Y-58803701D01*
X158125311Y-58825487D01*
X158200000Y-58832843D01*
X159800000Y-58832843D01*
X159874689Y-58825487D01*
X159946508Y-58803701D01*
X160012696Y-58768322D01*
X160070711Y-58720711D01*
X160118322Y-58662696D01*
X160153701Y-58596508D01*
X160175487Y-58524689D01*
X160182843Y-58450000D01*
X160182843Y-57050000D01*
X160175487Y-56975311D01*
X160153701Y-56903492D01*
X160118322Y-56837304D01*
X160070711Y-56779289D01*
X160012696Y-56731678D01*
X159946508Y-56696299D01*
X159874689Y-56674513D01*
X159800000Y-56667157D01*
X158200000Y-56667157D01*
X158125311Y-56674513D01*
X158053492Y-56696299D01*
X157987304Y-56731678D01*
X157929289Y-56779289D01*
X157881678Y-56837304D01*
X157846299Y-56903492D01*
X157824513Y-56975311D01*
X157817157Y-57050000D01*
X157817157Y-57244000D01*
X156774845Y-57244000D01*
X156749999Y-57241553D01*
X156725153Y-57244000D01*
X156725146Y-57244000D01*
X156660694Y-57250348D01*
X156650806Y-57251322D01*
X156555425Y-57280255D01*
X156506000Y-57306673D01*
X156506000Y-55974845D01*
X156508447Y-55949999D01*
X156506000Y-55925153D01*
X156506000Y-55925146D01*
X156498678Y-55850807D01*
X156469745Y-55755425D01*
X156422759Y-55667521D01*
X156359527Y-55590473D01*
X156340220Y-55574628D01*
X155425145Y-54659554D01*
X155421870Y-54626302D01*
X155385789Y-54507358D01*
X155327196Y-54397739D01*
X155248343Y-54301657D01*
X155152261Y-54222804D01*
X155042642Y-54164211D01*
X154923698Y-54128130D01*
X154830998Y-54119000D01*
X153481010Y-54119000D01*
X153505789Y-54072642D01*
X153541870Y-53953698D01*
X153551000Y-53860998D01*
X153551000Y-53860989D01*
X153554052Y-53830001D01*
X153551000Y-53799013D01*
X153551000Y-53608890D01*
X153704717Y-53506180D01*
X153876180Y-53334717D01*
X154010898Y-53133097D01*
X154103693Y-52909069D01*
X154151000Y-52671243D01*
X154151000Y-52428757D01*
X154229000Y-52428757D01*
X154229000Y-52671243D01*
X154276307Y-52909069D01*
X154369102Y-53133097D01*
X154503820Y-53334717D01*
X154675283Y-53506180D01*
X154876903Y-53640898D01*
X155100931Y-53733693D01*
X155338757Y-53781000D01*
X155581243Y-53781000D01*
X155819069Y-53733693D01*
X156043097Y-53640898D01*
X156244717Y-53506180D01*
X156416180Y-53334717D01*
X156550898Y-53133097D01*
X156598228Y-53018832D01*
X156655843Y-53181252D01*
X156804822Y-53431355D01*
X156999731Y-53647588D01*
X157233080Y-53821641D01*
X157495901Y-53946825D01*
X157643110Y-53991476D01*
X157873000Y-53870155D01*
X157873000Y-52677000D01*
X158127000Y-52677000D01*
X158127000Y-53870155D01*
X158356890Y-53991476D01*
X158504099Y-53946825D01*
X158766920Y-53821641D01*
X159000269Y-53647588D01*
X159195178Y-53431355D01*
X159344157Y-53181252D01*
X159441481Y-52906891D01*
X159389978Y-52808769D01*
X165058395Y-52808769D01*
X165058395Y-53191231D01*
X165133009Y-53566345D01*
X165279372Y-53919695D01*
X165491857Y-54237701D01*
X165762299Y-54508143D01*
X166080305Y-54720628D01*
X166433655Y-54866991D01*
X166808769Y-54941605D01*
X167191231Y-54941605D01*
X167566345Y-54866991D01*
X167919695Y-54720628D01*
X168237701Y-54508143D01*
X168508143Y-54237701D01*
X168720628Y-53919695D01*
X168866991Y-53566345D01*
X168941605Y-53191231D01*
X168941605Y-52808769D01*
X168866991Y-52433655D01*
X168720628Y-52080305D01*
X168508143Y-51762299D01*
X168237701Y-51491857D01*
X167919695Y-51279372D01*
X167566345Y-51133009D01*
X167191231Y-51058395D01*
X166808769Y-51058395D01*
X166433655Y-51133009D01*
X166080305Y-51279372D01*
X165762299Y-51491857D01*
X165491857Y-51762299D01*
X165279372Y-52080305D01*
X165133009Y-52433655D01*
X165058395Y-52808769D01*
X159389978Y-52808769D01*
X159320814Y-52677000D01*
X158127000Y-52677000D01*
X157873000Y-52677000D01*
X157853000Y-52677000D01*
X157853000Y-52423000D01*
X157873000Y-52423000D01*
X157873000Y-51229845D01*
X158127000Y-51229845D01*
X158127000Y-52423000D01*
X159320814Y-52423000D01*
X159441481Y-52193109D01*
X159344157Y-51918748D01*
X159195178Y-51668645D01*
X159000269Y-51452412D01*
X158766920Y-51278359D01*
X158504099Y-51153175D01*
X158356890Y-51108524D01*
X158127000Y-51229845D01*
X157873000Y-51229845D01*
X157643110Y-51108524D01*
X157495901Y-51153175D01*
X157233080Y-51278359D01*
X156999731Y-51452412D01*
X156804822Y-51668645D01*
X156655843Y-51918748D01*
X156598228Y-52081168D01*
X156550898Y-51966903D01*
X156416180Y-51765283D01*
X156244717Y-51593820D01*
X156043097Y-51459102D01*
X155819069Y-51366307D01*
X155581243Y-51319000D01*
X155338757Y-51319000D01*
X155100931Y-51366307D01*
X154876903Y-51459102D01*
X154675283Y-51593820D01*
X154503820Y-51765283D01*
X154369102Y-51966903D01*
X154276307Y-52190931D01*
X154229000Y-52428757D01*
X154151000Y-52428757D01*
X154103693Y-52190931D01*
X154010898Y-51966903D01*
X153876180Y-51765283D01*
X153704717Y-51593820D01*
X153503097Y-51459102D01*
X153279069Y-51366307D01*
X153041243Y-51319000D01*
X152798757Y-51319000D01*
X152560931Y-51366307D01*
X152336903Y-51459102D01*
X152135283Y-51593820D01*
X151963820Y-51765283D01*
X151829102Y-51966903D01*
X151736307Y-52190931D01*
X151689000Y-52428757D01*
X151689000Y-52671243D01*
X151736307Y-52909069D01*
X151829102Y-53133097D01*
X151963820Y-53334717D01*
X152135283Y-53506180D01*
X152264867Y-53592765D01*
X151738632Y-54119000D01*
X146530987Y-54119000D01*
X146499999Y-54115948D01*
X146469011Y-54119000D01*
X146469002Y-54119000D01*
X146376302Y-54128130D01*
X146257358Y-54164211D01*
X146147739Y-54222804D01*
X146051657Y-54301657D01*
X146031899Y-54325732D01*
X144575733Y-55781899D01*
X144551658Y-55801657D01*
X144531900Y-55825732D01*
X144531897Y-55825735D01*
X144472804Y-55897740D01*
X144414211Y-56007359D01*
X144378130Y-56126303D01*
X144365948Y-56250000D01*
X144369001Y-56281000D01*
X144369000Y-57826632D01*
X143868105Y-57325737D01*
X143848343Y-57301657D01*
X143752261Y-57222804D01*
X143642642Y-57164211D01*
X143523698Y-57128130D01*
X143430998Y-57119000D01*
X143430990Y-57119000D01*
X143400000Y-57115948D01*
X143369010Y-57119000D01*
X142543105Y-57119000D01*
X142548601Y-57117333D01*
X142570557Y-57105597D01*
X142589803Y-57089803D01*
X142605597Y-57070557D01*
X142617333Y-57048601D01*
X142624560Y-57024776D01*
X142627000Y-57000000D01*
X142627000Y-51700000D01*
X144067157Y-51700000D01*
X144067157Y-53400000D01*
X144074513Y-53474689D01*
X144096299Y-53546508D01*
X144131678Y-53612696D01*
X144179289Y-53670711D01*
X144237304Y-53718322D01*
X144303492Y-53753701D01*
X144375311Y-53775487D01*
X144450000Y-53782843D01*
X146150000Y-53782843D01*
X146224689Y-53775487D01*
X146296508Y-53753701D01*
X146362696Y-53718322D01*
X146420711Y-53670711D01*
X146468322Y-53612696D01*
X146503701Y-53546508D01*
X146525487Y-53474689D01*
X146532843Y-53400000D01*
X146532843Y-52428757D01*
X146609000Y-52428757D01*
X146609000Y-52671243D01*
X146656307Y-52909069D01*
X146749102Y-53133097D01*
X146883820Y-53334717D01*
X147055283Y-53506180D01*
X147256903Y-53640898D01*
X147480931Y-53733693D01*
X147718757Y-53781000D01*
X147961243Y-53781000D01*
X148199069Y-53733693D01*
X148423097Y-53640898D01*
X148624717Y-53506180D01*
X148796180Y-53334717D01*
X148930898Y-53133097D01*
X149023693Y-52909069D01*
X149071000Y-52671243D01*
X149071000Y-52428757D01*
X149149000Y-52428757D01*
X149149000Y-52671243D01*
X149196307Y-52909069D01*
X149289102Y-53133097D01*
X149423820Y-53334717D01*
X149595283Y-53506180D01*
X149796903Y-53640898D01*
X150020931Y-53733693D01*
X150258757Y-53781000D01*
X150501243Y-53781000D01*
X150739069Y-53733693D01*
X150963097Y-53640898D01*
X151164717Y-53506180D01*
X151336180Y-53334717D01*
X151470898Y-53133097D01*
X151563693Y-52909069D01*
X151611000Y-52671243D01*
X151611000Y-52428757D01*
X151563693Y-52190931D01*
X151470898Y-51966903D01*
X151336180Y-51765283D01*
X151164717Y-51593820D01*
X150963097Y-51459102D01*
X150739069Y-51366307D01*
X150501243Y-51319000D01*
X150258757Y-51319000D01*
X150020931Y-51366307D01*
X149796903Y-51459102D01*
X149595283Y-51593820D01*
X149423820Y-51765283D01*
X149289102Y-51966903D01*
X149196307Y-52190931D01*
X149149000Y-52428757D01*
X149071000Y-52428757D01*
X149023693Y-52190931D01*
X148930898Y-51966903D01*
X148796180Y-51765283D01*
X148624717Y-51593820D01*
X148423097Y-51459102D01*
X148199069Y-51366307D01*
X147961243Y-51319000D01*
X147718757Y-51319000D01*
X147480931Y-51366307D01*
X147256903Y-51459102D01*
X147055283Y-51593820D01*
X146883820Y-51765283D01*
X146749102Y-51966903D01*
X146656307Y-52190931D01*
X146609000Y-52428757D01*
X146532843Y-52428757D01*
X146532843Y-51700000D01*
X146525487Y-51625311D01*
X146503701Y-51553492D01*
X146468322Y-51487304D01*
X146420711Y-51429289D01*
X146362696Y-51381678D01*
X146296508Y-51346299D01*
X146224689Y-51324513D01*
X146150000Y-51317157D01*
X144450000Y-51317157D01*
X144375311Y-51324513D01*
X144303492Y-51346299D01*
X144237304Y-51381678D01*
X144179289Y-51429289D01*
X144131678Y-51487304D01*
X144096299Y-51553492D01*
X144074513Y-51625311D01*
X144067157Y-51700000D01*
X142627000Y-51700000D01*
X142627000Y-50627000D01*
X169373000Y-50627000D01*
X169373000Y-109373000D01*
X162940583Y-109373000D01*
X162949190Y-109360631D01*
X163034472Y-109165257D01*
X163080000Y-108957000D01*
X163080000Y-108627000D01*
X162127000Y-108627000D01*
X162127000Y-108647000D01*
X161873000Y-108647000D01*
X161873000Y-108627000D01*
X160920000Y-108627000D01*
X160920000Y-108957000D01*
X160965528Y-109165257D01*
X161050810Y-109360631D01*
X161059417Y-109373000D01*
X155940583Y-109373000D01*
X155949190Y-109360631D01*
X156034472Y-109165257D01*
X156080000Y-108957000D01*
X156080000Y-108627000D01*
X155127000Y-108627000D01*
X155127000Y-108647000D01*
X154873000Y-108647000D01*
X154873000Y-108627000D01*
X153920000Y-108627000D01*
X153920000Y-108957000D01*
X153965528Y-109165257D01*
X154050810Y-109360631D01*
X154059417Y-109373000D01*
X90627000Y-109373000D01*
X90627000Y-106808769D01*
X91058395Y-106808769D01*
X91058395Y-107191231D01*
X91133009Y-107566345D01*
X91279372Y-107919695D01*
X91491857Y-108237701D01*
X91762299Y-108508143D01*
X92080305Y-108720628D01*
X92433655Y-108866991D01*
X92808769Y-108941605D01*
X93191231Y-108941605D01*
X93566345Y-108866991D01*
X93919695Y-108720628D01*
X94237701Y-108508143D01*
X94508143Y-108237701D01*
X94720628Y-107919695D01*
X94866991Y-107566345D01*
X94941605Y-107191231D01*
X94941605Y-106808769D01*
X94866991Y-106433655D01*
X94720628Y-106080305D01*
X94508143Y-105762299D01*
X94237701Y-105491857D01*
X93919695Y-105279372D01*
X93566345Y-105133009D01*
X93191231Y-105058395D01*
X92808769Y-105058395D01*
X92433655Y-105133009D01*
X92080305Y-105279372D01*
X91762299Y-105491857D01*
X91491857Y-105762299D01*
X91279372Y-106080305D01*
X91133009Y-106433655D01*
X91058395Y-106808769D01*
X90627000Y-106808769D01*
X90627000Y-104300000D01*
X97417157Y-104300000D01*
X97417157Y-106700000D01*
X97424513Y-106774689D01*
X97446299Y-106846508D01*
X97481678Y-106912696D01*
X97529289Y-106970711D01*
X97587304Y-107018322D01*
X97653492Y-107053701D01*
X97725311Y-107075487D01*
X97800000Y-107082843D01*
X98374107Y-107082843D01*
X98378130Y-107123697D01*
X98414211Y-107242641D01*
X98472804Y-107352260D01*
X98531897Y-107424265D01*
X98531900Y-107424268D01*
X98551658Y-107448343D01*
X98575733Y-107468101D01*
X99531899Y-108424268D01*
X99551657Y-108448343D01*
X99575732Y-108468101D01*
X99575734Y-108468103D01*
X99647739Y-108527196D01*
X99757358Y-108585789D01*
X99876302Y-108621870D01*
X100000000Y-108634053D01*
X100030998Y-108631000D01*
X113969010Y-108631000D01*
X114000000Y-108634052D01*
X114030990Y-108631000D01*
X114030998Y-108631000D01*
X114123698Y-108621870D01*
X114242642Y-108585789D01*
X114352261Y-108527196D01*
X114448343Y-108448343D01*
X114468105Y-108424263D01*
X114849368Y-108043000D01*
X153920000Y-108043000D01*
X153920000Y-108373000D01*
X154873000Y-108373000D01*
X154873000Y-107257546D01*
X155127000Y-107257546D01*
X155127000Y-108373000D01*
X156080000Y-108373000D01*
X156080000Y-108043000D01*
X160920000Y-108043000D01*
X160920000Y-108373000D01*
X161873000Y-108373000D01*
X161873000Y-107257546D01*
X162127000Y-107257546D01*
X162127000Y-108373000D01*
X163080000Y-108373000D01*
X163080000Y-108043000D01*
X163034472Y-107834743D01*
X162949190Y-107639369D01*
X162827431Y-107464387D01*
X162673874Y-107316521D01*
X162494420Y-107201454D01*
X162293213Y-107130565D01*
X162127000Y-107257546D01*
X161873000Y-107257546D01*
X161706787Y-107130565D01*
X161505580Y-107201454D01*
X161326126Y-107316521D01*
X161172569Y-107464387D01*
X161050810Y-107639369D01*
X160965528Y-107834743D01*
X160920000Y-108043000D01*
X156080000Y-108043000D01*
X156034472Y-107834743D01*
X155949190Y-107639369D01*
X155827431Y-107464387D01*
X155673874Y-107316521D01*
X155494420Y-107201454D01*
X155293213Y-107130565D01*
X155127000Y-107257546D01*
X154873000Y-107257546D01*
X154706787Y-107130565D01*
X154505580Y-107201454D01*
X154326126Y-107316521D01*
X154172569Y-107464387D01*
X154050810Y-107639369D01*
X153965528Y-107834743D01*
X153920000Y-108043000D01*
X114849368Y-108043000D01*
X115344264Y-107548104D01*
X115368343Y-107528343D01*
X115447196Y-107432261D01*
X115505789Y-107322642D01*
X115541870Y-107203698D01*
X115551000Y-107110998D01*
X115551000Y-107110989D01*
X115554052Y-107080001D01*
X115551000Y-107049013D01*
X115551000Y-106983415D01*
X115574149Y-106973826D01*
X115800336Y-106822693D01*
X115992693Y-106630336D01*
X116143826Y-106404149D01*
X116247929Y-106152823D01*
X116301000Y-105886017D01*
X116301000Y-105613983D01*
X118619000Y-105613983D01*
X118619000Y-105886017D01*
X118672071Y-106152823D01*
X118776174Y-106404149D01*
X118927307Y-106630336D01*
X119119664Y-106822693D01*
X119345851Y-106973826D01*
X119597177Y-107077929D01*
X119863983Y-107131000D01*
X120136017Y-107131000D01*
X120402823Y-107077929D01*
X120654149Y-106973826D01*
X120880336Y-106822693D01*
X121072693Y-106630336D01*
X121223826Y-106404149D01*
X121327929Y-106152823D01*
X121381000Y-105886017D01*
X121381000Y-105613983D01*
X123369000Y-105613983D01*
X123369000Y-105886017D01*
X123422071Y-106152823D01*
X123526174Y-106404149D01*
X123677307Y-106630336D01*
X123869664Y-106822693D01*
X124095851Y-106973826D01*
X124347177Y-107077929D01*
X124613983Y-107131000D01*
X124886017Y-107131000D01*
X125152823Y-107077929D01*
X125404149Y-106973826D01*
X125630336Y-106822693D01*
X125822693Y-106630336D01*
X125973826Y-106404149D01*
X126077929Y-106152823D01*
X126131000Y-105886017D01*
X126131000Y-105613983D01*
X128449000Y-105613983D01*
X128449000Y-105886017D01*
X128502071Y-106152823D01*
X128606174Y-106404149D01*
X128757307Y-106630336D01*
X128949664Y-106822693D01*
X129175851Y-106973826D01*
X129427177Y-107077929D01*
X129693983Y-107131000D01*
X129966017Y-107131000D01*
X130232823Y-107077929D01*
X130484149Y-106973826D01*
X130710336Y-106822693D01*
X130902693Y-106630336D01*
X131053826Y-106404149D01*
X131157929Y-106152823D01*
X131211000Y-105886017D01*
X131211000Y-105613983D01*
X133119000Y-105613983D01*
X133119000Y-105886017D01*
X133172071Y-106152823D01*
X133276174Y-106404149D01*
X133427307Y-106630336D01*
X133619664Y-106822693D01*
X133845851Y-106973826D01*
X134097177Y-107077929D01*
X134363983Y-107131000D01*
X134636017Y-107131000D01*
X134902823Y-107077929D01*
X135154149Y-106973826D01*
X135380336Y-106822693D01*
X135572693Y-106630336D01*
X135723826Y-106404149D01*
X135827929Y-106152823D01*
X135881000Y-105886017D01*
X135881000Y-105613983D01*
X138199000Y-105613983D01*
X138199000Y-105886017D01*
X138252071Y-106152823D01*
X138356174Y-106404149D01*
X138507307Y-106630336D01*
X138699664Y-106822693D01*
X138925851Y-106973826D01*
X139177177Y-107077929D01*
X139443983Y-107131000D01*
X139716017Y-107131000D01*
X139982823Y-107077929D01*
X140234149Y-106973826D01*
X140460336Y-106822693D01*
X140652693Y-106630336D01*
X140803826Y-106404149D01*
X140907929Y-106152823D01*
X140961000Y-105886017D01*
X140961000Y-105613983D01*
X140907929Y-105347177D01*
X140803826Y-105095851D01*
X140652693Y-104869664D01*
X140460336Y-104677307D01*
X140234149Y-104526174D01*
X139982823Y-104422071D01*
X139716017Y-104369000D01*
X139443983Y-104369000D01*
X139177177Y-104422071D01*
X138925851Y-104526174D01*
X138699664Y-104677307D01*
X138507307Y-104869664D01*
X138356174Y-105095851D01*
X138252071Y-105347177D01*
X138199000Y-105613983D01*
X135881000Y-105613983D01*
X135827929Y-105347177D01*
X135723826Y-105095851D01*
X135572693Y-104869664D01*
X135380336Y-104677307D01*
X135154149Y-104526174D01*
X134902823Y-104422071D01*
X134636017Y-104369000D01*
X134363983Y-104369000D01*
X134097177Y-104422071D01*
X133845851Y-104526174D01*
X133619664Y-104677307D01*
X133427307Y-104869664D01*
X133276174Y-105095851D01*
X133172071Y-105347177D01*
X133119000Y-105613983D01*
X131211000Y-105613983D01*
X131157929Y-105347177D01*
X131053826Y-105095851D01*
X130902693Y-104869664D01*
X130710336Y-104677307D01*
X130484149Y-104526174D01*
X130232823Y-104422071D01*
X129966017Y-104369000D01*
X129693983Y-104369000D01*
X129427177Y-104422071D01*
X129175851Y-104526174D01*
X128949664Y-104677307D01*
X128757307Y-104869664D01*
X128606174Y-105095851D01*
X128502071Y-105347177D01*
X128449000Y-105613983D01*
X126131000Y-105613983D01*
X126077929Y-105347177D01*
X125973826Y-105095851D01*
X125822693Y-104869664D01*
X125630336Y-104677307D01*
X125404149Y-104526174D01*
X125152823Y-104422071D01*
X124886017Y-104369000D01*
X124613983Y-104369000D01*
X124347177Y-104422071D01*
X124095851Y-104526174D01*
X123869664Y-104677307D01*
X123677307Y-104869664D01*
X123526174Y-105095851D01*
X123422071Y-105347177D01*
X123369000Y-105613983D01*
X121381000Y-105613983D01*
X121327929Y-105347177D01*
X121223826Y-105095851D01*
X121072693Y-104869664D01*
X120880336Y-104677307D01*
X120654149Y-104526174D01*
X120402823Y-104422071D01*
X120136017Y-104369000D01*
X119863983Y-104369000D01*
X119597177Y-104422071D01*
X119345851Y-104526174D01*
X119119664Y-104677307D01*
X118927307Y-104869664D01*
X118776174Y-105095851D01*
X118672071Y-105347177D01*
X118619000Y-105613983D01*
X116301000Y-105613983D01*
X116247929Y-105347177D01*
X116143826Y-105095851D01*
X115992693Y-104869664D01*
X115800336Y-104677307D01*
X115574149Y-104526174D01*
X115322823Y-104422071D01*
X115056017Y-104369000D01*
X114783983Y-104369000D01*
X114517177Y-104422071D01*
X114265851Y-104526174D01*
X114039664Y-104677307D01*
X113847307Y-104869664D01*
X113696174Y-105095851D01*
X113592071Y-105347177D01*
X113539000Y-105613983D01*
X113539000Y-105886017D01*
X113592071Y-106152823D01*
X113696174Y-106404149D01*
X113847307Y-106630336D01*
X114039664Y-106822693D01*
X114186696Y-106920936D01*
X113738632Y-107369000D01*
X100261369Y-107369000D01*
X99975212Y-107082843D01*
X100200000Y-107082843D01*
X100274689Y-107075487D01*
X100346508Y-107053701D01*
X100412696Y-107018322D01*
X100470711Y-106970711D01*
X100518322Y-106912696D01*
X100553701Y-106846508D01*
X100575487Y-106774689D01*
X100582843Y-106700000D01*
X100582843Y-105344285D01*
X100919000Y-105344285D01*
X100919000Y-105655715D01*
X100979757Y-105961161D01*
X101098936Y-106248884D01*
X101271957Y-106507829D01*
X101492171Y-106728043D01*
X101751116Y-106901064D01*
X102038839Y-107020243D01*
X102344285Y-107081000D01*
X102655715Y-107081000D01*
X102961161Y-107020243D01*
X103248884Y-106901064D01*
X103507829Y-106728043D01*
X103728043Y-106507829D01*
X103901064Y-106248884D01*
X104020243Y-105961161D01*
X104081000Y-105655715D01*
X104081000Y-105344285D01*
X104020243Y-105038839D01*
X103901064Y-104751116D01*
X103728043Y-104492171D01*
X103507829Y-104271957D01*
X103248884Y-104098936D01*
X103131000Y-104050107D01*
X103131000Y-102011368D01*
X104011369Y-101131000D01*
X106726631Y-101131000D01*
X105575737Y-102281895D01*
X105551657Y-102301657D01*
X105472804Y-102397740D01*
X105414211Y-102507359D01*
X105378130Y-102626303D01*
X105369000Y-102719003D01*
X105369000Y-102719010D01*
X105365948Y-102750000D01*
X105369000Y-102780990D01*
X105369000Y-104050107D01*
X105251116Y-104098936D01*
X104992171Y-104271957D01*
X104771957Y-104492171D01*
X104598936Y-104751116D01*
X104479757Y-105038839D01*
X104419000Y-105344285D01*
X104419000Y-105655715D01*
X104479757Y-105961161D01*
X104598936Y-106248884D01*
X104771957Y-106507829D01*
X104992171Y-106728043D01*
X105251116Y-106901064D01*
X105538839Y-107020243D01*
X105844285Y-107081000D01*
X106155715Y-107081000D01*
X106461161Y-107020243D01*
X106748884Y-106901064D01*
X107007829Y-106728043D01*
X107228043Y-106507829D01*
X107401064Y-106248884D01*
X107520243Y-105961161D01*
X107581000Y-105655715D01*
X107581000Y-105344285D01*
X107520243Y-105038839D01*
X107401064Y-104751116D01*
X107228043Y-104492171D01*
X107007829Y-104271957D01*
X106748884Y-104098936D01*
X106631000Y-104050107D01*
X106631000Y-103011368D01*
X107511369Y-102131000D01*
X110226631Y-102131000D01*
X109075737Y-103281895D01*
X109051657Y-103301657D01*
X108972804Y-103397740D01*
X108914211Y-103507359D01*
X108878130Y-103626303D01*
X108869000Y-103719003D01*
X108869000Y-103719010D01*
X108865948Y-103750000D01*
X108869000Y-103780991D01*
X108869000Y-104050107D01*
X108751116Y-104098936D01*
X108492171Y-104271957D01*
X108271957Y-104492171D01*
X108098936Y-104751116D01*
X107979757Y-105038839D01*
X107919000Y-105344285D01*
X107919000Y-105655715D01*
X107979757Y-105961161D01*
X108098936Y-106248884D01*
X108271957Y-106507829D01*
X108492171Y-106728043D01*
X108751116Y-106901064D01*
X109038839Y-107020243D01*
X109344285Y-107081000D01*
X109655715Y-107081000D01*
X109961161Y-107020243D01*
X110248884Y-106901064D01*
X110507829Y-106728043D01*
X110728043Y-106507829D01*
X110901064Y-106248884D01*
X111020243Y-105961161D01*
X111081000Y-105655715D01*
X111081000Y-105344285D01*
X111020243Y-105038839D01*
X110901064Y-104751116D01*
X110728043Y-104492171D01*
X110535872Y-104300000D01*
X145167157Y-104300000D01*
X145167157Y-106700000D01*
X145174513Y-106774689D01*
X145196299Y-106846508D01*
X145231678Y-106912696D01*
X145279289Y-106970711D01*
X145337304Y-107018322D01*
X145403492Y-107053701D01*
X145475311Y-107075487D01*
X145550000Y-107082843D01*
X147950000Y-107082843D01*
X148024689Y-107075487D01*
X148096508Y-107053701D01*
X148162696Y-107018322D01*
X148220711Y-106970711D01*
X148268322Y-106912696D01*
X148303701Y-106846508D01*
X148324488Y-106777980D01*
X149151626Y-106777980D01*
X149271514Y-107062836D01*
X149595210Y-107223699D01*
X149944069Y-107318322D01*
X150304684Y-107343067D01*
X150663198Y-107296985D01*
X151005833Y-107181846D01*
X151228486Y-107062836D01*
X151348374Y-106777980D01*
X150250000Y-105679605D01*
X149151626Y-106777980D01*
X148324488Y-106777980D01*
X148325487Y-106774689D01*
X148332843Y-106700000D01*
X148332843Y-105554684D01*
X148406933Y-105554684D01*
X148453015Y-105913198D01*
X148568154Y-106255833D01*
X148687164Y-106478486D01*
X148972020Y-106598374D01*
X150070395Y-105500000D01*
X150429605Y-105500000D01*
X151527980Y-106598374D01*
X151812836Y-106478486D01*
X151973699Y-106154790D01*
X151989119Y-106097938D01*
X154780732Y-106097938D01*
X154850397Y-106286150D01*
X154964447Y-106471822D01*
X155112529Y-106631676D01*
X155288951Y-106759569D01*
X155486934Y-106850586D01*
X155698869Y-106901230D01*
X155873000Y-106752564D01*
X155873000Y-105927000D01*
X156127000Y-105927000D01*
X156127000Y-106752564D01*
X156301131Y-106901230D01*
X156513066Y-106850586D01*
X156711049Y-106759569D01*
X156887471Y-106631676D01*
X157035553Y-106471822D01*
X157149603Y-106286150D01*
X157219268Y-106097938D01*
X159780732Y-106097938D01*
X159850397Y-106286150D01*
X159964447Y-106471822D01*
X160112529Y-106631676D01*
X160288951Y-106759569D01*
X160486934Y-106850586D01*
X160698869Y-106901230D01*
X160873000Y-106752564D01*
X160873000Y-105927000D01*
X161127000Y-105927000D01*
X161127000Y-106752564D01*
X161301131Y-106901230D01*
X161513066Y-106850586D01*
X161604027Y-106808769D01*
X165058395Y-106808769D01*
X165058395Y-107191231D01*
X165133009Y-107566345D01*
X165279372Y-107919695D01*
X165491857Y-108237701D01*
X165762299Y-108508143D01*
X166080305Y-108720628D01*
X166433655Y-108866991D01*
X166808769Y-108941605D01*
X167191231Y-108941605D01*
X167566345Y-108866991D01*
X167919695Y-108720628D01*
X168237701Y-108508143D01*
X168508143Y-108237701D01*
X168720628Y-107919695D01*
X168866991Y-107566345D01*
X168941605Y-107191231D01*
X168941605Y-106808769D01*
X168866991Y-106433655D01*
X168720628Y-106080305D01*
X168508143Y-105762299D01*
X168237701Y-105491857D01*
X167919695Y-105279372D01*
X167566345Y-105133009D01*
X167191231Y-105058395D01*
X166808769Y-105058395D01*
X166433655Y-105133009D01*
X166080305Y-105279372D01*
X165762299Y-105491857D01*
X165491857Y-105762299D01*
X165279372Y-106080305D01*
X165133009Y-106433655D01*
X165058395Y-106808769D01*
X161604027Y-106808769D01*
X161711049Y-106759569D01*
X161887471Y-106631676D01*
X162035553Y-106471822D01*
X162149603Y-106286150D01*
X162219268Y-106097938D01*
X162092734Y-105927000D01*
X161127000Y-105927000D01*
X160873000Y-105927000D01*
X159907266Y-105927000D01*
X159780732Y-106097938D01*
X157219268Y-106097938D01*
X157092734Y-105927000D01*
X156127000Y-105927000D01*
X155873000Y-105927000D01*
X154907266Y-105927000D01*
X154780732Y-106097938D01*
X151989119Y-106097938D01*
X152068322Y-105805931D01*
X152089173Y-105502062D01*
X154780732Y-105502062D01*
X154907266Y-105673000D01*
X155873000Y-105673000D01*
X155873000Y-104847436D01*
X156127000Y-104847436D01*
X156127000Y-105673000D01*
X157092734Y-105673000D01*
X157219268Y-105502062D01*
X159780732Y-105502062D01*
X159907266Y-105673000D01*
X160873000Y-105673000D01*
X160873000Y-104847436D01*
X161127000Y-104847436D01*
X161127000Y-105673000D01*
X162092734Y-105673000D01*
X162219268Y-105502062D01*
X162149603Y-105313850D01*
X162035553Y-105128178D01*
X161887471Y-104968324D01*
X161711049Y-104840431D01*
X161513066Y-104749414D01*
X161301131Y-104698770D01*
X161127000Y-104847436D01*
X160873000Y-104847436D01*
X160698869Y-104698770D01*
X160486934Y-104749414D01*
X160288951Y-104840431D01*
X160112529Y-104968324D01*
X159964447Y-105128178D01*
X159850397Y-105313850D01*
X159780732Y-105502062D01*
X157219268Y-105502062D01*
X157149603Y-105313850D01*
X157035553Y-105128178D01*
X156887471Y-104968324D01*
X156711049Y-104840431D01*
X156513066Y-104749414D01*
X156301131Y-104698770D01*
X156127000Y-104847436D01*
X155873000Y-104847436D01*
X155698869Y-104698770D01*
X155486934Y-104749414D01*
X155288951Y-104840431D01*
X155112529Y-104968324D01*
X154964447Y-105128178D01*
X154850397Y-105313850D01*
X154780732Y-105502062D01*
X152089173Y-105502062D01*
X152093067Y-105445316D01*
X152046985Y-105086802D01*
X151931846Y-104744167D01*
X151812836Y-104521514D01*
X151527980Y-104401626D01*
X150429605Y-105500000D01*
X150070395Y-105500000D01*
X148972020Y-104401626D01*
X148687164Y-104521514D01*
X148526301Y-104845210D01*
X148431678Y-105194069D01*
X148406933Y-105554684D01*
X148332843Y-105554684D01*
X148332843Y-104300000D01*
X148325487Y-104225311D01*
X148324489Y-104222020D01*
X149151626Y-104222020D01*
X150250000Y-105320395D01*
X151348374Y-104222020D01*
X151228486Y-103937164D01*
X150904790Y-103776301D01*
X150555931Y-103681678D01*
X150195316Y-103656933D01*
X149836802Y-103703015D01*
X149494167Y-103818154D01*
X149271514Y-103937164D01*
X149151626Y-104222020D01*
X148324489Y-104222020D01*
X148303701Y-104153492D01*
X148268322Y-104087304D01*
X148220711Y-104029289D01*
X148162696Y-103981678D01*
X148096508Y-103946299D01*
X148024689Y-103924513D01*
X147950000Y-103917157D01*
X145550000Y-103917157D01*
X145475311Y-103924513D01*
X145403492Y-103946299D01*
X145337304Y-103981678D01*
X145279289Y-104029289D01*
X145231678Y-104087304D01*
X145196299Y-104153492D01*
X145174513Y-104225311D01*
X145167157Y-104300000D01*
X110535872Y-104300000D01*
X110507829Y-104271957D01*
X110248884Y-104098936D01*
X110131000Y-104050107D01*
X110131000Y-104011368D01*
X111011369Y-103131000D01*
X140969010Y-103131000D01*
X141000000Y-103134052D01*
X141030990Y-103131000D01*
X141030998Y-103131000D01*
X141123698Y-103121870D01*
X141242642Y-103085789D01*
X141352261Y-103027196D01*
X141448343Y-102948343D01*
X141468105Y-102924263D01*
X142424268Y-101968101D01*
X142448343Y-101948343D01*
X142527196Y-101852261D01*
X142585789Y-101742642D01*
X142621870Y-101623698D01*
X142621870Y-101623697D01*
X142629128Y-101550000D01*
X150167157Y-101550000D01*
X150167157Y-102950000D01*
X150174513Y-103024689D01*
X150196299Y-103096508D01*
X150231678Y-103162696D01*
X150279289Y-103220711D01*
X150337304Y-103268322D01*
X150403492Y-103303701D01*
X150475311Y-103325487D01*
X150550000Y-103332843D01*
X152150000Y-103332843D01*
X152224689Y-103325487D01*
X152296508Y-103303701D01*
X152362696Y-103268322D01*
X152420711Y-103220711D01*
X152468322Y-103162696D01*
X152503701Y-103096508D01*
X152525487Y-103024689D01*
X152532843Y-102950000D01*
X152532843Y-101550000D01*
X158167157Y-101550000D01*
X158167157Y-102950000D01*
X158174513Y-103024689D01*
X158196299Y-103096508D01*
X158231678Y-103162696D01*
X158279289Y-103220711D01*
X158337304Y-103268322D01*
X158403492Y-103303701D01*
X158475311Y-103325487D01*
X158550000Y-103332843D01*
X160150000Y-103332843D01*
X160224689Y-103325487D01*
X160296508Y-103303701D01*
X160362696Y-103268322D01*
X160420711Y-103220711D01*
X160468322Y-103162696D01*
X160503701Y-103096508D01*
X160525487Y-103024689D01*
X160532843Y-102950000D01*
X160532843Y-101550000D01*
X160525487Y-101475311D01*
X160503701Y-101403492D01*
X160468322Y-101337304D01*
X160420711Y-101279289D01*
X160362696Y-101231678D01*
X160296508Y-101196299D01*
X160224689Y-101174513D01*
X160150000Y-101167157D01*
X158550000Y-101167157D01*
X158475311Y-101174513D01*
X158403492Y-101196299D01*
X158337304Y-101231678D01*
X158279289Y-101279289D01*
X158231678Y-101337304D01*
X158196299Y-101403492D01*
X158174513Y-101475311D01*
X158167157Y-101550000D01*
X152532843Y-101550000D01*
X152525487Y-101475311D01*
X152503701Y-101403492D01*
X152468322Y-101337304D01*
X152420711Y-101279289D01*
X152362696Y-101231678D01*
X152296508Y-101196299D01*
X152224689Y-101174513D01*
X152150000Y-101167157D01*
X150550000Y-101167157D01*
X150475311Y-101174513D01*
X150403492Y-101196299D01*
X150337304Y-101231678D01*
X150279289Y-101279289D01*
X150231678Y-101337304D01*
X150196299Y-101403492D01*
X150174513Y-101475311D01*
X150167157Y-101550000D01*
X142629128Y-101550000D01*
X142634053Y-101500000D01*
X142631000Y-101469002D01*
X142631000Y-100060000D01*
X148196928Y-100060000D01*
X148209188Y-100184482D01*
X148245498Y-100304180D01*
X148304463Y-100414494D01*
X148383815Y-100511185D01*
X148480506Y-100590537D01*
X148590820Y-100649502D01*
X148710518Y-100685812D01*
X148835000Y-100698072D01*
X149024250Y-100695000D01*
X149183000Y-100536250D01*
X149183000Y-99699500D01*
X149437000Y-99699500D01*
X149437000Y-100536250D01*
X149595750Y-100695000D01*
X149785000Y-100698072D01*
X149909482Y-100685812D01*
X150029180Y-100649502D01*
X150139494Y-100590537D01*
X150236185Y-100511185D01*
X150315537Y-100414494D01*
X150374502Y-100304180D01*
X150410812Y-100184482D01*
X150423072Y-100060000D01*
X150420000Y-99858250D01*
X150261250Y-99699500D01*
X149437000Y-99699500D01*
X149183000Y-99699500D01*
X148358750Y-99699500D01*
X148200000Y-99858250D01*
X148196928Y-100060000D01*
X142631000Y-100060000D01*
X142631000Y-96530987D01*
X142634052Y-96499999D01*
X142631000Y-96469011D01*
X142631000Y-96469002D01*
X142621870Y-96376302D01*
X142585789Y-96257358D01*
X142527196Y-96147739D01*
X142479148Y-96089193D01*
X142468103Y-96075734D01*
X142468101Y-96075732D01*
X142448343Y-96051657D01*
X142424269Y-96031900D01*
X141558105Y-95165737D01*
X141538343Y-95141657D01*
X141442261Y-95062804D01*
X141332642Y-95004211D01*
X141213698Y-94968130D01*
X141120998Y-94959000D01*
X141120990Y-94959000D01*
X141090000Y-94955948D01*
X141059010Y-94959000D01*
X140813415Y-94959000D01*
X140803826Y-94935851D01*
X140652693Y-94709664D01*
X140460336Y-94517307D01*
X140234149Y-94366174D01*
X139982823Y-94262071D01*
X139716017Y-94209000D01*
X139443983Y-94209000D01*
X139177177Y-94262071D01*
X138925851Y-94366174D01*
X138699664Y-94517307D01*
X138507307Y-94709664D01*
X138356174Y-94935851D01*
X138252071Y-95187177D01*
X138199000Y-95453983D01*
X138199000Y-95726017D01*
X138252071Y-95992823D01*
X138356174Y-96244149D01*
X138507307Y-96470336D01*
X138699664Y-96662693D01*
X138925851Y-96813826D01*
X139037325Y-96860000D01*
X138925851Y-96906174D01*
X138699664Y-97057307D01*
X138507307Y-97249664D01*
X138356174Y-97475851D01*
X138252071Y-97727177D01*
X138199000Y-97993983D01*
X138199000Y-98266017D01*
X138252071Y-98532823D01*
X138356174Y-98784149D01*
X138507307Y-99010336D01*
X138699664Y-99202693D01*
X138925851Y-99353826D01*
X139177177Y-99457929D01*
X139443983Y-99511000D01*
X139716017Y-99511000D01*
X139982823Y-99457929D01*
X140234149Y-99353826D01*
X140460336Y-99202693D01*
X140652693Y-99010336D01*
X140803826Y-98784149D01*
X140907929Y-98532823D01*
X140961000Y-98266017D01*
X140961000Y-97993983D01*
X140907929Y-97727177D01*
X140803826Y-97475851D01*
X140652693Y-97249664D01*
X140460336Y-97057307D01*
X140234149Y-96906174D01*
X140122675Y-96860000D01*
X140234149Y-96813826D01*
X140460336Y-96662693D01*
X140652693Y-96470336D01*
X140803826Y-96244149D01*
X140813415Y-96221000D01*
X140828632Y-96221000D01*
X141369000Y-96761369D01*
X141369001Y-101238630D01*
X140738632Y-101869000D01*
X131273368Y-101869000D01*
X132424268Y-100718101D01*
X132448343Y-100698343D01*
X132527196Y-100602261D01*
X132585789Y-100492642D01*
X132621870Y-100373698D01*
X132631000Y-100280998D01*
X132631000Y-100280991D01*
X132634052Y-100250000D01*
X132631000Y-100219010D01*
X132631000Y-96530987D01*
X132634052Y-96499999D01*
X132631000Y-96469011D01*
X132631000Y-96469002D01*
X132621870Y-96376302D01*
X132585789Y-96257358D01*
X132527196Y-96147739D01*
X132479148Y-96089193D01*
X132468103Y-96075734D01*
X132468101Y-96075732D01*
X132448343Y-96051657D01*
X132424269Y-96031900D01*
X131558105Y-95165737D01*
X131538343Y-95141657D01*
X131442261Y-95062804D01*
X131332642Y-95004211D01*
X131213698Y-94968130D01*
X131120998Y-94959000D01*
X131120990Y-94959000D01*
X131090000Y-94955948D01*
X131063242Y-94958583D01*
X131053826Y-94935851D01*
X130902693Y-94709664D01*
X130783029Y-94590000D01*
X133117157Y-94590000D01*
X133117157Y-96590000D01*
X133124513Y-96664689D01*
X133146299Y-96736508D01*
X133181678Y-96802696D01*
X133229289Y-96860711D01*
X133287304Y-96908322D01*
X133353492Y-96943701D01*
X133425311Y-96965487D01*
X133500000Y-96972843D01*
X133746074Y-96972843D01*
X133619664Y-97057307D01*
X133427307Y-97249664D01*
X133276174Y-97475851D01*
X133172071Y-97727177D01*
X133119000Y-97993983D01*
X133119000Y-98266017D01*
X133172071Y-98532823D01*
X133276174Y-98784149D01*
X133427307Y-99010336D01*
X133619664Y-99202693D01*
X133845851Y-99353826D01*
X134097177Y-99457929D01*
X134363983Y-99511000D01*
X134636017Y-99511000D01*
X134902823Y-99457929D01*
X135154149Y-99353826D01*
X135380336Y-99202693D01*
X135572693Y-99010336D01*
X135723826Y-98784149D01*
X135827929Y-98532823D01*
X135881000Y-98266017D01*
X135881000Y-97993983D01*
X135827929Y-97727177D01*
X135723826Y-97475851D01*
X135572693Y-97249664D01*
X135380336Y-97057307D01*
X135253926Y-96972843D01*
X135500000Y-96972843D01*
X135574689Y-96965487D01*
X135646508Y-96943701D01*
X135712696Y-96908322D01*
X135770711Y-96860711D01*
X135818322Y-96802696D01*
X135853701Y-96736508D01*
X135875487Y-96664689D01*
X135882843Y-96590000D01*
X135882843Y-94590000D01*
X135875487Y-94515311D01*
X135853701Y-94443492D01*
X135818322Y-94377304D01*
X135770711Y-94319289D01*
X135712696Y-94271678D01*
X135646508Y-94236299D01*
X135574689Y-94214513D01*
X135500000Y-94207157D01*
X133500000Y-94207157D01*
X133425311Y-94214513D01*
X133353492Y-94236299D01*
X133287304Y-94271678D01*
X133229289Y-94319289D01*
X133181678Y-94377304D01*
X133146299Y-94443492D01*
X133124513Y-94515311D01*
X133117157Y-94590000D01*
X130783029Y-94590000D01*
X130710336Y-94517307D01*
X130484149Y-94366174D01*
X130232823Y-94262071D01*
X129966017Y-94209000D01*
X129693983Y-94209000D01*
X129427177Y-94262071D01*
X129175851Y-94366174D01*
X128949664Y-94517307D01*
X128757307Y-94709664D01*
X128606174Y-94935851D01*
X128502071Y-95187177D01*
X128449000Y-95453983D01*
X128449000Y-95726017D01*
X128502071Y-95992823D01*
X128606174Y-96244149D01*
X128757307Y-96470336D01*
X128949664Y-96662693D01*
X129175851Y-96813826D01*
X129287325Y-96860000D01*
X129175851Y-96906174D01*
X128949664Y-97057307D01*
X128757307Y-97249664D01*
X128606174Y-97475851D01*
X128502071Y-97727177D01*
X128449000Y-97993983D01*
X128449000Y-98266017D01*
X128502071Y-98532823D01*
X128606174Y-98784149D01*
X128757307Y-99010336D01*
X128949664Y-99202693D01*
X129175851Y-99353826D01*
X129427177Y-99457929D01*
X129693983Y-99511000D01*
X129966017Y-99511000D01*
X130232823Y-99457929D01*
X130484149Y-99353826D01*
X130710336Y-99202693D01*
X130902693Y-99010336D01*
X131053826Y-98784149D01*
X131157929Y-98532823D01*
X131211000Y-98266017D01*
X131211000Y-97993983D01*
X131157929Y-97727177D01*
X131053826Y-97475851D01*
X130902693Y-97249664D01*
X130710336Y-97057307D01*
X130484149Y-96906174D01*
X130372675Y-96860000D01*
X130484149Y-96813826D01*
X130710336Y-96662693D01*
X130902693Y-96470336D01*
X130972898Y-96365266D01*
X131369000Y-96761369D01*
X131369001Y-99988630D01*
X130488632Y-100869000D01*
X121523368Y-100869000D01*
X122674268Y-99718101D01*
X122698343Y-99698343D01*
X122777196Y-99602261D01*
X122835789Y-99492642D01*
X122871870Y-99373698D01*
X122881000Y-99280998D01*
X122881000Y-99280991D01*
X122884052Y-99250000D01*
X122881000Y-99219010D01*
X122881000Y-96530987D01*
X122884052Y-96499999D01*
X122881000Y-96469011D01*
X122881000Y-96469002D01*
X122871870Y-96376302D01*
X122835789Y-96257358D01*
X122777196Y-96147739D01*
X122729148Y-96089193D01*
X122718103Y-96075734D01*
X122718101Y-96075732D01*
X122698343Y-96051657D01*
X122674269Y-96031900D01*
X121808105Y-95165737D01*
X121788343Y-95141657D01*
X121692261Y-95062804D01*
X121582642Y-95004211D01*
X121463698Y-94968130D01*
X121370998Y-94959000D01*
X121370990Y-94959000D01*
X121340000Y-94955948D01*
X121309010Y-94959000D01*
X121233415Y-94959000D01*
X121223826Y-94935851D01*
X121072693Y-94709664D01*
X120953029Y-94590000D01*
X123367157Y-94590000D01*
X123367157Y-96590000D01*
X123374513Y-96664689D01*
X123396299Y-96736508D01*
X123431678Y-96802696D01*
X123479289Y-96860711D01*
X123537304Y-96908322D01*
X123603492Y-96943701D01*
X123675311Y-96965487D01*
X123750000Y-96972843D01*
X123996074Y-96972843D01*
X123869664Y-97057307D01*
X123677307Y-97249664D01*
X123526174Y-97475851D01*
X123422071Y-97727177D01*
X123369000Y-97993983D01*
X123369000Y-98266017D01*
X123422071Y-98532823D01*
X123526174Y-98784149D01*
X123677307Y-99010336D01*
X123869664Y-99202693D01*
X124095851Y-99353826D01*
X124347177Y-99457929D01*
X124613983Y-99511000D01*
X124886017Y-99511000D01*
X125152823Y-99457929D01*
X125404149Y-99353826D01*
X125630336Y-99202693D01*
X125822693Y-99010336D01*
X125973826Y-98784149D01*
X126077929Y-98532823D01*
X126131000Y-98266017D01*
X126131000Y-97993983D01*
X126077929Y-97727177D01*
X125973826Y-97475851D01*
X125822693Y-97249664D01*
X125630336Y-97057307D01*
X125503926Y-96972843D01*
X125750000Y-96972843D01*
X125824689Y-96965487D01*
X125896508Y-96943701D01*
X125962696Y-96908322D01*
X126020711Y-96860711D01*
X126068322Y-96802696D01*
X126103701Y-96736508D01*
X126125487Y-96664689D01*
X126132843Y-96590000D01*
X126132843Y-94590000D01*
X126125487Y-94515311D01*
X126103701Y-94443492D01*
X126068322Y-94377304D01*
X126020711Y-94319289D01*
X125962696Y-94271678D01*
X125896508Y-94236299D01*
X125824689Y-94214513D01*
X125750000Y-94207157D01*
X123750000Y-94207157D01*
X123675311Y-94214513D01*
X123603492Y-94236299D01*
X123537304Y-94271678D01*
X123479289Y-94319289D01*
X123431678Y-94377304D01*
X123396299Y-94443492D01*
X123374513Y-94515311D01*
X123367157Y-94590000D01*
X120953029Y-94590000D01*
X120880336Y-94517307D01*
X120654149Y-94366174D01*
X120402823Y-94262071D01*
X120136017Y-94209000D01*
X119863983Y-94209000D01*
X119597177Y-94262071D01*
X119345851Y-94366174D01*
X119119664Y-94517307D01*
X118927307Y-94709664D01*
X118776174Y-94935851D01*
X118672071Y-95187177D01*
X118619000Y-95453983D01*
X118619000Y-95726017D01*
X118672071Y-95992823D01*
X118776174Y-96244149D01*
X118927307Y-96470336D01*
X119119664Y-96662693D01*
X119345851Y-96813826D01*
X119457325Y-96860000D01*
X119345851Y-96906174D01*
X119119664Y-97057307D01*
X118927307Y-97249664D01*
X118776174Y-97475851D01*
X118672071Y-97727177D01*
X118619000Y-97993983D01*
X118619000Y-98266017D01*
X118672071Y-98532823D01*
X118776174Y-98784149D01*
X118927307Y-99010336D01*
X119119664Y-99202693D01*
X119345851Y-99353826D01*
X119597177Y-99457929D01*
X119863983Y-99511000D01*
X120136017Y-99511000D01*
X120402823Y-99457929D01*
X120654149Y-99353826D01*
X120880336Y-99202693D01*
X121072693Y-99010336D01*
X121223826Y-98784149D01*
X121327929Y-98532823D01*
X121381000Y-98266017D01*
X121381000Y-97993983D01*
X121327929Y-97727177D01*
X121223826Y-97475851D01*
X121072693Y-97249664D01*
X120880336Y-97057307D01*
X120654149Y-96906174D01*
X120542675Y-96860000D01*
X120654149Y-96813826D01*
X120880336Y-96662693D01*
X121072693Y-96470336D01*
X121174942Y-96317310D01*
X121619000Y-96761369D01*
X121619001Y-98988630D01*
X120738632Y-99869000D01*
X103780990Y-99869000D01*
X103750000Y-99865948D01*
X103719009Y-99869000D01*
X103719002Y-99869000D01*
X103626302Y-99878130D01*
X103507358Y-99914211D01*
X103397739Y-99972804D01*
X103301657Y-100051657D01*
X103281899Y-100075732D01*
X102075737Y-101281895D01*
X102051657Y-101301657D01*
X101972804Y-101397740D01*
X101914211Y-101507359D01*
X101878130Y-101626303D01*
X101869000Y-101719003D01*
X101869000Y-101719010D01*
X101865948Y-101750000D01*
X101869000Y-101780990D01*
X101869001Y-104050107D01*
X101751116Y-104098936D01*
X101492171Y-104271957D01*
X101271957Y-104492171D01*
X101098936Y-104751116D01*
X100979757Y-105038839D01*
X100919000Y-105344285D01*
X100582843Y-105344285D01*
X100582843Y-104300000D01*
X100575487Y-104225311D01*
X100553701Y-104153492D01*
X100518322Y-104087304D01*
X100470711Y-104029289D01*
X100412696Y-103981678D01*
X100346508Y-103946299D01*
X100274689Y-103924513D01*
X100200000Y-103917157D01*
X97800000Y-103917157D01*
X97725311Y-103924513D01*
X97653492Y-103946299D01*
X97587304Y-103981678D01*
X97529289Y-104029289D01*
X97481678Y-104087304D01*
X97446299Y-104153492D01*
X97424513Y-104225311D01*
X97417157Y-104300000D01*
X90627000Y-104300000D01*
X90627000Y-92600000D01*
X92561928Y-92600000D01*
X92565000Y-93164250D01*
X92723750Y-93323000D01*
X93923000Y-93323000D01*
X93923000Y-92123750D01*
X93764250Y-91965000D01*
X93200000Y-91961928D01*
X93075518Y-91974188D01*
X92955820Y-92010498D01*
X92845506Y-92069463D01*
X92748815Y-92148815D01*
X92669463Y-92245506D01*
X92610498Y-92355820D01*
X92574188Y-92475518D01*
X92561928Y-92600000D01*
X90627000Y-92600000D01*
X90627000Y-86877000D01*
X91500000Y-86877000D01*
X91524776Y-86874560D01*
X91548601Y-86867333D01*
X91570557Y-86855597D01*
X91589803Y-86839803D01*
X91605597Y-86820557D01*
X91617333Y-86798601D01*
X91624560Y-86774776D01*
X91627000Y-86750000D01*
X91627000Y-56500000D01*
X91624560Y-56475224D01*
X91617333Y-56451399D01*
X91605597Y-56429443D01*
X91589803Y-56410197D01*
X91570557Y-56394403D01*
X91548601Y-56382667D01*
X91524776Y-56375440D01*
X91500000Y-56373000D01*
X90627000Y-56373000D01*
X90627000Y-52808769D01*
X91058395Y-52808769D01*
X91058395Y-53191231D01*
X91133009Y-53566345D01*
X91279372Y-53919695D01*
X91491857Y-54237701D01*
X91762299Y-54508143D01*
X92080305Y-54720628D01*
X92433655Y-54866991D01*
X92808769Y-54941605D01*
X93191231Y-54941605D01*
X93566345Y-54866991D01*
X93919695Y-54720628D01*
X94237701Y-54508143D01*
X94508143Y-54237701D01*
X94720628Y-53919695D01*
X94866991Y-53566345D01*
X94941605Y-53191231D01*
X94941605Y-52808769D01*
X94866991Y-52433655D01*
X94720628Y-52080305D01*
X94508143Y-51762299D01*
X94237701Y-51491857D01*
X93919695Y-51279372D01*
X93566345Y-51133009D01*
X93191231Y-51058395D01*
X92808769Y-51058395D01*
X92433655Y-51133009D01*
X92080305Y-51279372D01*
X91762299Y-51491857D01*
X91491857Y-51762299D01*
X91279372Y-52080305D01*
X91133009Y-52433655D01*
X91058395Y-52808769D01*
X90627000Y-52808769D01*
X90627000Y-50627000D01*
X113873000Y-50627000D01*
X113873000Y-57000000D01*
%TA.AperFunction,Conductor*%
D23*
G36*
X113873000Y-57000000D02*
G01*
X113875440Y-57024776D01*
X113882667Y-57048601D01*
X113894403Y-57070557D01*
X113910197Y-57089803D01*
X113929443Y-57105597D01*
X113951399Y-57117333D01*
X113956895Y-57119000D01*
X103730987Y-57119000D01*
X103699999Y-57115948D01*
X103669011Y-57119000D01*
X103669002Y-57119000D01*
X103576302Y-57128130D01*
X103457358Y-57164211D01*
X103347739Y-57222804D01*
X103251657Y-57301657D01*
X103231899Y-57325732D01*
X101575733Y-58981899D01*
X101551658Y-59001657D01*
X101531900Y-59025732D01*
X101531897Y-59025735D01*
X101472804Y-59097740D01*
X101414211Y-59207359D01*
X101378130Y-59326303D01*
X101365948Y-59450000D01*
X101369001Y-59481000D01*
X101369000Y-62038595D01*
X101307887Y-62130058D01*
X101249013Y-62272191D01*
X101219000Y-62423078D01*
X101219000Y-62576922D01*
X101249013Y-62727809D01*
X101307887Y-62869942D01*
X101369000Y-62961405D01*
X101369001Y-68559000D01*
X101365948Y-68590000D01*
X101378130Y-68713697D01*
X101414211Y-68832641D01*
X101472804Y-68942260D01*
X101531897Y-69014265D01*
X101531900Y-69014268D01*
X101551658Y-69038343D01*
X101575733Y-69058101D01*
X102147553Y-69629921D01*
X102169013Y-69737809D01*
X102227887Y-69879942D01*
X102313358Y-70007859D01*
X102422141Y-70116642D01*
X102550058Y-70202113D01*
X102692191Y-70260987D01*
X102843078Y-70291000D01*
X102996922Y-70291000D01*
X103147809Y-70260987D01*
X103289942Y-70202113D01*
X103417859Y-70116642D01*
X103526642Y-70007859D01*
X103612113Y-69879942D01*
X103670987Y-69737809D01*
X103701000Y-69586922D01*
X103701000Y-69433078D01*
X103670987Y-69282191D01*
X103612113Y-69140058D01*
X103526642Y-69012141D01*
X103417859Y-68903358D01*
X103289942Y-68817887D01*
X103147809Y-68759013D01*
X103039921Y-68737553D01*
X102631000Y-68328632D01*
X102631000Y-62961405D01*
X102692113Y-62869942D01*
X102750987Y-62727809D01*
X102781000Y-62576922D01*
X102781000Y-62423078D01*
X102750987Y-62272191D01*
X102692113Y-62130058D01*
X102631000Y-62038595D01*
X102631000Y-59711368D01*
X103961369Y-58381000D01*
X122726632Y-58381000D01*
X122180079Y-58927553D01*
X122072191Y-58949013D01*
X121930058Y-59007887D01*
X121802141Y-59093358D01*
X121693358Y-59202141D01*
X121607887Y-59330058D01*
X121549013Y-59472191D01*
X121519000Y-59623078D01*
X121519000Y-59776922D01*
X121549013Y-59927809D01*
X121607887Y-60069942D01*
X121693358Y-60197859D01*
X121802141Y-60306642D01*
X121930058Y-60392113D01*
X122072191Y-60450987D01*
X122223078Y-60481000D01*
X122376922Y-60481000D01*
X122527809Y-60450987D01*
X122669942Y-60392113D01*
X122797859Y-60306642D01*
X122906642Y-60197859D01*
X122992113Y-60069942D01*
X123050987Y-59927809D01*
X123072447Y-59819921D01*
X124511368Y-58381000D01*
X143138632Y-58381000D01*
X144369001Y-59611370D01*
X144369000Y-77239002D01*
X144369000Y-77239003D01*
X144369001Y-80168594D01*
X144307887Y-80260058D01*
X144249013Y-80402191D01*
X144219000Y-80553078D01*
X144219000Y-80706922D01*
X144249013Y-80857809D01*
X144307887Y-80999942D01*
X144393358Y-81127859D01*
X144502141Y-81236642D01*
X144630058Y-81322113D01*
X144772191Y-81380987D01*
X144923078Y-81411000D01*
X145076922Y-81411000D01*
X145227809Y-81380987D01*
X145369942Y-81322113D01*
X145497859Y-81236642D01*
X145606642Y-81127859D01*
X145692113Y-80999942D01*
X145750987Y-80857809D01*
X145781000Y-80706922D01*
X145781000Y-80553078D01*
X145750987Y-80402191D01*
X145692113Y-80260058D01*
X145631000Y-80168595D01*
X145631000Y-75935000D01*
X149851928Y-75935000D01*
X149864188Y-76059482D01*
X149900498Y-76179180D01*
X149959463Y-76289494D01*
X150038815Y-76386185D01*
X150135506Y-76465537D01*
X150245820Y-76524502D01*
X150365518Y-76560812D01*
X150490000Y-76573072D01*
X150691750Y-76570000D01*
X150850500Y-76411250D01*
X150850500Y-75587000D01*
X150013750Y-75587000D01*
X149855000Y-75745750D01*
X149851928Y-75935000D01*
X145631000Y-75935000D01*
X145631000Y-74985000D01*
X149851928Y-74985000D01*
X149855000Y-75174250D01*
X150013750Y-75333000D01*
X150850500Y-75333000D01*
X150850500Y-74508750D01*
X150691750Y-74350000D01*
X150490000Y-74346928D01*
X150365518Y-74359188D01*
X150245820Y-74395498D01*
X150135506Y-74454463D01*
X150038815Y-74533815D01*
X149959463Y-74630506D01*
X149900498Y-74740820D01*
X149864188Y-74860518D01*
X149851928Y-74985000D01*
X145631000Y-74985000D01*
X145631000Y-61550000D01*
X149817157Y-61550000D01*
X149817157Y-62950000D01*
X149824513Y-63024689D01*
X149846299Y-63096508D01*
X149881678Y-63162696D01*
X149929289Y-63220711D01*
X149987304Y-63268322D01*
X150053492Y-63303701D01*
X150125311Y-63325487D01*
X150200000Y-63332843D01*
X151800000Y-63332843D01*
X151874689Y-63325487D01*
X151946508Y-63303701D01*
X152012696Y-63268322D01*
X152070711Y-63220711D01*
X152118322Y-63162696D01*
X152153701Y-63096508D01*
X152175487Y-63024689D01*
X152182843Y-62950000D01*
X152182843Y-61550000D01*
X152175487Y-61475311D01*
X152153701Y-61403492D01*
X152118322Y-61337304D01*
X152070711Y-61279289D01*
X152012696Y-61231678D01*
X151946508Y-61196299D01*
X151874689Y-61174513D01*
X151800000Y-61167157D01*
X150200000Y-61167157D01*
X150125311Y-61174513D01*
X150053492Y-61196299D01*
X149987304Y-61231678D01*
X149929289Y-61279289D01*
X149881678Y-61337304D01*
X149846299Y-61403492D01*
X149824513Y-61475311D01*
X149817157Y-61550000D01*
X145631000Y-61550000D01*
X145631000Y-59380990D01*
X145634052Y-59350000D01*
X145631000Y-59319009D01*
X145631000Y-57050000D01*
X147916928Y-57050000D01*
X147920000Y-57251750D01*
X148078750Y-57410500D01*
X148903000Y-57410500D01*
X148903000Y-56573750D01*
X148744250Y-56415000D01*
X148555000Y-56411928D01*
X148430518Y-56424188D01*
X148310820Y-56460498D01*
X148200506Y-56519463D01*
X148103815Y-56598815D01*
X148024463Y-56695506D01*
X147965498Y-56805820D01*
X147929188Y-56925518D01*
X147916928Y-57050000D01*
X145631000Y-57050000D01*
X145631000Y-56511368D01*
X146761369Y-55381000D01*
X151969010Y-55381000D01*
X152000000Y-55384052D01*
X152030990Y-55381000D01*
X154715409Y-55381000D01*
X155494001Y-56159593D01*
X155494000Y-57778409D01*
X155125376Y-57409785D01*
X155109527Y-57390473D01*
X155032479Y-57327241D01*
X154944575Y-57280255D01*
X154849193Y-57251322D01*
X154774854Y-57244000D01*
X154774846Y-57244000D01*
X154750000Y-57241553D01*
X154725154Y-57244000D01*
X152182843Y-57244000D01*
X152182843Y-57050000D01*
X152175487Y-56975311D01*
X152153701Y-56903492D01*
X152118322Y-56837304D01*
X152070711Y-56779289D01*
X152012696Y-56731678D01*
X151946508Y-56696299D01*
X151874689Y-56674513D01*
X151800000Y-56667157D01*
X150200000Y-56667157D01*
X150125311Y-56674513D01*
X150053492Y-56696299D01*
X150039857Y-56703587D01*
X150035537Y-56695506D01*
X149956185Y-56598815D01*
X149859494Y-56519463D01*
X149749180Y-56460498D01*
X149629482Y-56424188D01*
X149505000Y-56411928D01*
X149315750Y-56415000D01*
X149157000Y-56573750D01*
X149157000Y-57410500D01*
X149177000Y-57410500D01*
X149177000Y-57664500D01*
X149157000Y-57664500D01*
X149157000Y-57684500D01*
X148903000Y-57684500D01*
X148903000Y-57664500D01*
X148078750Y-57664500D01*
X147920000Y-57823250D01*
X147916928Y-58025000D01*
X147929188Y-58149482D01*
X147965498Y-58269180D01*
X148024463Y-58379494D01*
X148103815Y-58476185D01*
X148200506Y-58555537D01*
X148310820Y-58614502D01*
X148395039Y-58640049D01*
X148353851Y-58673851D01*
X148276704Y-58767856D01*
X148219378Y-58875105D01*
X148184077Y-58991477D01*
X148172157Y-59112500D01*
X148172157Y-59612500D01*
X148184077Y-59733523D01*
X148219378Y-59849895D01*
X148276704Y-59957144D01*
X148353851Y-60051149D01*
X148447856Y-60128296D01*
X148555105Y-60185622D01*
X148671477Y-60220923D01*
X148792500Y-60232843D01*
X149267500Y-60232843D01*
X149388523Y-60220923D01*
X149504895Y-60185622D01*
X149612144Y-60128296D01*
X149706149Y-60051149D01*
X149783296Y-59957144D01*
X149830677Y-59868500D01*
X150452654Y-59868500D01*
X150477500Y-59870947D01*
X150502346Y-59868500D01*
X150502354Y-59868500D01*
X150576693Y-59861178D01*
X150672075Y-59832245D01*
X150759979Y-59785259D01*
X150837027Y-59722027D01*
X150852876Y-59702715D01*
X151340220Y-59215372D01*
X151359527Y-59199527D01*
X151422759Y-59122479D01*
X151469745Y-59034575D01*
X151498678Y-58939193D01*
X151506000Y-58864854D01*
X151506000Y-58864853D01*
X151508448Y-58840000D01*
X151507743Y-58832843D01*
X151800000Y-58832843D01*
X151874689Y-58825487D01*
X151946508Y-58803701D01*
X152012696Y-58768322D01*
X152070711Y-58720711D01*
X152118322Y-58662696D01*
X152153701Y-58596508D01*
X152175487Y-58524689D01*
X152182843Y-58450000D01*
X152182843Y-58256000D01*
X154540409Y-58256000D01*
X154994001Y-58709593D01*
X154994000Y-68890408D01*
X154460409Y-69424000D01*
X148748501Y-69424000D01*
X148647859Y-69323358D01*
X148519942Y-69237887D01*
X148377809Y-69179013D01*
X148226922Y-69149000D01*
X148073078Y-69149000D01*
X147922191Y-69179013D01*
X147780058Y-69237887D01*
X147652141Y-69323358D01*
X147543358Y-69432141D01*
X147457887Y-69560058D01*
X147399013Y-69702191D01*
X147369000Y-69853078D01*
X147369000Y-70006922D01*
X147399013Y-70157809D01*
X147457887Y-70299942D01*
X147543358Y-70427859D01*
X147652141Y-70536642D01*
X147780058Y-70622113D01*
X147922191Y-70680987D01*
X148073078Y-70711000D01*
X148226922Y-70711000D01*
X148377809Y-70680987D01*
X148519942Y-70622113D01*
X148647859Y-70536642D01*
X148748501Y-70436000D01*
X154645154Y-70436000D01*
X154670000Y-70438447D01*
X154694846Y-70436000D01*
X154694854Y-70436000D01*
X154769193Y-70428678D01*
X154864575Y-70399745D01*
X154952479Y-70352759D01*
X155029527Y-70289527D01*
X155045376Y-70270215D01*
X155494000Y-69821591D01*
X155494000Y-75855385D01*
X155469745Y-75775425D01*
X155453883Y-75745750D01*
X155422759Y-75687521D01*
X155359527Y-75610473D01*
X155340220Y-75594628D01*
X154865376Y-75119785D01*
X154849527Y-75100473D01*
X154772479Y-75037241D01*
X154684575Y-74990255D01*
X154589193Y-74961322D01*
X154514854Y-74954000D01*
X154514846Y-74954000D01*
X154490000Y-74951553D01*
X154465154Y-74954000D01*
X153608996Y-74954000D01*
X153568296Y-74877856D01*
X153491149Y-74783851D01*
X153397144Y-74706704D01*
X153308500Y-74659323D01*
X153308500Y-74457354D01*
X153310948Y-74432500D01*
X153301178Y-74333307D01*
X153272245Y-74237925D01*
X153257182Y-74209745D01*
X153225259Y-74150021D01*
X153162027Y-74072973D01*
X153142720Y-74057128D01*
X152485376Y-73399785D01*
X152469527Y-73380473D01*
X152392479Y-73317241D01*
X152304575Y-73270255D01*
X152209193Y-73241322D01*
X152134854Y-73234000D01*
X152134846Y-73234000D01*
X152110000Y-73231553D01*
X152085154Y-73234000D01*
X148838501Y-73234000D01*
X148737859Y-73133358D01*
X148609942Y-73047887D01*
X148467809Y-72989013D01*
X148316922Y-72959000D01*
X148163078Y-72959000D01*
X148012191Y-72989013D01*
X147870058Y-73047887D01*
X147742141Y-73133358D01*
X147633358Y-73242141D01*
X147547887Y-73370058D01*
X147489013Y-73512191D01*
X147459000Y-73663078D01*
X147459000Y-73816922D01*
X147489013Y-73967809D01*
X147547887Y-74109942D01*
X147633358Y-74237859D01*
X147742141Y-74346642D01*
X147870058Y-74432113D01*
X148012191Y-74490987D01*
X148163078Y-74521000D01*
X148316922Y-74521000D01*
X148467809Y-74490987D01*
X148609942Y-74432113D01*
X148737859Y-74346642D01*
X148838501Y-74246000D01*
X151900409Y-74246000D01*
X152296500Y-74642092D01*
X152296500Y-74659322D01*
X152207856Y-74706704D01*
X152113851Y-74783851D01*
X152080049Y-74825039D01*
X152054502Y-74740820D01*
X151995537Y-74630506D01*
X151916185Y-74533815D01*
X151819494Y-74454463D01*
X151709180Y-74395498D01*
X151589482Y-74359188D01*
X151465000Y-74346928D01*
X151263250Y-74350000D01*
X151104500Y-74508750D01*
X151104500Y-75333000D01*
X151124500Y-75333000D01*
X151124500Y-75587000D01*
X151104500Y-75587000D01*
X151104500Y-76411250D01*
X151263250Y-76570000D01*
X151465000Y-76573072D01*
X151589482Y-76560812D01*
X151709180Y-76524502D01*
X151819494Y-76465537D01*
X151916185Y-76386185D01*
X151995537Y-76289494D01*
X152054502Y-76179180D01*
X152080049Y-76094961D01*
X152113851Y-76136149D01*
X152207856Y-76213296D01*
X152315105Y-76270622D01*
X152431477Y-76305923D01*
X152552500Y-76317843D01*
X153052500Y-76317843D01*
X153173523Y-76305923D01*
X153289895Y-76270622D01*
X153397144Y-76213296D01*
X153491149Y-76136149D01*
X153568296Y-76042144D01*
X153608996Y-75966000D01*
X154280409Y-75966000D01*
X154494001Y-76179592D01*
X154494000Y-76790408D01*
X154040409Y-77244000D01*
X152532843Y-77244000D01*
X152532843Y-77050000D01*
X152525487Y-76975311D01*
X152503701Y-76903492D01*
X152468322Y-76837304D01*
X152420711Y-76779289D01*
X152362696Y-76731678D01*
X152296508Y-76696299D01*
X152224689Y-76674513D01*
X152150000Y-76667157D01*
X150550000Y-76667157D01*
X150475311Y-76674513D01*
X150403492Y-76696299D01*
X150337304Y-76731678D01*
X150279289Y-76779289D01*
X150231678Y-76837304D01*
X150196299Y-76903492D01*
X150174513Y-76975311D01*
X150167157Y-77050000D01*
X150167157Y-78450000D01*
X150174513Y-78524689D01*
X150196299Y-78596508D01*
X150231678Y-78662696D01*
X150279289Y-78720711D01*
X150337304Y-78768322D01*
X150403492Y-78803701D01*
X150475311Y-78825487D01*
X150550000Y-78832843D01*
X152150000Y-78832843D01*
X152224689Y-78825487D01*
X152296508Y-78803701D01*
X152362696Y-78768322D01*
X152420711Y-78720711D01*
X152468322Y-78662696D01*
X152503701Y-78596508D01*
X152525487Y-78524689D01*
X152532843Y-78450000D01*
X152532843Y-78256000D01*
X154225154Y-78256000D01*
X154250000Y-78258447D01*
X154274846Y-78256000D01*
X154274854Y-78256000D01*
X154349193Y-78248678D01*
X154444575Y-78219745D01*
X154532479Y-78172759D01*
X154609527Y-78109527D01*
X154625376Y-78090215D01*
X155340220Y-77375372D01*
X155359527Y-77359527D01*
X155422759Y-77282479D01*
X155469745Y-77194575D01*
X155484388Y-77146302D01*
X155494001Y-77114612D01*
X155494001Y-83768409D01*
X155455376Y-83729785D01*
X155439527Y-83710473D01*
X155362479Y-83647241D01*
X155274575Y-83600255D01*
X155179193Y-83571322D01*
X155104854Y-83564000D01*
X155104846Y-83564000D01*
X155080000Y-83561553D01*
X155055154Y-83564000D01*
X135028501Y-83564000D01*
X134927859Y-83463358D01*
X134799942Y-83377887D01*
X134657809Y-83319013D01*
X134506922Y-83289000D01*
X134353078Y-83289000D01*
X134202191Y-83319013D01*
X134060058Y-83377887D01*
X133932141Y-83463358D01*
X133831499Y-83564000D01*
X133769592Y-83564000D01*
X133196000Y-82990409D01*
X133196000Y-81550000D01*
X150167157Y-81550000D01*
X150167157Y-82950000D01*
X150174513Y-83024689D01*
X150196299Y-83096508D01*
X150231678Y-83162696D01*
X150279289Y-83220711D01*
X150337304Y-83268322D01*
X150403492Y-83303701D01*
X150475311Y-83325487D01*
X150550000Y-83332843D01*
X152150000Y-83332843D01*
X152224689Y-83325487D01*
X152296508Y-83303701D01*
X152362696Y-83268322D01*
X152420711Y-83220711D01*
X152468322Y-83162696D01*
X152503701Y-83096508D01*
X152525487Y-83024689D01*
X152532843Y-82950000D01*
X152532843Y-81550000D01*
X152525487Y-81475311D01*
X152503701Y-81403492D01*
X152468322Y-81337304D01*
X152420711Y-81279289D01*
X152362696Y-81231678D01*
X152296508Y-81196299D01*
X152224689Y-81174513D01*
X152150000Y-81167157D01*
X150550000Y-81167157D01*
X150475311Y-81174513D01*
X150403492Y-81196299D01*
X150337304Y-81231678D01*
X150279289Y-81279289D01*
X150231678Y-81337304D01*
X150196299Y-81403492D01*
X150174513Y-81475311D01*
X150167157Y-81550000D01*
X133196000Y-81550000D01*
X133196000Y-78378501D01*
X133296642Y-78277859D01*
X133382113Y-78149942D01*
X133440987Y-78007809D01*
X133471000Y-77856922D01*
X133471000Y-77703078D01*
X133440987Y-77552191D01*
X133382113Y-77410058D01*
X133296642Y-77282141D01*
X133187859Y-77173358D01*
X133059942Y-77087887D01*
X132917809Y-77029013D01*
X132766922Y-76999000D01*
X132613078Y-76999000D01*
X132462191Y-77029013D01*
X132320058Y-77087887D01*
X132192141Y-77173358D01*
X132083358Y-77282141D01*
X131997887Y-77410058D01*
X131939013Y-77552191D01*
X131909000Y-77703078D01*
X131909000Y-77856922D01*
X131939013Y-78007809D01*
X131997887Y-78149942D01*
X132083358Y-78277859D01*
X132184001Y-78378502D01*
X132184000Y-81824853D01*
X132184001Y-81824863D01*
X132184000Y-83175153D01*
X132181553Y-83200000D01*
X132184000Y-83224846D01*
X132184000Y-83224853D01*
X132191322Y-83299192D01*
X132220255Y-83394574D01*
X132267241Y-83482479D01*
X132330473Y-83559527D01*
X132349785Y-83575376D01*
X133184628Y-84410220D01*
X133200473Y-84429527D01*
X133277521Y-84492759D01*
X133365425Y-84539745D01*
X133460807Y-84568678D01*
X133560000Y-84578448D01*
X133584854Y-84576000D01*
X133831499Y-84576000D01*
X133874499Y-84619000D01*
X123469002Y-84619000D01*
X123376302Y-84628130D01*
X123257358Y-84664211D01*
X123147739Y-84722804D01*
X123121912Y-84744000D01*
X122364389Y-84744000D01*
X124170220Y-82938170D01*
X124189527Y-82922325D01*
X124252759Y-82845277D01*
X124299745Y-82757373D01*
X124314601Y-82708397D01*
X124328678Y-82661992D01*
X124330537Y-82643114D01*
X124336000Y-82587652D01*
X124336000Y-82587645D01*
X124338447Y-82562799D01*
X124336000Y-82537953D01*
X124336000Y-78508501D01*
X124436642Y-78407859D01*
X124522113Y-78279942D01*
X124580987Y-78137809D01*
X124611000Y-77986922D01*
X124611000Y-77833078D01*
X124580987Y-77682191D01*
X124522113Y-77540058D01*
X124436642Y-77412141D01*
X124327859Y-77303358D01*
X124199942Y-77217887D01*
X124057809Y-77159013D01*
X123906922Y-77129000D01*
X123753078Y-77129000D01*
X123610999Y-77157261D01*
X123610999Y-73134592D01*
X123769592Y-72976000D01*
X134111499Y-72976000D01*
X134212141Y-73076642D01*
X134340058Y-73162113D01*
X134482191Y-73220987D01*
X134633078Y-73251000D01*
X134786922Y-73251000D01*
X134937809Y-73220987D01*
X135079942Y-73162113D01*
X135207859Y-73076642D01*
X135316642Y-72967859D01*
X135402113Y-72839942D01*
X135460987Y-72697809D01*
X135491000Y-72546922D01*
X135491000Y-72393078D01*
X135460987Y-72242191D01*
X135402113Y-72100058D01*
X135316642Y-71972141D01*
X135207859Y-71863358D01*
X135170418Y-71838341D01*
X135217859Y-71806642D01*
X135326642Y-71697859D01*
X135412113Y-71569942D01*
X135470987Y-71427809D01*
X135501000Y-71276922D01*
X135501000Y-71123078D01*
X135470987Y-70972191D01*
X135412113Y-70830058D01*
X135326642Y-70702141D01*
X135217859Y-70593358D01*
X135089942Y-70507887D01*
X134947809Y-70449013D01*
X134796922Y-70419000D01*
X134643078Y-70419000D01*
X134492191Y-70449013D01*
X134350058Y-70507887D01*
X134222141Y-70593358D01*
X134121499Y-70694000D01*
X133091582Y-70694000D01*
X133220220Y-70565362D01*
X133239527Y-70549517D01*
X133302759Y-70472469D01*
X133349745Y-70384565D01*
X133378678Y-70289183D01*
X133386000Y-70214844D01*
X133386000Y-70214843D01*
X133388448Y-70189990D01*
X133386000Y-70165136D01*
X133386000Y-69328501D01*
X133486642Y-69227859D01*
X133572113Y-69099942D01*
X133630987Y-68957809D01*
X133661000Y-68806922D01*
X133661000Y-68653078D01*
X133630987Y-68502191D01*
X133572113Y-68360058D01*
X133486642Y-68232141D01*
X133377859Y-68123358D01*
X133249942Y-68037887D01*
X133107809Y-67979013D01*
X132956922Y-67949000D01*
X132803078Y-67949000D01*
X132652191Y-67979013D01*
X132510058Y-68037887D01*
X132382141Y-68123358D01*
X132315000Y-68190499D01*
X132287859Y-68163358D01*
X132159942Y-68077887D01*
X132017809Y-68019013D01*
X131866922Y-67989000D01*
X131713078Y-67989000D01*
X131562191Y-68019013D01*
X131420058Y-68077887D01*
X131292141Y-68163358D01*
X131183358Y-68272141D01*
X131097887Y-68400058D01*
X131039013Y-68542191D01*
X131009000Y-68693078D01*
X131009000Y-68846922D01*
X131039013Y-68997809D01*
X131097887Y-69139942D01*
X131183358Y-69267859D01*
X131284000Y-69368501D01*
X131284000Y-69570389D01*
X131060408Y-69793982D01*
X122892043Y-69793982D01*
X122867197Y-69791535D01*
X122842351Y-69793982D01*
X122842344Y-69793982D01*
X122777892Y-69800330D01*
X122768004Y-69801304D01*
X122745805Y-69808038D01*
X122672623Y-69830237D01*
X122584719Y-69877223D01*
X122507671Y-69940455D01*
X122491827Y-69959761D01*
X121414749Y-71036840D01*
X121395443Y-71052684D01*
X121332211Y-71129732D01*
X121309218Y-71172748D01*
X121285224Y-71217637D01*
X121256291Y-71313019D01*
X121246522Y-71412211D01*
X121248970Y-71437067D01*
X121248969Y-72936603D01*
X121241524Y-73012198D01*
X121243972Y-73037054D01*
X121243971Y-81887595D01*
X120987607Y-82143960D01*
X117411632Y-82143960D01*
X117520220Y-82035372D01*
X117539527Y-82019527D01*
X117602759Y-81942479D01*
X117649745Y-81854575D01*
X117678678Y-81759193D01*
X117686000Y-81684854D01*
X117688448Y-81660000D01*
X117686000Y-81635146D01*
X117686000Y-75791000D01*
X117796922Y-75791000D01*
X117947809Y-75760987D01*
X118089942Y-75702113D01*
X118217859Y-75616642D01*
X118326642Y-75507859D01*
X118412113Y-75379942D01*
X118470987Y-75237809D01*
X118501000Y-75086922D01*
X118501000Y-74933078D01*
X118470987Y-74782191D01*
X118412113Y-74640058D01*
X118326642Y-74512141D01*
X118217859Y-74403358D01*
X118089942Y-74317887D01*
X117947809Y-74259013D01*
X117796922Y-74229000D01*
X117643078Y-74229000D01*
X117492191Y-74259013D01*
X117350058Y-74317887D01*
X117222141Y-74403358D01*
X117113358Y-74512141D01*
X117027887Y-74640058D01*
X116969013Y-74782191D01*
X116939000Y-74933078D01*
X116939000Y-75075409D01*
X116839785Y-75174624D01*
X116820473Y-75190473D01*
X116757241Y-75267521D01*
X116710255Y-75355426D01*
X116681322Y-75450808D01*
X116674000Y-75525147D01*
X116674000Y-75525154D01*
X116671553Y-75550000D01*
X116674000Y-75574846D01*
X116674001Y-81450407D01*
X116430459Y-81693950D01*
X112462854Y-81693952D01*
X112437998Y-81691504D01*
X112338805Y-81701273D01*
X112243424Y-81730206D01*
X112155520Y-81777193D01*
X112097777Y-81824581D01*
X112097773Y-81824585D01*
X112078472Y-81840425D01*
X112062632Y-81859726D01*
X109855980Y-84066379D01*
X109855980Y-70088500D01*
X109956622Y-69987858D01*
X110042093Y-69859941D01*
X110100967Y-69717808D01*
X110130980Y-69566921D01*
X110130980Y-69413077D01*
X110100967Y-69262190D01*
X110042093Y-69120057D01*
X109956622Y-68992140D01*
X109855980Y-68891498D01*
X109855980Y-68459611D01*
X110419592Y-67896000D01*
X133981499Y-67896000D01*
X134082141Y-67996642D01*
X134210058Y-68082113D01*
X134352191Y-68140987D01*
X134503078Y-68171000D01*
X134656922Y-68171000D01*
X134807809Y-68140987D01*
X134949942Y-68082113D01*
X135077859Y-67996642D01*
X135186642Y-67887859D01*
X135272113Y-67759942D01*
X135330987Y-67617809D01*
X135361000Y-67466922D01*
X135361000Y-67313078D01*
X135330987Y-67162191D01*
X135272113Y-67020058D01*
X135186642Y-66892141D01*
X135077859Y-66783358D01*
X134949942Y-66697887D01*
X134807809Y-66639013D01*
X134656922Y-66609000D01*
X134506663Y-66609000D01*
X134521000Y-66536922D01*
X134521000Y-66383078D01*
X134490987Y-66232191D01*
X134432113Y-66090058D01*
X134346642Y-65962141D01*
X134237859Y-65853358D01*
X134109942Y-65767887D01*
X134085024Y-65757566D01*
X134560220Y-65282370D01*
X134579527Y-65266525D01*
X134642759Y-65189477D01*
X134689745Y-65101573D01*
X134705456Y-65049779D01*
X134718678Y-65006192D01*
X134722514Y-64967241D01*
X134726000Y-64931852D01*
X134726000Y-64931845D01*
X134728447Y-64906999D01*
X134726000Y-64882153D01*
X134726000Y-60569591D01*
X134744591Y-60551000D01*
X134886922Y-60551000D01*
X135037809Y-60520987D01*
X135179942Y-60462113D01*
X135307859Y-60376642D01*
X135416642Y-60267859D01*
X135502113Y-60139942D01*
X135560987Y-59997809D01*
X135591000Y-59846922D01*
X135591000Y-59693078D01*
X135560987Y-59542191D01*
X135502113Y-59400058D01*
X135416642Y-59272141D01*
X135307859Y-59163358D01*
X135179942Y-59077887D01*
X135037809Y-59019013D01*
X134886922Y-58989000D01*
X134733078Y-58989000D01*
X134582191Y-59019013D01*
X134440058Y-59077887D01*
X134312141Y-59163358D01*
X134203358Y-59272141D01*
X134117887Y-59400058D01*
X134059013Y-59542191D01*
X134029000Y-59693078D01*
X134029000Y-59835409D01*
X133879785Y-59984624D01*
X133860473Y-60000473D01*
X133797241Y-60077521D01*
X133750255Y-60165426D01*
X133721322Y-60260808D01*
X133714000Y-60335147D01*
X133714000Y-60335154D01*
X133711553Y-60360000D01*
X133714000Y-60384846D01*
X133714001Y-64697405D01*
X132907417Y-65503990D01*
X109972739Y-65503990D01*
X110001000Y-65361912D01*
X110001000Y-65208068D01*
X109970987Y-65057181D01*
X109912113Y-64915048D01*
X109826642Y-64787131D01*
X109717859Y-64678348D01*
X109589942Y-64592877D01*
X109447809Y-64534003D01*
X109296922Y-64503990D01*
X109143078Y-64503990D01*
X108992191Y-64534003D01*
X108850058Y-64592877D01*
X108722141Y-64678348D01*
X108613358Y-64787131D01*
X108548633Y-64884000D01*
X106978501Y-64884000D01*
X106877859Y-64783358D01*
X106749942Y-64697887D01*
X106607809Y-64639013D01*
X106456922Y-64609000D01*
X106303078Y-64609000D01*
X106152191Y-64639013D01*
X106010058Y-64697887D01*
X105882141Y-64783358D01*
X105773358Y-64892141D01*
X105687887Y-65020058D01*
X105629013Y-65162191D01*
X105599000Y-65313078D01*
X105599000Y-65466922D01*
X105629013Y-65617809D01*
X105687887Y-65759942D01*
X105773358Y-65887859D01*
X105882141Y-65996642D01*
X106010058Y-66082113D01*
X106152191Y-66140987D01*
X106303078Y-66171000D01*
X106456922Y-66171000D01*
X106607809Y-66140987D01*
X106749942Y-66082113D01*
X106819461Y-66035662D01*
X106794013Y-66097099D01*
X106764000Y-66247986D01*
X106764000Y-66390317D01*
X106559785Y-66594532D01*
X106540473Y-66610381D01*
X106477241Y-66687429D01*
X106430255Y-66775334D01*
X106401322Y-66870716D01*
X106394000Y-66945055D01*
X106394000Y-66945062D01*
X106391553Y-66969908D01*
X106394000Y-66994754D01*
X106394001Y-87060407D01*
X105866819Y-87587590D01*
X97731255Y-87587590D01*
X97706409Y-87585143D01*
X97681563Y-87587590D01*
X97681556Y-87587590D01*
X97617104Y-87593938D01*
X97607216Y-87594912D01*
X97556745Y-87610222D01*
X97511835Y-87623845D01*
X97423931Y-87670831D01*
X97346883Y-87734063D01*
X97331039Y-87753369D01*
X96249780Y-88834629D01*
X96230474Y-88850473D01*
X96167242Y-88927521D01*
X96147073Y-88965254D01*
X96120255Y-89015426D01*
X96091322Y-89110808D01*
X96081553Y-89210000D01*
X96084001Y-89234856D01*
X96084000Y-92327167D01*
X96006903Y-92359102D01*
X95805283Y-92493820D01*
X95633820Y-92665283D01*
X95536927Y-92810294D01*
X95538072Y-92600000D01*
X95525812Y-92475518D01*
X95489502Y-92355820D01*
X95430537Y-92245506D01*
X95351185Y-92148815D01*
X95254494Y-92069463D01*
X95144180Y-92010498D01*
X95024482Y-91974188D01*
X94900000Y-91961928D01*
X94335750Y-91965000D01*
X94177000Y-92123750D01*
X94177000Y-93323000D01*
X94197000Y-93323000D01*
X94197000Y-93577000D01*
X94177000Y-93577000D01*
X94177000Y-93597000D01*
X93923000Y-93597000D01*
X93923000Y-93577000D01*
X92723750Y-93577000D01*
X92565000Y-93735750D01*
X92561928Y-94300000D01*
X92574188Y-94424482D01*
X92610498Y-94544180D01*
X92669463Y-94654494D01*
X92748815Y-94751185D01*
X92845506Y-94830537D01*
X92955820Y-94889502D01*
X93075518Y-94925812D01*
X93200000Y-94938072D01*
X93410294Y-94936927D01*
X93265283Y-95033820D01*
X93093820Y-95205283D01*
X92959102Y-95406903D01*
X92866307Y-95630931D01*
X92819000Y-95868757D01*
X92819000Y-96111243D01*
X92866307Y-96349069D01*
X92959102Y-96573097D01*
X93093820Y-96774717D01*
X93265283Y-96946180D01*
X93466903Y-97080898D01*
X93690931Y-97173693D01*
X93928757Y-97221000D01*
X94171243Y-97221000D01*
X94409069Y-97173693D01*
X94633097Y-97080898D01*
X94834717Y-96946180D01*
X95006180Y-96774717D01*
X95140898Y-96573097D01*
X95233693Y-96349069D01*
X95281000Y-96111243D01*
X95281000Y-95868757D01*
X95233693Y-95630931D01*
X95140898Y-95406903D01*
X95006180Y-95205283D01*
X94834717Y-95033820D01*
X94689706Y-94936927D01*
X94900000Y-94938072D01*
X95024482Y-94925812D01*
X95144180Y-94889502D01*
X95254494Y-94830537D01*
X95351185Y-94751185D01*
X95430537Y-94654494D01*
X95489502Y-94544180D01*
X95525812Y-94424482D01*
X95538072Y-94300000D01*
X95536927Y-94089706D01*
X95633820Y-94234717D01*
X95805283Y-94406180D01*
X96006903Y-94540898D01*
X96230931Y-94633693D01*
X96468757Y-94681000D01*
X96711243Y-94681000D01*
X96949069Y-94633693D01*
X97173097Y-94540898D01*
X97259002Y-94483498D01*
X97259002Y-94605406D01*
X97026167Y-94838242D01*
X96949069Y-94806307D01*
X96711243Y-94759000D01*
X96468757Y-94759000D01*
X96230931Y-94806307D01*
X96006903Y-94899102D01*
X95805283Y-95033820D01*
X95633820Y-95205283D01*
X95499102Y-95406903D01*
X95406307Y-95630931D01*
X95359000Y-95868757D01*
X95359000Y-96111243D01*
X95406307Y-96349069D01*
X95499102Y-96573097D01*
X95633820Y-96774717D01*
X95805283Y-96946180D01*
X96006903Y-97080898D01*
X96230931Y-97173693D01*
X96468757Y-97221000D01*
X96711243Y-97221000D01*
X96949069Y-97173693D01*
X97173097Y-97080898D01*
X97374717Y-96946180D01*
X97546180Y-96774717D01*
X97680898Y-96573097D01*
X97728228Y-96458832D01*
X97785843Y-96621252D01*
X97934822Y-96871355D01*
X98129731Y-97087588D01*
X98363080Y-97261641D01*
X98625901Y-97386825D01*
X98773110Y-97431476D01*
X99003000Y-97310155D01*
X99003000Y-96117000D01*
X98983000Y-96117000D01*
X98983000Y-95863000D01*
X99003000Y-95863000D01*
X99003000Y-95843000D01*
X99257000Y-95843000D01*
X99257000Y-95863000D01*
X99277000Y-95863000D01*
X99277000Y-96117000D01*
X99257000Y-96117000D01*
X99257000Y-97310155D01*
X99486890Y-97431476D01*
X99634099Y-97386825D01*
X99896920Y-97261641D01*
X100130269Y-97087588D01*
X100325178Y-96871355D01*
X100474157Y-96621252D01*
X100531772Y-96458832D01*
X100579102Y-96573097D01*
X100713820Y-96774717D01*
X100885283Y-96946180D01*
X101086903Y-97080898D01*
X101187514Y-97122572D01*
X101200255Y-97164574D01*
X101247241Y-97252479D01*
X101310473Y-97329527D01*
X101329785Y-97345376D01*
X101844628Y-97860220D01*
X101860473Y-97879527D01*
X101937521Y-97942759D01*
X102025425Y-97989745D01*
X102098607Y-98011944D01*
X102120806Y-98018678D01*
X102130694Y-98019652D01*
X102195146Y-98026000D01*
X102195153Y-98026000D01*
X102219999Y-98028447D01*
X102244845Y-98026000D01*
X111035154Y-98026000D01*
X111060000Y-98028447D01*
X111084846Y-98026000D01*
X111084854Y-98026000D01*
X111159193Y-98018678D01*
X111254575Y-97989745D01*
X111342479Y-97942759D01*
X111419527Y-97879527D01*
X111435376Y-97860215D01*
X112410220Y-96885372D01*
X112429527Y-96869527D01*
X112492759Y-96792479D01*
X112539745Y-96704575D01*
X112568678Y-96609193D01*
X112576000Y-96534854D01*
X112578448Y-96510000D01*
X112576000Y-96485146D01*
X112576000Y-94590000D01*
X113537157Y-94590000D01*
X113537157Y-96590000D01*
X113544513Y-96664689D01*
X113566299Y-96736508D01*
X113601678Y-96802696D01*
X113649289Y-96860711D01*
X113707304Y-96908322D01*
X113773492Y-96943701D01*
X113845311Y-96965487D01*
X113920000Y-96972843D01*
X114166074Y-96972843D01*
X114039664Y-97057307D01*
X113847307Y-97249664D01*
X113696174Y-97475851D01*
X113592071Y-97727177D01*
X113539000Y-97993983D01*
X113539000Y-98266017D01*
X113592071Y-98532823D01*
X113696174Y-98784149D01*
X113847307Y-99010336D01*
X114039664Y-99202693D01*
X114265851Y-99353826D01*
X114517177Y-99457929D01*
X114783983Y-99511000D01*
X115056017Y-99511000D01*
X115322823Y-99457929D01*
X115574149Y-99353826D01*
X115800336Y-99202693D01*
X115992693Y-99010336D01*
X116143826Y-98784149D01*
X116247929Y-98532823D01*
X116301000Y-98266017D01*
X116301000Y-97993983D01*
X116247929Y-97727177D01*
X116143826Y-97475851D01*
X115992693Y-97249664D01*
X115800336Y-97057307D01*
X115673926Y-96972843D01*
X115920000Y-96972843D01*
X115994689Y-96965487D01*
X116066508Y-96943701D01*
X116132696Y-96908322D01*
X116190711Y-96860711D01*
X116238322Y-96802696D01*
X116273701Y-96736508D01*
X116295487Y-96664689D01*
X116302843Y-96590000D01*
X116302843Y-94590000D01*
X116295487Y-94515311D01*
X116273701Y-94443492D01*
X116238322Y-94377304D01*
X116190711Y-94319289D01*
X116132696Y-94271678D01*
X116066508Y-94236299D01*
X115994689Y-94214513D01*
X115920000Y-94207157D01*
X113920000Y-94207157D01*
X113845311Y-94214513D01*
X113773492Y-94236299D01*
X113707304Y-94271678D01*
X113649289Y-94319289D01*
X113601678Y-94377304D01*
X113566299Y-94443492D01*
X113544513Y-94515311D01*
X113537157Y-94590000D01*
X112576000Y-94590000D01*
X112576000Y-90361143D01*
X112672191Y-90400987D01*
X112823078Y-90431000D01*
X112976922Y-90431000D01*
X113127809Y-90400987D01*
X113269942Y-90342113D01*
X113397859Y-90256642D01*
X113506642Y-90147859D01*
X113592113Y-90019942D01*
X113650987Y-89877809D01*
X113681000Y-89726922D01*
X113681000Y-89573078D01*
X113650987Y-89422191D01*
X113592113Y-89280058D01*
X113506642Y-89152141D01*
X113406000Y-89051499D01*
X113406000Y-86359591D01*
X114009592Y-85756000D01*
X122286697Y-85756000D01*
X122277242Y-85767521D01*
X122252127Y-85814508D01*
X122230255Y-85855426D01*
X122201322Y-85950808D01*
X122191553Y-86050000D01*
X122194001Y-86074856D01*
X122194000Y-89051499D01*
X122093358Y-89152141D01*
X122007887Y-89280058D01*
X121949013Y-89422191D01*
X121919000Y-89573078D01*
X121919000Y-89726922D01*
X121949013Y-89877809D01*
X122007887Y-90019942D01*
X122093358Y-90147859D01*
X122202141Y-90256642D01*
X122330058Y-90342113D01*
X122472191Y-90400987D01*
X122623078Y-90431000D01*
X122776922Y-90431000D01*
X122927809Y-90400987D01*
X123069942Y-90342113D01*
X123197859Y-90256642D01*
X123306642Y-90147859D01*
X123392113Y-90019942D01*
X123450987Y-89877809D01*
X123481000Y-89726922D01*
X123481000Y-89573078D01*
X123450987Y-89422191D01*
X123392113Y-89280058D01*
X123306642Y-89152141D01*
X123206000Y-89051499D01*
X123206000Y-86259591D01*
X123584592Y-85881000D01*
X132022497Y-85881000D01*
X132001322Y-85950808D01*
X131991553Y-86050000D01*
X131994001Y-86074856D01*
X131994000Y-89051499D01*
X131893358Y-89152141D01*
X131807887Y-89280058D01*
X131749013Y-89422191D01*
X131719000Y-89573078D01*
X131719000Y-89726922D01*
X131749013Y-89877809D01*
X131807887Y-90019942D01*
X131893358Y-90147859D01*
X132002141Y-90256642D01*
X132130058Y-90342113D01*
X132272191Y-90400987D01*
X132423078Y-90431000D01*
X132576922Y-90431000D01*
X132727809Y-90400987D01*
X132869942Y-90342113D01*
X132997859Y-90256642D01*
X133106642Y-90147859D01*
X133192113Y-90019942D01*
X133250987Y-89877809D01*
X133281000Y-89726922D01*
X133281000Y-89573078D01*
X133250987Y-89422191D01*
X133192113Y-89280058D01*
X133106642Y-89152141D01*
X133006000Y-89051499D01*
X133006000Y-86259591D01*
X133384592Y-85881000D01*
X142538595Y-85881000D01*
X142630058Y-85942113D01*
X142772191Y-86000987D01*
X142923078Y-86031000D01*
X143076922Y-86031000D01*
X143227809Y-86000987D01*
X143369942Y-85942113D01*
X143497859Y-85856642D01*
X143606642Y-85747859D01*
X143692113Y-85619942D01*
X143750987Y-85477809D01*
X143781000Y-85326922D01*
X143781000Y-85173078D01*
X143750987Y-85022191D01*
X143692113Y-84880058D01*
X143606642Y-84752141D01*
X143497859Y-84643358D01*
X143397050Y-84576000D01*
X154870409Y-84576000D01*
X154994001Y-84699593D01*
X154994000Y-96790408D01*
X154540409Y-97244000D01*
X152532843Y-97244000D01*
X152532843Y-97050000D01*
X152525487Y-96975311D01*
X152503701Y-96903492D01*
X152468322Y-96837304D01*
X152420711Y-96779289D01*
X152362696Y-96731678D01*
X152296508Y-96696299D01*
X152224689Y-96674513D01*
X152150000Y-96667157D01*
X150550000Y-96667157D01*
X150475311Y-96674513D01*
X150403492Y-96696299D01*
X150337304Y-96731678D01*
X150279289Y-96779289D01*
X150231678Y-96837304D01*
X150196299Y-96903492D01*
X150174513Y-96975311D01*
X150167157Y-97050000D01*
X150167157Y-97241500D01*
X150110677Y-97241500D01*
X150063296Y-97152856D01*
X149986149Y-97058851D01*
X149892144Y-96981704D01*
X149784895Y-96924378D01*
X149668523Y-96889077D01*
X149547500Y-96877157D01*
X149072500Y-96877157D01*
X148951477Y-96889077D01*
X148835105Y-96924378D01*
X148727856Y-96981704D01*
X148633851Y-97058851D01*
X148556704Y-97152856D01*
X148499378Y-97260105D01*
X148464077Y-97376477D01*
X148452157Y-97497500D01*
X148452157Y-97997500D01*
X148464077Y-98118523D01*
X148499378Y-98234895D01*
X148556704Y-98342144D01*
X148633851Y-98436149D01*
X148675039Y-98469951D01*
X148590820Y-98495498D01*
X148480506Y-98554463D01*
X148383815Y-98633815D01*
X148304463Y-98730506D01*
X148245498Y-98840820D01*
X148209188Y-98960518D01*
X148196928Y-99085000D01*
X148200000Y-99286750D01*
X148358750Y-99445500D01*
X149183000Y-99445500D01*
X149183000Y-99425500D01*
X149437000Y-99425500D01*
X149437000Y-99445500D01*
X150261250Y-99445500D01*
X150420000Y-99286750D01*
X150423072Y-99085000D01*
X150410812Y-98960518D01*
X150374502Y-98840820D01*
X150334536Y-98766051D01*
X150337304Y-98768322D01*
X150403492Y-98803701D01*
X150475311Y-98825487D01*
X150550000Y-98832843D01*
X152150000Y-98832843D01*
X152224689Y-98825487D01*
X152296508Y-98803701D01*
X152362696Y-98768322D01*
X152420711Y-98720711D01*
X152468322Y-98662696D01*
X152503701Y-98596508D01*
X152525487Y-98524689D01*
X152532843Y-98450000D01*
X152532843Y-98256000D01*
X154725154Y-98256000D01*
X154750000Y-98258447D01*
X154774846Y-98256000D01*
X154774854Y-98256000D01*
X154849193Y-98248678D01*
X154944575Y-98219745D01*
X155032479Y-98172759D01*
X155109527Y-98109527D01*
X155125376Y-98090215D01*
X155750000Y-97465592D01*
X156374628Y-98090220D01*
X156390473Y-98109527D01*
X156467521Y-98172759D01*
X156550748Y-98217245D01*
X156555425Y-98219745D01*
X156650806Y-98248678D01*
X156660694Y-98249652D01*
X156725146Y-98256000D01*
X156725153Y-98256000D01*
X156749999Y-98258447D01*
X156774845Y-98256000D01*
X158167157Y-98256000D01*
X158167157Y-98450000D01*
X158174513Y-98524689D01*
X158196299Y-98596508D01*
X158231678Y-98662696D01*
X158279289Y-98720711D01*
X158337304Y-98768322D01*
X158403492Y-98803701D01*
X158475311Y-98825487D01*
X158550000Y-98832843D01*
X160150000Y-98832843D01*
X160224689Y-98825487D01*
X160296508Y-98803701D01*
X160362696Y-98768322D01*
X160420711Y-98720711D01*
X160468322Y-98662696D01*
X160503701Y-98596508D01*
X160525487Y-98524689D01*
X160532843Y-98450000D01*
X160532843Y-97050000D01*
X160525487Y-96975311D01*
X160503701Y-96903492D01*
X160468322Y-96837304D01*
X160420711Y-96779289D01*
X160362696Y-96731678D01*
X160296508Y-96696299D01*
X160224689Y-96674513D01*
X160150000Y-96667157D01*
X158550000Y-96667157D01*
X158475311Y-96674513D01*
X158403492Y-96696299D01*
X158337304Y-96731678D01*
X158279289Y-96779289D01*
X158231678Y-96837304D01*
X158196299Y-96903492D01*
X158174513Y-96975311D01*
X158167157Y-97050000D01*
X158167157Y-97244000D01*
X156959592Y-97244000D01*
X156506000Y-96790409D01*
X156506000Y-81550000D01*
X158167157Y-81550000D01*
X158167157Y-82950000D01*
X158174513Y-83024689D01*
X158196299Y-83096508D01*
X158231678Y-83162696D01*
X158279289Y-83220711D01*
X158337304Y-83268322D01*
X158403492Y-83303701D01*
X158475311Y-83325487D01*
X158550000Y-83332843D01*
X160150000Y-83332843D01*
X160224689Y-83325487D01*
X160296508Y-83303701D01*
X160362696Y-83268322D01*
X160420711Y-83220711D01*
X160468322Y-83162696D01*
X160503701Y-83096508D01*
X160525487Y-83024689D01*
X160532843Y-82950000D01*
X160532843Y-81550000D01*
X160525487Y-81475311D01*
X160503701Y-81403492D01*
X160468322Y-81337304D01*
X160420711Y-81279289D01*
X160362696Y-81231678D01*
X160296508Y-81196299D01*
X160224689Y-81174513D01*
X160150000Y-81167157D01*
X158550000Y-81167157D01*
X158475311Y-81174513D01*
X158403492Y-81196299D01*
X158337304Y-81231678D01*
X158279289Y-81279289D01*
X158231678Y-81337304D01*
X158196299Y-81403492D01*
X158174513Y-81475311D01*
X158167157Y-81550000D01*
X156506000Y-81550000D01*
X156506000Y-78193327D01*
X156555425Y-78219745D01*
X156650806Y-78248678D01*
X156660694Y-78249652D01*
X156725146Y-78256000D01*
X156725153Y-78256000D01*
X156749999Y-78258447D01*
X156774845Y-78256000D01*
X158167157Y-78256000D01*
X158167157Y-78450000D01*
X158174513Y-78524689D01*
X158196299Y-78596508D01*
X158231678Y-78662696D01*
X158279289Y-78720711D01*
X158337304Y-78768322D01*
X158403492Y-78803701D01*
X158475311Y-78825487D01*
X158550000Y-78832843D01*
X160150000Y-78832843D01*
X160224689Y-78825487D01*
X160296508Y-78803701D01*
X160362696Y-78768322D01*
X160420711Y-78720711D01*
X160468322Y-78662696D01*
X160503701Y-78596508D01*
X160525487Y-78524689D01*
X160532843Y-78450000D01*
X160532843Y-77050000D01*
X160525487Y-76975311D01*
X160503701Y-76903492D01*
X160468322Y-76837304D01*
X160420711Y-76779289D01*
X160362696Y-76731678D01*
X160296508Y-76696299D01*
X160224689Y-76674513D01*
X160150000Y-76667157D01*
X158550000Y-76667157D01*
X158475311Y-76674513D01*
X158403492Y-76696299D01*
X158337304Y-76731678D01*
X158279289Y-76779289D01*
X158231678Y-76837304D01*
X158196299Y-76903492D01*
X158174513Y-76975311D01*
X158167157Y-77050000D01*
X158167157Y-77244000D01*
X156959592Y-77244000D01*
X156506000Y-76790409D01*
X156506000Y-61550000D01*
X157817157Y-61550000D01*
X157817157Y-62950000D01*
X157824513Y-63024689D01*
X157846299Y-63096508D01*
X157881678Y-63162696D01*
X157929289Y-63220711D01*
X157987304Y-63268322D01*
X158053492Y-63303701D01*
X158125311Y-63325487D01*
X158200000Y-63332843D01*
X159800000Y-63332843D01*
X159874689Y-63325487D01*
X159946508Y-63303701D01*
X160012696Y-63268322D01*
X160070711Y-63220711D01*
X160118322Y-63162696D01*
X160153701Y-63096508D01*
X160175487Y-63024689D01*
X160182843Y-62950000D01*
X160182843Y-61550000D01*
X160175487Y-61475311D01*
X160153701Y-61403492D01*
X160118322Y-61337304D01*
X160070711Y-61279289D01*
X160012696Y-61231678D01*
X159946508Y-61196299D01*
X159874689Y-61174513D01*
X159800000Y-61167157D01*
X158200000Y-61167157D01*
X158125311Y-61174513D01*
X158053492Y-61196299D01*
X157987304Y-61231678D01*
X157929289Y-61279289D01*
X157881678Y-61337304D01*
X157846299Y-61403492D01*
X157824513Y-61475311D01*
X157817157Y-61550000D01*
X156506000Y-61550000D01*
X156506000Y-58709591D01*
X156959592Y-58256000D01*
X157817157Y-58256000D01*
X157817157Y-58450000D01*
X157824513Y-58524689D01*
X157846299Y-58596508D01*
X157881678Y-58662696D01*
X157929289Y-58720711D01*
X157987304Y-58768322D01*
X158053492Y-58803701D01*
X158125311Y-58825487D01*
X158200000Y-58832843D01*
X159800000Y-58832843D01*
X159874689Y-58825487D01*
X159946508Y-58803701D01*
X160012696Y-58768322D01*
X160070711Y-58720711D01*
X160118322Y-58662696D01*
X160153701Y-58596508D01*
X160175487Y-58524689D01*
X160182843Y-58450000D01*
X160182843Y-57050000D01*
X160175487Y-56975311D01*
X160153701Y-56903492D01*
X160118322Y-56837304D01*
X160070711Y-56779289D01*
X160012696Y-56731678D01*
X159946508Y-56696299D01*
X159874689Y-56674513D01*
X159800000Y-56667157D01*
X158200000Y-56667157D01*
X158125311Y-56674513D01*
X158053492Y-56696299D01*
X157987304Y-56731678D01*
X157929289Y-56779289D01*
X157881678Y-56837304D01*
X157846299Y-56903492D01*
X157824513Y-56975311D01*
X157817157Y-57050000D01*
X157817157Y-57244000D01*
X156774845Y-57244000D01*
X156749999Y-57241553D01*
X156725153Y-57244000D01*
X156725146Y-57244000D01*
X156660694Y-57250348D01*
X156650806Y-57251322D01*
X156555425Y-57280255D01*
X156506000Y-57306673D01*
X156506000Y-55974845D01*
X156508447Y-55949999D01*
X156506000Y-55925153D01*
X156506000Y-55925146D01*
X156498678Y-55850807D01*
X156469745Y-55755425D01*
X156422759Y-55667521D01*
X156359527Y-55590473D01*
X156340220Y-55574628D01*
X155425145Y-54659554D01*
X155421870Y-54626302D01*
X155385789Y-54507358D01*
X155327196Y-54397739D01*
X155248343Y-54301657D01*
X155152261Y-54222804D01*
X155042642Y-54164211D01*
X154923698Y-54128130D01*
X154830998Y-54119000D01*
X153481010Y-54119000D01*
X153505789Y-54072642D01*
X153541870Y-53953698D01*
X153551000Y-53860998D01*
X153551000Y-53860989D01*
X153554052Y-53830001D01*
X153551000Y-53799013D01*
X153551000Y-53608890D01*
X153704717Y-53506180D01*
X153876180Y-53334717D01*
X154010898Y-53133097D01*
X154103693Y-52909069D01*
X154151000Y-52671243D01*
X154151000Y-52428757D01*
X154229000Y-52428757D01*
X154229000Y-52671243D01*
X154276307Y-52909069D01*
X154369102Y-53133097D01*
X154503820Y-53334717D01*
X154675283Y-53506180D01*
X154876903Y-53640898D01*
X155100931Y-53733693D01*
X155338757Y-53781000D01*
X155581243Y-53781000D01*
X155819069Y-53733693D01*
X156043097Y-53640898D01*
X156244717Y-53506180D01*
X156416180Y-53334717D01*
X156550898Y-53133097D01*
X156598228Y-53018832D01*
X156655843Y-53181252D01*
X156804822Y-53431355D01*
X156999731Y-53647588D01*
X157233080Y-53821641D01*
X157495901Y-53946825D01*
X157643110Y-53991476D01*
X157873000Y-53870155D01*
X157873000Y-52677000D01*
X158127000Y-52677000D01*
X158127000Y-53870155D01*
X158356890Y-53991476D01*
X158504099Y-53946825D01*
X158766920Y-53821641D01*
X159000269Y-53647588D01*
X159195178Y-53431355D01*
X159344157Y-53181252D01*
X159441481Y-52906891D01*
X159389978Y-52808769D01*
X165058395Y-52808769D01*
X165058395Y-53191231D01*
X165133009Y-53566345D01*
X165279372Y-53919695D01*
X165491857Y-54237701D01*
X165762299Y-54508143D01*
X166080305Y-54720628D01*
X166433655Y-54866991D01*
X166808769Y-54941605D01*
X167191231Y-54941605D01*
X167566345Y-54866991D01*
X167919695Y-54720628D01*
X168237701Y-54508143D01*
X168508143Y-54237701D01*
X168720628Y-53919695D01*
X168866991Y-53566345D01*
X168941605Y-53191231D01*
X168941605Y-52808769D01*
X168866991Y-52433655D01*
X168720628Y-52080305D01*
X168508143Y-51762299D01*
X168237701Y-51491857D01*
X167919695Y-51279372D01*
X167566345Y-51133009D01*
X167191231Y-51058395D01*
X166808769Y-51058395D01*
X166433655Y-51133009D01*
X166080305Y-51279372D01*
X165762299Y-51491857D01*
X165491857Y-51762299D01*
X165279372Y-52080305D01*
X165133009Y-52433655D01*
X165058395Y-52808769D01*
X159389978Y-52808769D01*
X159320814Y-52677000D01*
X158127000Y-52677000D01*
X157873000Y-52677000D01*
X157853000Y-52677000D01*
X157853000Y-52423000D01*
X157873000Y-52423000D01*
X157873000Y-51229845D01*
X158127000Y-51229845D01*
X158127000Y-52423000D01*
X159320814Y-52423000D01*
X159441481Y-52193109D01*
X159344157Y-51918748D01*
X159195178Y-51668645D01*
X159000269Y-51452412D01*
X158766920Y-51278359D01*
X158504099Y-51153175D01*
X158356890Y-51108524D01*
X158127000Y-51229845D01*
X157873000Y-51229845D01*
X157643110Y-51108524D01*
X157495901Y-51153175D01*
X157233080Y-51278359D01*
X156999731Y-51452412D01*
X156804822Y-51668645D01*
X156655843Y-51918748D01*
X156598228Y-52081168D01*
X156550898Y-51966903D01*
X156416180Y-51765283D01*
X156244717Y-51593820D01*
X156043097Y-51459102D01*
X155819069Y-51366307D01*
X155581243Y-51319000D01*
X155338757Y-51319000D01*
X155100931Y-51366307D01*
X154876903Y-51459102D01*
X154675283Y-51593820D01*
X154503820Y-51765283D01*
X154369102Y-51966903D01*
X154276307Y-52190931D01*
X154229000Y-52428757D01*
X154151000Y-52428757D01*
X154103693Y-52190931D01*
X154010898Y-51966903D01*
X153876180Y-51765283D01*
X153704717Y-51593820D01*
X153503097Y-51459102D01*
X153279069Y-51366307D01*
X153041243Y-51319000D01*
X152798757Y-51319000D01*
X152560931Y-51366307D01*
X152336903Y-51459102D01*
X152135283Y-51593820D01*
X151963820Y-51765283D01*
X151829102Y-51966903D01*
X151736307Y-52190931D01*
X151689000Y-52428757D01*
X151689000Y-52671243D01*
X151736307Y-52909069D01*
X151829102Y-53133097D01*
X151963820Y-53334717D01*
X152135283Y-53506180D01*
X152264867Y-53592765D01*
X151738632Y-54119000D01*
X146530987Y-54119000D01*
X146499999Y-54115948D01*
X146469011Y-54119000D01*
X146469002Y-54119000D01*
X146376302Y-54128130D01*
X146257358Y-54164211D01*
X146147739Y-54222804D01*
X146051657Y-54301657D01*
X146031899Y-54325732D01*
X144575733Y-55781899D01*
X144551658Y-55801657D01*
X144531900Y-55825732D01*
X144531897Y-55825735D01*
X144472804Y-55897740D01*
X144414211Y-56007359D01*
X144378130Y-56126303D01*
X144365948Y-56250000D01*
X144369001Y-56281000D01*
X144369000Y-57826632D01*
X143868105Y-57325737D01*
X143848343Y-57301657D01*
X143752261Y-57222804D01*
X143642642Y-57164211D01*
X143523698Y-57128130D01*
X143430998Y-57119000D01*
X143430990Y-57119000D01*
X143400000Y-57115948D01*
X143369010Y-57119000D01*
X142543105Y-57119000D01*
X142548601Y-57117333D01*
X142570557Y-57105597D01*
X142589803Y-57089803D01*
X142605597Y-57070557D01*
X142617333Y-57048601D01*
X142624560Y-57024776D01*
X142627000Y-57000000D01*
X142627000Y-51700000D01*
X144067157Y-51700000D01*
X144067157Y-53400000D01*
X144074513Y-53474689D01*
X144096299Y-53546508D01*
X144131678Y-53612696D01*
X144179289Y-53670711D01*
X144237304Y-53718322D01*
X144303492Y-53753701D01*
X144375311Y-53775487D01*
X144450000Y-53782843D01*
X146150000Y-53782843D01*
X146224689Y-53775487D01*
X146296508Y-53753701D01*
X146362696Y-53718322D01*
X146420711Y-53670711D01*
X146468322Y-53612696D01*
X146503701Y-53546508D01*
X146525487Y-53474689D01*
X146532843Y-53400000D01*
X146532843Y-52428757D01*
X146609000Y-52428757D01*
X146609000Y-52671243D01*
X146656307Y-52909069D01*
X146749102Y-53133097D01*
X146883820Y-53334717D01*
X147055283Y-53506180D01*
X147256903Y-53640898D01*
X147480931Y-53733693D01*
X147718757Y-53781000D01*
X147961243Y-53781000D01*
X148199069Y-53733693D01*
X148423097Y-53640898D01*
X148624717Y-53506180D01*
X148796180Y-53334717D01*
X148930898Y-53133097D01*
X149023693Y-52909069D01*
X149071000Y-52671243D01*
X149071000Y-52428757D01*
X149149000Y-52428757D01*
X149149000Y-52671243D01*
X149196307Y-52909069D01*
X149289102Y-53133097D01*
X149423820Y-53334717D01*
X149595283Y-53506180D01*
X149796903Y-53640898D01*
X150020931Y-53733693D01*
X150258757Y-53781000D01*
X150501243Y-53781000D01*
X150739069Y-53733693D01*
X150963097Y-53640898D01*
X151164717Y-53506180D01*
X151336180Y-53334717D01*
X151470898Y-53133097D01*
X151563693Y-52909069D01*
X151611000Y-52671243D01*
X151611000Y-52428757D01*
X151563693Y-52190931D01*
X151470898Y-51966903D01*
X151336180Y-51765283D01*
X151164717Y-51593820D01*
X150963097Y-51459102D01*
X150739069Y-51366307D01*
X150501243Y-51319000D01*
X150258757Y-51319000D01*
X150020931Y-51366307D01*
X149796903Y-51459102D01*
X149595283Y-51593820D01*
X149423820Y-51765283D01*
X149289102Y-51966903D01*
X149196307Y-52190931D01*
X149149000Y-52428757D01*
X149071000Y-52428757D01*
X149023693Y-52190931D01*
X148930898Y-51966903D01*
X148796180Y-51765283D01*
X148624717Y-51593820D01*
X148423097Y-51459102D01*
X148199069Y-51366307D01*
X147961243Y-51319000D01*
X147718757Y-51319000D01*
X147480931Y-51366307D01*
X147256903Y-51459102D01*
X147055283Y-51593820D01*
X146883820Y-51765283D01*
X146749102Y-51966903D01*
X146656307Y-52190931D01*
X146609000Y-52428757D01*
X146532843Y-52428757D01*
X146532843Y-51700000D01*
X146525487Y-51625311D01*
X146503701Y-51553492D01*
X146468322Y-51487304D01*
X146420711Y-51429289D01*
X146362696Y-51381678D01*
X146296508Y-51346299D01*
X146224689Y-51324513D01*
X146150000Y-51317157D01*
X144450000Y-51317157D01*
X144375311Y-51324513D01*
X144303492Y-51346299D01*
X144237304Y-51381678D01*
X144179289Y-51429289D01*
X144131678Y-51487304D01*
X144096299Y-51553492D01*
X144074513Y-51625311D01*
X144067157Y-51700000D01*
X142627000Y-51700000D01*
X142627000Y-50627000D01*
X169373000Y-50627000D01*
X169373000Y-109373000D01*
X162940583Y-109373000D01*
X162949190Y-109360631D01*
X163034472Y-109165257D01*
X163080000Y-108957000D01*
X163080000Y-108627000D01*
X162127000Y-108627000D01*
X162127000Y-108647000D01*
X161873000Y-108647000D01*
X161873000Y-108627000D01*
X160920000Y-108627000D01*
X160920000Y-108957000D01*
X160965528Y-109165257D01*
X161050810Y-109360631D01*
X161059417Y-109373000D01*
X155940583Y-109373000D01*
X155949190Y-109360631D01*
X156034472Y-109165257D01*
X156080000Y-108957000D01*
X156080000Y-108627000D01*
X155127000Y-108627000D01*
X155127000Y-108647000D01*
X154873000Y-108647000D01*
X154873000Y-108627000D01*
X153920000Y-108627000D01*
X153920000Y-108957000D01*
X153965528Y-109165257D01*
X154050810Y-109360631D01*
X154059417Y-109373000D01*
X90627000Y-109373000D01*
X90627000Y-106808769D01*
X91058395Y-106808769D01*
X91058395Y-107191231D01*
X91133009Y-107566345D01*
X91279372Y-107919695D01*
X91491857Y-108237701D01*
X91762299Y-108508143D01*
X92080305Y-108720628D01*
X92433655Y-108866991D01*
X92808769Y-108941605D01*
X93191231Y-108941605D01*
X93566345Y-108866991D01*
X93919695Y-108720628D01*
X94237701Y-108508143D01*
X94508143Y-108237701D01*
X94720628Y-107919695D01*
X94866991Y-107566345D01*
X94941605Y-107191231D01*
X94941605Y-106808769D01*
X94866991Y-106433655D01*
X94720628Y-106080305D01*
X94508143Y-105762299D01*
X94237701Y-105491857D01*
X93919695Y-105279372D01*
X93566345Y-105133009D01*
X93191231Y-105058395D01*
X92808769Y-105058395D01*
X92433655Y-105133009D01*
X92080305Y-105279372D01*
X91762299Y-105491857D01*
X91491857Y-105762299D01*
X91279372Y-106080305D01*
X91133009Y-106433655D01*
X91058395Y-106808769D01*
X90627000Y-106808769D01*
X90627000Y-104300000D01*
X97417157Y-104300000D01*
X97417157Y-106700000D01*
X97424513Y-106774689D01*
X97446299Y-106846508D01*
X97481678Y-106912696D01*
X97529289Y-106970711D01*
X97587304Y-107018322D01*
X97653492Y-107053701D01*
X97725311Y-107075487D01*
X97800000Y-107082843D01*
X98374107Y-107082843D01*
X98378130Y-107123697D01*
X98414211Y-107242641D01*
X98472804Y-107352260D01*
X98531897Y-107424265D01*
X98531900Y-107424268D01*
X98551658Y-107448343D01*
X98575733Y-107468101D01*
X99531899Y-108424268D01*
X99551657Y-108448343D01*
X99575732Y-108468101D01*
X99575734Y-108468103D01*
X99647739Y-108527196D01*
X99757358Y-108585789D01*
X99876302Y-108621870D01*
X100000000Y-108634053D01*
X100030998Y-108631000D01*
X113969010Y-108631000D01*
X114000000Y-108634052D01*
X114030990Y-108631000D01*
X114030998Y-108631000D01*
X114123698Y-108621870D01*
X114242642Y-108585789D01*
X114352261Y-108527196D01*
X114448343Y-108448343D01*
X114468105Y-108424263D01*
X114849368Y-108043000D01*
X153920000Y-108043000D01*
X153920000Y-108373000D01*
X154873000Y-108373000D01*
X154873000Y-107257546D01*
X155127000Y-107257546D01*
X155127000Y-108373000D01*
X156080000Y-108373000D01*
X156080000Y-108043000D01*
X160920000Y-108043000D01*
X160920000Y-108373000D01*
X161873000Y-108373000D01*
X161873000Y-107257546D01*
X162127000Y-107257546D01*
X162127000Y-108373000D01*
X163080000Y-108373000D01*
X163080000Y-108043000D01*
X163034472Y-107834743D01*
X162949190Y-107639369D01*
X162827431Y-107464387D01*
X162673874Y-107316521D01*
X162494420Y-107201454D01*
X162293213Y-107130565D01*
X162127000Y-107257546D01*
X161873000Y-107257546D01*
X161706787Y-107130565D01*
X161505580Y-107201454D01*
X161326126Y-107316521D01*
X161172569Y-107464387D01*
X161050810Y-107639369D01*
X160965528Y-107834743D01*
X160920000Y-108043000D01*
X156080000Y-108043000D01*
X156034472Y-107834743D01*
X155949190Y-107639369D01*
X155827431Y-107464387D01*
X155673874Y-107316521D01*
X155494420Y-107201454D01*
X155293213Y-107130565D01*
X155127000Y-107257546D01*
X154873000Y-107257546D01*
X154706787Y-107130565D01*
X154505580Y-107201454D01*
X154326126Y-107316521D01*
X154172569Y-107464387D01*
X154050810Y-107639369D01*
X153965528Y-107834743D01*
X153920000Y-108043000D01*
X114849368Y-108043000D01*
X115344264Y-107548104D01*
X115368343Y-107528343D01*
X115447196Y-107432261D01*
X115505789Y-107322642D01*
X115541870Y-107203698D01*
X115551000Y-107110998D01*
X115551000Y-107110989D01*
X115554052Y-107080001D01*
X115551000Y-107049013D01*
X115551000Y-106983415D01*
X115574149Y-106973826D01*
X115800336Y-106822693D01*
X115992693Y-106630336D01*
X116143826Y-106404149D01*
X116247929Y-106152823D01*
X116301000Y-105886017D01*
X116301000Y-105613983D01*
X118619000Y-105613983D01*
X118619000Y-105886017D01*
X118672071Y-106152823D01*
X118776174Y-106404149D01*
X118927307Y-106630336D01*
X119119664Y-106822693D01*
X119345851Y-106973826D01*
X119597177Y-107077929D01*
X119863983Y-107131000D01*
X120136017Y-107131000D01*
X120402823Y-107077929D01*
X120654149Y-106973826D01*
X120880336Y-106822693D01*
X121072693Y-106630336D01*
X121223826Y-106404149D01*
X121327929Y-106152823D01*
X121381000Y-105886017D01*
X121381000Y-105613983D01*
X123369000Y-105613983D01*
X123369000Y-105886017D01*
X123422071Y-106152823D01*
X123526174Y-106404149D01*
X123677307Y-106630336D01*
X123869664Y-106822693D01*
X124095851Y-106973826D01*
X124347177Y-107077929D01*
X124613983Y-107131000D01*
X124886017Y-107131000D01*
X125152823Y-107077929D01*
X125404149Y-106973826D01*
X125630336Y-106822693D01*
X125822693Y-106630336D01*
X125973826Y-106404149D01*
X126077929Y-106152823D01*
X126131000Y-105886017D01*
X126131000Y-105613983D01*
X128449000Y-105613983D01*
X128449000Y-105886017D01*
X128502071Y-106152823D01*
X128606174Y-106404149D01*
X128757307Y-106630336D01*
X128949664Y-106822693D01*
X129175851Y-106973826D01*
X129427177Y-107077929D01*
X129693983Y-107131000D01*
X129966017Y-107131000D01*
X130232823Y-107077929D01*
X130484149Y-106973826D01*
X130710336Y-106822693D01*
X130902693Y-106630336D01*
X131053826Y-106404149D01*
X131157929Y-106152823D01*
X131211000Y-105886017D01*
X131211000Y-105613983D01*
X133119000Y-105613983D01*
X133119000Y-105886017D01*
X133172071Y-106152823D01*
X133276174Y-106404149D01*
X133427307Y-106630336D01*
X133619664Y-106822693D01*
X133845851Y-106973826D01*
X134097177Y-107077929D01*
X134363983Y-107131000D01*
X134636017Y-107131000D01*
X134902823Y-107077929D01*
X135154149Y-106973826D01*
X135380336Y-106822693D01*
X135572693Y-106630336D01*
X135723826Y-106404149D01*
X135827929Y-106152823D01*
X135881000Y-105886017D01*
X135881000Y-105613983D01*
X138199000Y-105613983D01*
X138199000Y-105886017D01*
X138252071Y-106152823D01*
X138356174Y-106404149D01*
X138507307Y-106630336D01*
X138699664Y-106822693D01*
X138925851Y-106973826D01*
X139177177Y-107077929D01*
X139443983Y-107131000D01*
X139716017Y-107131000D01*
X139982823Y-107077929D01*
X140234149Y-106973826D01*
X140460336Y-106822693D01*
X140652693Y-106630336D01*
X140803826Y-106404149D01*
X140907929Y-106152823D01*
X140961000Y-105886017D01*
X140961000Y-105613983D01*
X140907929Y-105347177D01*
X140803826Y-105095851D01*
X140652693Y-104869664D01*
X140460336Y-104677307D01*
X140234149Y-104526174D01*
X139982823Y-104422071D01*
X139716017Y-104369000D01*
X139443983Y-104369000D01*
X139177177Y-104422071D01*
X138925851Y-104526174D01*
X138699664Y-104677307D01*
X138507307Y-104869664D01*
X138356174Y-105095851D01*
X138252071Y-105347177D01*
X138199000Y-105613983D01*
X135881000Y-105613983D01*
X135827929Y-105347177D01*
X135723826Y-105095851D01*
X135572693Y-104869664D01*
X135380336Y-104677307D01*
X135154149Y-104526174D01*
X134902823Y-104422071D01*
X134636017Y-104369000D01*
X134363983Y-104369000D01*
X134097177Y-104422071D01*
X133845851Y-104526174D01*
X133619664Y-104677307D01*
X133427307Y-104869664D01*
X133276174Y-105095851D01*
X133172071Y-105347177D01*
X133119000Y-105613983D01*
X131211000Y-105613983D01*
X131157929Y-105347177D01*
X131053826Y-105095851D01*
X130902693Y-104869664D01*
X130710336Y-104677307D01*
X130484149Y-104526174D01*
X130232823Y-104422071D01*
X129966017Y-104369000D01*
X129693983Y-104369000D01*
X129427177Y-104422071D01*
X129175851Y-104526174D01*
X128949664Y-104677307D01*
X128757307Y-104869664D01*
X128606174Y-105095851D01*
X128502071Y-105347177D01*
X128449000Y-105613983D01*
X126131000Y-105613983D01*
X126077929Y-105347177D01*
X125973826Y-105095851D01*
X125822693Y-104869664D01*
X125630336Y-104677307D01*
X125404149Y-104526174D01*
X125152823Y-104422071D01*
X124886017Y-104369000D01*
X124613983Y-104369000D01*
X124347177Y-104422071D01*
X124095851Y-104526174D01*
X123869664Y-104677307D01*
X123677307Y-104869664D01*
X123526174Y-105095851D01*
X123422071Y-105347177D01*
X123369000Y-105613983D01*
X121381000Y-105613983D01*
X121327929Y-105347177D01*
X121223826Y-105095851D01*
X121072693Y-104869664D01*
X120880336Y-104677307D01*
X120654149Y-104526174D01*
X120402823Y-104422071D01*
X120136017Y-104369000D01*
X119863983Y-104369000D01*
X119597177Y-104422071D01*
X119345851Y-104526174D01*
X119119664Y-104677307D01*
X118927307Y-104869664D01*
X118776174Y-105095851D01*
X118672071Y-105347177D01*
X118619000Y-105613983D01*
X116301000Y-105613983D01*
X116247929Y-105347177D01*
X116143826Y-105095851D01*
X115992693Y-104869664D01*
X115800336Y-104677307D01*
X115574149Y-104526174D01*
X115322823Y-104422071D01*
X115056017Y-104369000D01*
X114783983Y-104369000D01*
X114517177Y-104422071D01*
X114265851Y-104526174D01*
X114039664Y-104677307D01*
X113847307Y-104869664D01*
X113696174Y-105095851D01*
X113592071Y-105347177D01*
X113539000Y-105613983D01*
X113539000Y-105886017D01*
X113592071Y-106152823D01*
X113696174Y-106404149D01*
X113847307Y-106630336D01*
X114039664Y-106822693D01*
X114186696Y-106920936D01*
X113738632Y-107369000D01*
X100261369Y-107369000D01*
X99975212Y-107082843D01*
X100200000Y-107082843D01*
X100274689Y-107075487D01*
X100346508Y-107053701D01*
X100412696Y-107018322D01*
X100470711Y-106970711D01*
X100518322Y-106912696D01*
X100553701Y-106846508D01*
X100575487Y-106774689D01*
X100582843Y-106700000D01*
X100582843Y-105344285D01*
X100919000Y-105344285D01*
X100919000Y-105655715D01*
X100979757Y-105961161D01*
X101098936Y-106248884D01*
X101271957Y-106507829D01*
X101492171Y-106728043D01*
X101751116Y-106901064D01*
X102038839Y-107020243D01*
X102344285Y-107081000D01*
X102655715Y-107081000D01*
X102961161Y-107020243D01*
X103248884Y-106901064D01*
X103507829Y-106728043D01*
X103728043Y-106507829D01*
X103901064Y-106248884D01*
X104020243Y-105961161D01*
X104081000Y-105655715D01*
X104081000Y-105344285D01*
X104020243Y-105038839D01*
X103901064Y-104751116D01*
X103728043Y-104492171D01*
X103507829Y-104271957D01*
X103248884Y-104098936D01*
X103131000Y-104050107D01*
X103131000Y-102011368D01*
X104011369Y-101131000D01*
X106726631Y-101131000D01*
X105575737Y-102281895D01*
X105551657Y-102301657D01*
X105472804Y-102397740D01*
X105414211Y-102507359D01*
X105378130Y-102626303D01*
X105369000Y-102719003D01*
X105369000Y-102719010D01*
X105365948Y-102750000D01*
X105369000Y-102780990D01*
X105369000Y-104050107D01*
X105251116Y-104098936D01*
X104992171Y-104271957D01*
X104771957Y-104492171D01*
X104598936Y-104751116D01*
X104479757Y-105038839D01*
X104419000Y-105344285D01*
X104419000Y-105655715D01*
X104479757Y-105961161D01*
X104598936Y-106248884D01*
X104771957Y-106507829D01*
X104992171Y-106728043D01*
X105251116Y-106901064D01*
X105538839Y-107020243D01*
X105844285Y-107081000D01*
X106155715Y-107081000D01*
X106461161Y-107020243D01*
X106748884Y-106901064D01*
X107007829Y-106728043D01*
X107228043Y-106507829D01*
X107401064Y-106248884D01*
X107520243Y-105961161D01*
X107581000Y-105655715D01*
X107581000Y-105344285D01*
X107520243Y-105038839D01*
X107401064Y-104751116D01*
X107228043Y-104492171D01*
X107007829Y-104271957D01*
X106748884Y-104098936D01*
X106631000Y-104050107D01*
X106631000Y-103011368D01*
X107511369Y-102131000D01*
X110226631Y-102131000D01*
X109075737Y-103281895D01*
X109051657Y-103301657D01*
X108972804Y-103397740D01*
X108914211Y-103507359D01*
X108878130Y-103626303D01*
X108869000Y-103719003D01*
X108869000Y-103719010D01*
X108865948Y-103750000D01*
X108869000Y-103780991D01*
X108869000Y-104050107D01*
X108751116Y-104098936D01*
X108492171Y-104271957D01*
X108271957Y-104492171D01*
X108098936Y-104751116D01*
X107979757Y-105038839D01*
X107919000Y-105344285D01*
X107919000Y-105655715D01*
X107979757Y-105961161D01*
X108098936Y-106248884D01*
X108271957Y-106507829D01*
X108492171Y-106728043D01*
X108751116Y-106901064D01*
X109038839Y-107020243D01*
X109344285Y-107081000D01*
X109655715Y-107081000D01*
X109961161Y-107020243D01*
X110248884Y-106901064D01*
X110507829Y-106728043D01*
X110728043Y-106507829D01*
X110901064Y-106248884D01*
X111020243Y-105961161D01*
X111081000Y-105655715D01*
X111081000Y-105344285D01*
X111020243Y-105038839D01*
X110901064Y-104751116D01*
X110728043Y-104492171D01*
X110535872Y-104300000D01*
X145167157Y-104300000D01*
X145167157Y-106700000D01*
X145174513Y-106774689D01*
X145196299Y-106846508D01*
X145231678Y-106912696D01*
X145279289Y-106970711D01*
X145337304Y-107018322D01*
X145403492Y-107053701D01*
X145475311Y-107075487D01*
X145550000Y-107082843D01*
X147950000Y-107082843D01*
X148024689Y-107075487D01*
X148096508Y-107053701D01*
X148162696Y-107018322D01*
X148220711Y-106970711D01*
X148268322Y-106912696D01*
X148303701Y-106846508D01*
X148324488Y-106777980D01*
X149151626Y-106777980D01*
X149271514Y-107062836D01*
X149595210Y-107223699D01*
X149944069Y-107318322D01*
X150304684Y-107343067D01*
X150663198Y-107296985D01*
X151005833Y-107181846D01*
X151228486Y-107062836D01*
X151348374Y-106777980D01*
X150250000Y-105679605D01*
X149151626Y-106777980D01*
X148324488Y-106777980D01*
X148325487Y-106774689D01*
X148332843Y-106700000D01*
X148332843Y-105554684D01*
X148406933Y-105554684D01*
X148453015Y-105913198D01*
X148568154Y-106255833D01*
X148687164Y-106478486D01*
X148972020Y-106598374D01*
X150070395Y-105500000D01*
X150429605Y-105500000D01*
X151527980Y-106598374D01*
X151812836Y-106478486D01*
X151973699Y-106154790D01*
X151989119Y-106097938D01*
X154780732Y-106097938D01*
X154850397Y-106286150D01*
X154964447Y-106471822D01*
X155112529Y-106631676D01*
X155288951Y-106759569D01*
X155486934Y-106850586D01*
X155698869Y-106901230D01*
X155873000Y-106752564D01*
X155873000Y-105927000D01*
X156127000Y-105927000D01*
X156127000Y-106752564D01*
X156301131Y-106901230D01*
X156513066Y-106850586D01*
X156711049Y-106759569D01*
X156887471Y-106631676D01*
X157035553Y-106471822D01*
X157149603Y-106286150D01*
X157219268Y-106097938D01*
X159780732Y-106097938D01*
X159850397Y-106286150D01*
X159964447Y-106471822D01*
X160112529Y-106631676D01*
X160288951Y-106759569D01*
X160486934Y-106850586D01*
X160698869Y-106901230D01*
X160873000Y-106752564D01*
X160873000Y-105927000D01*
X161127000Y-105927000D01*
X161127000Y-106752564D01*
X161301131Y-106901230D01*
X161513066Y-106850586D01*
X161604027Y-106808769D01*
X165058395Y-106808769D01*
X165058395Y-107191231D01*
X165133009Y-107566345D01*
X165279372Y-107919695D01*
X165491857Y-108237701D01*
X165762299Y-108508143D01*
X166080305Y-108720628D01*
X166433655Y-108866991D01*
X166808769Y-108941605D01*
X167191231Y-108941605D01*
X167566345Y-108866991D01*
X167919695Y-108720628D01*
X168237701Y-108508143D01*
X168508143Y-108237701D01*
X168720628Y-107919695D01*
X168866991Y-107566345D01*
X168941605Y-107191231D01*
X168941605Y-106808769D01*
X168866991Y-106433655D01*
X168720628Y-106080305D01*
X168508143Y-105762299D01*
X168237701Y-105491857D01*
X167919695Y-105279372D01*
X167566345Y-105133009D01*
X167191231Y-105058395D01*
X166808769Y-105058395D01*
X166433655Y-105133009D01*
X166080305Y-105279372D01*
X165762299Y-105491857D01*
X165491857Y-105762299D01*
X165279372Y-106080305D01*
X165133009Y-106433655D01*
X165058395Y-106808769D01*
X161604027Y-106808769D01*
X161711049Y-106759569D01*
X161887471Y-106631676D01*
X162035553Y-106471822D01*
X162149603Y-106286150D01*
X162219268Y-106097938D01*
X162092734Y-105927000D01*
X161127000Y-105927000D01*
X160873000Y-105927000D01*
X159907266Y-105927000D01*
X159780732Y-106097938D01*
X157219268Y-106097938D01*
X157092734Y-105927000D01*
X156127000Y-105927000D01*
X155873000Y-105927000D01*
X154907266Y-105927000D01*
X154780732Y-106097938D01*
X151989119Y-106097938D01*
X152068322Y-105805931D01*
X152089173Y-105502062D01*
X154780732Y-105502062D01*
X154907266Y-105673000D01*
X155873000Y-105673000D01*
X155873000Y-104847436D01*
X156127000Y-104847436D01*
X156127000Y-105673000D01*
X157092734Y-105673000D01*
X157219268Y-105502062D01*
X159780732Y-105502062D01*
X159907266Y-105673000D01*
X160873000Y-105673000D01*
X160873000Y-104847436D01*
X161127000Y-104847436D01*
X161127000Y-105673000D01*
X162092734Y-105673000D01*
X162219268Y-105502062D01*
X162149603Y-105313850D01*
X162035553Y-105128178D01*
X161887471Y-104968324D01*
X161711049Y-104840431D01*
X161513066Y-104749414D01*
X161301131Y-104698770D01*
X161127000Y-104847436D01*
X160873000Y-104847436D01*
X160698869Y-104698770D01*
X160486934Y-104749414D01*
X160288951Y-104840431D01*
X160112529Y-104968324D01*
X159964447Y-105128178D01*
X159850397Y-105313850D01*
X159780732Y-105502062D01*
X157219268Y-105502062D01*
X157149603Y-105313850D01*
X157035553Y-105128178D01*
X156887471Y-104968324D01*
X156711049Y-104840431D01*
X156513066Y-104749414D01*
X156301131Y-104698770D01*
X156127000Y-104847436D01*
X155873000Y-104847436D01*
X155698869Y-104698770D01*
X155486934Y-104749414D01*
X155288951Y-104840431D01*
X155112529Y-104968324D01*
X154964447Y-105128178D01*
X154850397Y-105313850D01*
X154780732Y-105502062D01*
X152089173Y-105502062D01*
X152093067Y-105445316D01*
X152046985Y-105086802D01*
X151931846Y-104744167D01*
X151812836Y-104521514D01*
X151527980Y-104401626D01*
X150429605Y-105500000D01*
X150070395Y-105500000D01*
X148972020Y-104401626D01*
X148687164Y-104521514D01*
X148526301Y-104845210D01*
X148431678Y-105194069D01*
X148406933Y-105554684D01*
X148332843Y-105554684D01*
X148332843Y-104300000D01*
X148325487Y-104225311D01*
X148324489Y-104222020D01*
X149151626Y-104222020D01*
X150250000Y-105320395D01*
X151348374Y-104222020D01*
X151228486Y-103937164D01*
X150904790Y-103776301D01*
X150555931Y-103681678D01*
X150195316Y-103656933D01*
X149836802Y-103703015D01*
X149494167Y-103818154D01*
X149271514Y-103937164D01*
X149151626Y-104222020D01*
X148324489Y-104222020D01*
X148303701Y-104153492D01*
X148268322Y-104087304D01*
X148220711Y-104029289D01*
X148162696Y-103981678D01*
X148096508Y-103946299D01*
X148024689Y-103924513D01*
X147950000Y-103917157D01*
X145550000Y-103917157D01*
X145475311Y-103924513D01*
X145403492Y-103946299D01*
X145337304Y-103981678D01*
X145279289Y-104029289D01*
X145231678Y-104087304D01*
X145196299Y-104153492D01*
X145174513Y-104225311D01*
X145167157Y-104300000D01*
X110535872Y-104300000D01*
X110507829Y-104271957D01*
X110248884Y-104098936D01*
X110131000Y-104050107D01*
X110131000Y-104011368D01*
X111011369Y-103131000D01*
X140969010Y-103131000D01*
X141000000Y-103134052D01*
X141030990Y-103131000D01*
X141030998Y-103131000D01*
X141123698Y-103121870D01*
X141242642Y-103085789D01*
X141352261Y-103027196D01*
X141448343Y-102948343D01*
X141468105Y-102924263D01*
X142424268Y-101968101D01*
X142448343Y-101948343D01*
X142527196Y-101852261D01*
X142585789Y-101742642D01*
X142621870Y-101623698D01*
X142621870Y-101623697D01*
X142629128Y-101550000D01*
X150167157Y-101550000D01*
X150167157Y-102950000D01*
X150174513Y-103024689D01*
X150196299Y-103096508D01*
X150231678Y-103162696D01*
X150279289Y-103220711D01*
X150337304Y-103268322D01*
X150403492Y-103303701D01*
X150475311Y-103325487D01*
X150550000Y-103332843D01*
X152150000Y-103332843D01*
X152224689Y-103325487D01*
X152296508Y-103303701D01*
X152362696Y-103268322D01*
X152420711Y-103220711D01*
X152468322Y-103162696D01*
X152503701Y-103096508D01*
X152525487Y-103024689D01*
X152532843Y-102950000D01*
X152532843Y-101550000D01*
X158167157Y-101550000D01*
X158167157Y-102950000D01*
X158174513Y-103024689D01*
X158196299Y-103096508D01*
X158231678Y-103162696D01*
X158279289Y-103220711D01*
X158337304Y-103268322D01*
X158403492Y-103303701D01*
X158475311Y-103325487D01*
X158550000Y-103332843D01*
X160150000Y-103332843D01*
X160224689Y-103325487D01*
X160296508Y-103303701D01*
X160362696Y-103268322D01*
X160420711Y-103220711D01*
X160468322Y-103162696D01*
X160503701Y-103096508D01*
X160525487Y-103024689D01*
X160532843Y-102950000D01*
X160532843Y-101550000D01*
X160525487Y-101475311D01*
X160503701Y-101403492D01*
X160468322Y-101337304D01*
X160420711Y-101279289D01*
X160362696Y-101231678D01*
X160296508Y-101196299D01*
X160224689Y-101174513D01*
X160150000Y-101167157D01*
X158550000Y-101167157D01*
X158475311Y-101174513D01*
X158403492Y-101196299D01*
X158337304Y-101231678D01*
X158279289Y-101279289D01*
X158231678Y-101337304D01*
X158196299Y-101403492D01*
X158174513Y-101475311D01*
X158167157Y-101550000D01*
X152532843Y-101550000D01*
X152525487Y-101475311D01*
X152503701Y-101403492D01*
X152468322Y-101337304D01*
X152420711Y-101279289D01*
X152362696Y-101231678D01*
X152296508Y-101196299D01*
X152224689Y-101174513D01*
X152150000Y-101167157D01*
X150550000Y-101167157D01*
X150475311Y-101174513D01*
X150403492Y-101196299D01*
X150337304Y-101231678D01*
X150279289Y-101279289D01*
X150231678Y-101337304D01*
X150196299Y-101403492D01*
X150174513Y-101475311D01*
X150167157Y-101550000D01*
X142629128Y-101550000D01*
X142634053Y-101500000D01*
X142631000Y-101469002D01*
X142631000Y-100060000D01*
X148196928Y-100060000D01*
X148209188Y-100184482D01*
X148245498Y-100304180D01*
X148304463Y-100414494D01*
X148383815Y-100511185D01*
X148480506Y-100590537D01*
X148590820Y-100649502D01*
X148710518Y-100685812D01*
X148835000Y-100698072D01*
X149024250Y-100695000D01*
X149183000Y-100536250D01*
X149183000Y-99699500D01*
X149437000Y-99699500D01*
X149437000Y-100536250D01*
X149595750Y-100695000D01*
X149785000Y-100698072D01*
X149909482Y-100685812D01*
X150029180Y-100649502D01*
X150139494Y-100590537D01*
X150236185Y-100511185D01*
X150315537Y-100414494D01*
X150374502Y-100304180D01*
X150410812Y-100184482D01*
X150423072Y-100060000D01*
X150420000Y-99858250D01*
X150261250Y-99699500D01*
X149437000Y-99699500D01*
X149183000Y-99699500D01*
X148358750Y-99699500D01*
X148200000Y-99858250D01*
X148196928Y-100060000D01*
X142631000Y-100060000D01*
X142631000Y-96530987D01*
X142634052Y-96499999D01*
X142631000Y-96469011D01*
X142631000Y-96469002D01*
X142621870Y-96376302D01*
X142585789Y-96257358D01*
X142527196Y-96147739D01*
X142479148Y-96089193D01*
X142468103Y-96075734D01*
X142468101Y-96075732D01*
X142448343Y-96051657D01*
X142424269Y-96031900D01*
X141558105Y-95165737D01*
X141538343Y-95141657D01*
X141442261Y-95062804D01*
X141332642Y-95004211D01*
X141213698Y-94968130D01*
X141120998Y-94959000D01*
X141120990Y-94959000D01*
X141090000Y-94955948D01*
X141059010Y-94959000D01*
X140813415Y-94959000D01*
X140803826Y-94935851D01*
X140652693Y-94709664D01*
X140460336Y-94517307D01*
X140234149Y-94366174D01*
X139982823Y-94262071D01*
X139716017Y-94209000D01*
X139443983Y-94209000D01*
X139177177Y-94262071D01*
X138925851Y-94366174D01*
X138699664Y-94517307D01*
X138507307Y-94709664D01*
X138356174Y-94935851D01*
X138252071Y-95187177D01*
X138199000Y-95453983D01*
X138199000Y-95726017D01*
X138252071Y-95992823D01*
X138356174Y-96244149D01*
X138507307Y-96470336D01*
X138699664Y-96662693D01*
X138925851Y-96813826D01*
X139037325Y-96860000D01*
X138925851Y-96906174D01*
X138699664Y-97057307D01*
X138507307Y-97249664D01*
X138356174Y-97475851D01*
X138252071Y-97727177D01*
X138199000Y-97993983D01*
X138199000Y-98266017D01*
X138252071Y-98532823D01*
X138356174Y-98784149D01*
X138507307Y-99010336D01*
X138699664Y-99202693D01*
X138925851Y-99353826D01*
X139177177Y-99457929D01*
X139443983Y-99511000D01*
X139716017Y-99511000D01*
X139982823Y-99457929D01*
X140234149Y-99353826D01*
X140460336Y-99202693D01*
X140652693Y-99010336D01*
X140803826Y-98784149D01*
X140907929Y-98532823D01*
X140961000Y-98266017D01*
X140961000Y-97993983D01*
X140907929Y-97727177D01*
X140803826Y-97475851D01*
X140652693Y-97249664D01*
X140460336Y-97057307D01*
X140234149Y-96906174D01*
X140122675Y-96860000D01*
X140234149Y-96813826D01*
X140460336Y-96662693D01*
X140652693Y-96470336D01*
X140803826Y-96244149D01*
X140813415Y-96221000D01*
X140828632Y-96221000D01*
X141369000Y-96761369D01*
X141369001Y-101238630D01*
X140738632Y-101869000D01*
X131273368Y-101869000D01*
X132424268Y-100718101D01*
X132448343Y-100698343D01*
X132527196Y-100602261D01*
X132585789Y-100492642D01*
X132621870Y-100373698D01*
X132631000Y-100280998D01*
X132631000Y-100280991D01*
X132634052Y-100250000D01*
X132631000Y-100219010D01*
X132631000Y-96530987D01*
X132634052Y-96499999D01*
X132631000Y-96469011D01*
X132631000Y-96469002D01*
X132621870Y-96376302D01*
X132585789Y-96257358D01*
X132527196Y-96147739D01*
X132479148Y-96089193D01*
X132468103Y-96075734D01*
X132468101Y-96075732D01*
X132448343Y-96051657D01*
X132424269Y-96031900D01*
X131558105Y-95165737D01*
X131538343Y-95141657D01*
X131442261Y-95062804D01*
X131332642Y-95004211D01*
X131213698Y-94968130D01*
X131120998Y-94959000D01*
X131120990Y-94959000D01*
X131090000Y-94955948D01*
X131063242Y-94958583D01*
X131053826Y-94935851D01*
X130902693Y-94709664D01*
X130783029Y-94590000D01*
X133117157Y-94590000D01*
X133117157Y-96590000D01*
X133124513Y-96664689D01*
X133146299Y-96736508D01*
X133181678Y-96802696D01*
X133229289Y-96860711D01*
X133287304Y-96908322D01*
X133353492Y-96943701D01*
X133425311Y-96965487D01*
X133500000Y-96972843D01*
X133746074Y-96972843D01*
X133619664Y-97057307D01*
X133427307Y-97249664D01*
X133276174Y-97475851D01*
X133172071Y-97727177D01*
X133119000Y-97993983D01*
X133119000Y-98266017D01*
X133172071Y-98532823D01*
X133276174Y-98784149D01*
X133427307Y-99010336D01*
X133619664Y-99202693D01*
X133845851Y-99353826D01*
X134097177Y-99457929D01*
X134363983Y-99511000D01*
X134636017Y-99511000D01*
X134902823Y-99457929D01*
X135154149Y-99353826D01*
X135380336Y-99202693D01*
X135572693Y-99010336D01*
X135723826Y-98784149D01*
X135827929Y-98532823D01*
X135881000Y-98266017D01*
X135881000Y-97993983D01*
X135827929Y-97727177D01*
X135723826Y-97475851D01*
X135572693Y-97249664D01*
X135380336Y-97057307D01*
X135253926Y-96972843D01*
X135500000Y-96972843D01*
X135574689Y-96965487D01*
X135646508Y-96943701D01*
X135712696Y-96908322D01*
X135770711Y-96860711D01*
X135818322Y-96802696D01*
X135853701Y-96736508D01*
X135875487Y-96664689D01*
X135882843Y-96590000D01*
X135882843Y-94590000D01*
X135875487Y-94515311D01*
X135853701Y-94443492D01*
X135818322Y-94377304D01*
X135770711Y-94319289D01*
X135712696Y-94271678D01*
X135646508Y-94236299D01*
X135574689Y-94214513D01*
X135500000Y-94207157D01*
X133500000Y-94207157D01*
X133425311Y-94214513D01*
X133353492Y-94236299D01*
X133287304Y-94271678D01*
X133229289Y-94319289D01*
X133181678Y-94377304D01*
X133146299Y-94443492D01*
X133124513Y-94515311D01*
X133117157Y-94590000D01*
X130783029Y-94590000D01*
X130710336Y-94517307D01*
X130484149Y-94366174D01*
X130232823Y-94262071D01*
X129966017Y-94209000D01*
X129693983Y-94209000D01*
X129427177Y-94262071D01*
X129175851Y-94366174D01*
X128949664Y-94517307D01*
X128757307Y-94709664D01*
X128606174Y-94935851D01*
X128502071Y-95187177D01*
X128449000Y-95453983D01*
X128449000Y-95726017D01*
X128502071Y-95992823D01*
X128606174Y-96244149D01*
X128757307Y-96470336D01*
X128949664Y-96662693D01*
X129175851Y-96813826D01*
X129287325Y-96860000D01*
X129175851Y-96906174D01*
X128949664Y-97057307D01*
X128757307Y-97249664D01*
X128606174Y-97475851D01*
X128502071Y-97727177D01*
X128449000Y-97993983D01*
X128449000Y-98266017D01*
X128502071Y-98532823D01*
X128606174Y-98784149D01*
X128757307Y-99010336D01*
X128949664Y-99202693D01*
X129175851Y-99353826D01*
X129427177Y-99457929D01*
X129693983Y-99511000D01*
X129966017Y-99511000D01*
X130232823Y-99457929D01*
X130484149Y-99353826D01*
X130710336Y-99202693D01*
X130902693Y-99010336D01*
X131053826Y-98784149D01*
X131157929Y-98532823D01*
X131211000Y-98266017D01*
X131211000Y-97993983D01*
X131157929Y-97727177D01*
X131053826Y-97475851D01*
X130902693Y-97249664D01*
X130710336Y-97057307D01*
X130484149Y-96906174D01*
X130372675Y-96860000D01*
X130484149Y-96813826D01*
X130710336Y-96662693D01*
X130902693Y-96470336D01*
X130972898Y-96365266D01*
X131369000Y-96761369D01*
X131369001Y-99988630D01*
X130488632Y-100869000D01*
X121523368Y-100869000D01*
X122674268Y-99718101D01*
X122698343Y-99698343D01*
X122777196Y-99602261D01*
X122835789Y-99492642D01*
X122871870Y-99373698D01*
X122881000Y-99280998D01*
X122881000Y-99280991D01*
X122884052Y-99250000D01*
X122881000Y-99219010D01*
X122881000Y-96530987D01*
X122884052Y-96499999D01*
X122881000Y-96469011D01*
X122881000Y-96469002D01*
X122871870Y-96376302D01*
X122835789Y-96257358D01*
X122777196Y-96147739D01*
X122729148Y-96089193D01*
X122718103Y-96075734D01*
X122718101Y-96075732D01*
X122698343Y-96051657D01*
X122674269Y-96031900D01*
X121808105Y-95165737D01*
X121788343Y-95141657D01*
X121692261Y-95062804D01*
X121582642Y-95004211D01*
X121463698Y-94968130D01*
X121370998Y-94959000D01*
X121370990Y-94959000D01*
X121340000Y-94955948D01*
X121309010Y-94959000D01*
X121233415Y-94959000D01*
X121223826Y-94935851D01*
X121072693Y-94709664D01*
X120953029Y-94590000D01*
X123367157Y-94590000D01*
X123367157Y-96590000D01*
X123374513Y-96664689D01*
X123396299Y-96736508D01*
X123431678Y-96802696D01*
X123479289Y-96860711D01*
X123537304Y-96908322D01*
X123603492Y-96943701D01*
X123675311Y-96965487D01*
X123750000Y-96972843D01*
X123996074Y-96972843D01*
X123869664Y-97057307D01*
X123677307Y-97249664D01*
X123526174Y-97475851D01*
X123422071Y-97727177D01*
X123369000Y-97993983D01*
X123369000Y-98266017D01*
X123422071Y-98532823D01*
X123526174Y-98784149D01*
X123677307Y-99010336D01*
X123869664Y-99202693D01*
X124095851Y-99353826D01*
X124347177Y-99457929D01*
X124613983Y-99511000D01*
X124886017Y-99511000D01*
X125152823Y-99457929D01*
X125404149Y-99353826D01*
X125630336Y-99202693D01*
X125822693Y-99010336D01*
X125973826Y-98784149D01*
X126077929Y-98532823D01*
X126131000Y-98266017D01*
X126131000Y-97993983D01*
X126077929Y-97727177D01*
X125973826Y-97475851D01*
X125822693Y-97249664D01*
X125630336Y-97057307D01*
X125503926Y-96972843D01*
X125750000Y-96972843D01*
X125824689Y-96965487D01*
X125896508Y-96943701D01*
X125962696Y-96908322D01*
X126020711Y-96860711D01*
X126068322Y-96802696D01*
X126103701Y-96736508D01*
X126125487Y-96664689D01*
X126132843Y-96590000D01*
X126132843Y-94590000D01*
X126125487Y-94515311D01*
X126103701Y-94443492D01*
X126068322Y-94377304D01*
X126020711Y-94319289D01*
X125962696Y-94271678D01*
X125896508Y-94236299D01*
X125824689Y-94214513D01*
X125750000Y-94207157D01*
X123750000Y-94207157D01*
X123675311Y-94214513D01*
X123603492Y-94236299D01*
X123537304Y-94271678D01*
X123479289Y-94319289D01*
X123431678Y-94377304D01*
X123396299Y-94443492D01*
X123374513Y-94515311D01*
X123367157Y-94590000D01*
X120953029Y-94590000D01*
X120880336Y-94517307D01*
X120654149Y-94366174D01*
X120402823Y-94262071D01*
X120136017Y-94209000D01*
X119863983Y-94209000D01*
X119597177Y-94262071D01*
X119345851Y-94366174D01*
X119119664Y-94517307D01*
X118927307Y-94709664D01*
X118776174Y-94935851D01*
X118672071Y-95187177D01*
X118619000Y-95453983D01*
X118619000Y-95726017D01*
X118672071Y-95992823D01*
X118776174Y-96244149D01*
X118927307Y-96470336D01*
X119119664Y-96662693D01*
X119345851Y-96813826D01*
X119457325Y-96860000D01*
X119345851Y-96906174D01*
X119119664Y-97057307D01*
X118927307Y-97249664D01*
X118776174Y-97475851D01*
X118672071Y-97727177D01*
X118619000Y-97993983D01*
X118619000Y-98266017D01*
X118672071Y-98532823D01*
X118776174Y-98784149D01*
X118927307Y-99010336D01*
X119119664Y-99202693D01*
X119345851Y-99353826D01*
X119597177Y-99457929D01*
X119863983Y-99511000D01*
X120136017Y-99511000D01*
X120402823Y-99457929D01*
X120654149Y-99353826D01*
X120880336Y-99202693D01*
X121072693Y-99010336D01*
X121223826Y-98784149D01*
X121327929Y-98532823D01*
X121381000Y-98266017D01*
X121381000Y-97993983D01*
X121327929Y-97727177D01*
X121223826Y-97475851D01*
X121072693Y-97249664D01*
X120880336Y-97057307D01*
X120654149Y-96906174D01*
X120542675Y-96860000D01*
X120654149Y-96813826D01*
X120880336Y-96662693D01*
X121072693Y-96470336D01*
X121174942Y-96317310D01*
X121619000Y-96761369D01*
X121619001Y-98988630D01*
X120738632Y-99869000D01*
X103780990Y-99869000D01*
X103750000Y-99865948D01*
X103719009Y-99869000D01*
X103719002Y-99869000D01*
X103626302Y-99878130D01*
X103507358Y-99914211D01*
X103397739Y-99972804D01*
X103301657Y-100051657D01*
X103281899Y-100075732D01*
X102075737Y-101281895D01*
X102051657Y-101301657D01*
X101972804Y-101397740D01*
X101914211Y-101507359D01*
X101878130Y-101626303D01*
X101869000Y-101719003D01*
X101869000Y-101719010D01*
X101865948Y-101750000D01*
X101869000Y-101780990D01*
X101869001Y-104050107D01*
X101751116Y-104098936D01*
X101492171Y-104271957D01*
X101271957Y-104492171D01*
X101098936Y-104751116D01*
X100979757Y-105038839D01*
X100919000Y-105344285D01*
X100582843Y-105344285D01*
X100582843Y-104300000D01*
X100575487Y-104225311D01*
X100553701Y-104153492D01*
X100518322Y-104087304D01*
X100470711Y-104029289D01*
X100412696Y-103981678D01*
X100346508Y-103946299D01*
X100274689Y-103924513D01*
X100200000Y-103917157D01*
X97800000Y-103917157D01*
X97725311Y-103924513D01*
X97653492Y-103946299D01*
X97587304Y-103981678D01*
X97529289Y-104029289D01*
X97481678Y-104087304D01*
X97446299Y-104153492D01*
X97424513Y-104225311D01*
X97417157Y-104300000D01*
X90627000Y-104300000D01*
X90627000Y-92600000D01*
X92561928Y-92600000D01*
X92565000Y-93164250D01*
X92723750Y-93323000D01*
X93923000Y-93323000D01*
X93923000Y-92123750D01*
X93764250Y-91965000D01*
X93200000Y-91961928D01*
X93075518Y-91974188D01*
X92955820Y-92010498D01*
X92845506Y-92069463D01*
X92748815Y-92148815D01*
X92669463Y-92245506D01*
X92610498Y-92355820D01*
X92574188Y-92475518D01*
X92561928Y-92600000D01*
X90627000Y-92600000D01*
X90627000Y-86877000D01*
X91500000Y-86877000D01*
X91524776Y-86874560D01*
X91548601Y-86867333D01*
X91570557Y-86855597D01*
X91589803Y-86839803D01*
X91605597Y-86820557D01*
X91617333Y-86798601D01*
X91624560Y-86774776D01*
X91627000Y-86750000D01*
X91627000Y-56500000D01*
X91624560Y-56475224D01*
X91617333Y-56451399D01*
X91605597Y-56429443D01*
X91589803Y-56410197D01*
X91570557Y-56394403D01*
X91548601Y-56382667D01*
X91524776Y-56375440D01*
X91500000Y-56373000D01*
X90627000Y-56373000D01*
X90627000Y-52808769D01*
X91058395Y-52808769D01*
X91058395Y-53191231D01*
X91133009Y-53566345D01*
X91279372Y-53919695D01*
X91491857Y-54237701D01*
X91762299Y-54508143D01*
X92080305Y-54720628D01*
X92433655Y-54866991D01*
X92808769Y-54941605D01*
X93191231Y-54941605D01*
X93566345Y-54866991D01*
X93919695Y-54720628D01*
X94237701Y-54508143D01*
X94508143Y-54237701D01*
X94720628Y-53919695D01*
X94866991Y-53566345D01*
X94941605Y-53191231D01*
X94941605Y-52808769D01*
X94866991Y-52433655D01*
X94720628Y-52080305D01*
X94508143Y-51762299D01*
X94237701Y-51491857D01*
X93919695Y-51279372D01*
X93566345Y-51133009D01*
X93191231Y-51058395D01*
X92808769Y-51058395D01*
X92433655Y-51133009D01*
X92080305Y-51279372D01*
X91762299Y-51491857D01*
X91491857Y-51762299D01*
X91279372Y-52080305D01*
X91133009Y-52433655D01*
X91058395Y-52808769D01*
X90627000Y-52808769D01*
X90627000Y-50627000D01*
X113873000Y-50627000D01*
X113873000Y-57000000D01*
G37*
%TD.AperFunction*%
%TD*%
M02*
