M48
INCH,TZ
T1C0.0157
T2C0.0197
T3C0.0217
T4C0.0394
T5C0.0472
%
G90
G05
T1
X37402Y-24803
X37402Y-31496
X39764Y-38976
X40157Y-24606
X40520Y-27366
X40551Y-33268
X41882Y-25744
X42341Y-26112
X42988Y-26469
X43000Y-25703
X43051Y-27358
X43898Y-21063
X44449Y-35295
X46346Y-29531
X47047Y-30906
X48150Y-23504
X48307Y-35295
X48752Y-30673
X50098Y-27343
X50394Y-32677
X50787Y-23819
X51886Y-27075
X52165Y-35295
X52240Y-30622
X52315Y-27059
X52654Y-26165
X52925Y-33098
X52984Y-26531
X53035Y-28531
X53039Y-28031
X53075Y-23531
X53740Y-30315
X55315Y-26181
X55984Y-32165
X56102Y-36220
X56299Y-33563
X57087Y-31744
X57689Y-22661
X58327Y-27531
X58362Y-29031
X58488Y-35173
X58583Y-31693
X60315Y-28189
X60551Y-40748
X60787Y-39055
X64370Y-22441
X64370Y-30827
X65551Y-39370
T4
X45244Y-37634
X45244Y-38634
X45244Y-41634
X47244Y-37634
X47244Y-38634
X47244Y-41634
X52953Y-37634
X52953Y-38634
X52953Y-41634
X54953Y-37634
X54953Y-38634
X54953Y-41634
X57205Y-20689
X58205Y-20689
X59205Y-20689
X60205Y-20689
X61205Y-20689
X62205Y-20689
X49114Y-37634
X49114Y-38634
X49114Y-41634
X51114Y-37634
X51114Y-38634
X51114Y-41634
X37028Y-36791
X37028Y-37791
X38028Y-36791
X38028Y-37791
X39028Y-36791
X39028Y-37791
X40028Y-36791
X40028Y-37791
X41028Y-36791
X41028Y-37791
X42028Y-36791
X42028Y-37791
T5
X38976Y-41535
X40354Y-41535
X41732Y-41535
X43110Y-41535
X57776Y-41535
X59154Y-41535
T2
G00X61024Y-42589
M15
G01X61024Y-42844
M16
G05
G00X63780Y-42589
M15
G01X63780Y-42844
M16
G05
T3
G00X61358Y-41654
M15
G01X61476Y-41654
M16
G05
G00X63327Y-41654
M15
G01X63445Y-41654
M16
G05
T0
M30
